<svg id="Layer_3" data-name="Layer 3" xmlns="http://www.w3.org/2000/svg" viewBox="0 0 30.27442 48.17"><title>chess</title><path d="M16.94769,19.53162c1.01641-.73038,11.37107-1.97846,8.28108,1.02853A30.01322,30.01322,0,0,0,16.044,39.02864H36.523C36.0714,23.4895,40.11916,29.06436,40.1372,15.28426a13.12252,13.12252,0,0,0-2.88241-8.12237A14.24587,14.24587,0,0,0,27.51006,2.536a6.07516,6.07516,0,0,0,2.00131,2.44922,10.20716,10.20716,0,0,0,1.02564.4972c2.51185,1.11222,7.19226,3.1924,7.19226,10.78165a16.67488,16.67488,0,0,1-1.72573,7.57645,17.3584,17.3584,0,0,0-1.73936,8.38983,0.66914,0.66914,0,0,1-.66417.66885H33.58639a0.66545,0.66545,0,0,1-.67738-0.64668,18.46057,18.46057,0,0,1,1.84769-8.92625A15.42529,15.42529,0,0,0,36.374,16.26406c0-6.74008-4.00716-8.52128-6.39705-9.58147a9.78535,9.78535,0,0,1-1.20183-.59369,7.87581,7.87581,0,0,1-2.80546-3.72373A11.74212,11.74212,0,0,0,21.47448.918c-0.29829-.0351-0.59176.24172-0.42465,0.39547a3.278,3.278,0,0,1,.804,4.41061,5.32916,5.32916,0,0,0-2.95014,2.08445c-0.71826,1.13438-7.37726,7.03575-7.82917,7.3262-0.45177.29388-2.48474,2.41839,0,4.98627C14.85595,24.02592,15.93114,20.26626,16.94769,19.53162ZM20.729,8.27494a1.0289,1.0289,0,0,1,.74992,1.16522A1.02433,1.02433,0,0,1,20.729,10.6011a1.02426,1.02426,0,0,1-.74978-1.16095A1.02882,1.02882,0,0,1,20.729,8.27494ZM12.213,17.1303a0.852,0.852,0,0,1-1.057.3656,0.80285,0.80285,0,0,1,.12182-1.08662,0.847,0.847,0,0,1,1.0573-.36478A0.7925,0.7925,0,0,1,12.213,17.1303Zm27.76612,24.163a1.36506,1.36506,0,0,0-1.19288-.84408c-4.17867-.21529-8.41653-0.32541-12.59974-0.32541-4.17908,0-8.41653.11012-12.59561,0.32541a1.36483,1.36483,0,0,0-1.19261.84408,1.29921,1.29921,0,0,0,.30269,1.40266c1.39138,1.372,1.39138,2.445,0,3.81692a1.29915,1.29915,0,0,0-.30269,1.40266,1.36483,1.36483,0,0,0,1.19261.84408C17.77,48.97571,22.00747,49.085,26.18655,49.085c4.18321,0,8.42107-.10929,12.59974-0.32541a1.36506,1.36506,0,0,0,1.19288-.84408,1.29966,1.29966,0,0,0-.30269-1.40266c-1.39151-1.372-1.39151-2.445,0-3.81692A1.29971,1.29971,0,0,0,39.97917,41.29327Zm-5.63832,4.21239H17.133a0.65973,0.65973,0,1,1,0-1.319H34.34085A0.65973,0.65973,0,1,1,34.34085,45.50566Z" transform="translate(-9.86279 -0.915)"/></svg>