<?xml version="1.0" encoding="utf-8"?>
<!-- Generator: Adobe Illustrator 19.2.1, SVG Export Plug-In . SVG Version: 6.00 Build 0)  -->
<svg version="1.1" id="doubt" xmlns="http://www.w3.org/2000/svg" xmlns:xlink="http://www.w3.org/1999/xlink" x="0px" y="0px"
	 viewBox="0 0 50 50" style="enable-background:new 0 0 50 50;" xml:space="preserve">
<title>doubt</title>
<path class="doubt" d="M25,0C11.2,0,0,11.2,0,25s11.2,25,25,25s25-11.2,25-25c0,0,0,0,0,0C50,11.2,38.8,0,25,0z M24.4,41.7
	c-1.9,0.1-3.5-1.5-3.6-3.4c0-0.1,0-0.1,0-0.2c0-2.1,1.8-3.8,3.9-3.9c1.9-0.1,3.5,1.4,3.5,3.3c0,0.1,0,0.2,0,0.3
	C28.3,40,26.6,41.7,24.4,41.7z M26.1,28.3c0,1.2,0.2,2.3,0.6,3.4h-5.1c-0.9-1.3-1.3-2.9-1.3-4.5c0-5.6,6.4-6.2,6.4-10.6
	c0-2-1.3-3.3-4.9-3.3c-1.4,0-2.9,0.3-4.2,0.9V9.4c0.9-0.6,3.6-1.1,5.9-1.1c7,0,10.4,3.1,10.3,7.7C33.9,23.1,26.3,22.8,26.1,28.3z"/>
</svg>
