<?xml version="1.0" encoding="utf-8"?>
<!-- Generator: Adobe Illustrator 19.2.1, SVG Export Plug-In . SVG Version: 6.00 Build 0)  -->
<svg version="1.1" id="Layer_1" xmlns="http://www.w3.org/2000/svg" xmlns:xlink="http://www.w3.org/1999/xlink" x="0px" y="0px"
	 viewBox="0 0 334.7 299.4" style="enable-background:new 0 0 334.7 299.4;" xml:space="preserve">
<style type="text/css">
	.st0{fill:#96C955;}
	.st1{fill:#3DC3A5;}
	.st2{fill:#44B6DE;}
	.st3{fill:#A386DF;}
	.st4{fill:#A9D973;}
	.st5{fill:#52D5B7;}
	.st6{fill:#59C7EB;}
	.st7{fill:#B49EEC;}
	.st8{enable-background:new    ;}
	.st9{fill:#FFFFFF;}
</style>
<title>funil-jornada</title>
<polygon class="st0" points="84.5,67.3 20,67.3 0,0 64.5,0 "/>
<polygon class="st1" points="107.7,144.7 43.2,144.7 23.2,77.4 87.7,77.4 "/>
<polygon class="st2" points="130.8,222.1 66.3,222.1 46.3,154.7 110.8,154.7 "/>
<polygon class="st3" points="153,299.4 89.5,299.4 69.5,232.1 133,232.1 "/>
<polygon class="st4" points="314.7,67.3 82.7,67.3 62.7,0 334.7,0 "/>
<polygon class="st5" points="291.5,144.7 105.9,144.7 85.9,77.4 311.5,77.4 "/>
<polygon class="st6" points="268.3,222.1 129,222.1 109,154.7 288.3,154.7 "/>
<polygon class="st7" points="245.2,299.4 152.1,299.4 132.1,232.1 265.2,232.1 "/>
<g class="st8">
	<path class="st9" d="M151,19.8h2.2l3.9,10.5h-2.4l-0.7-2.2h-3.8l-0.7,2.2h-2.3L151,19.8z M153.5,26.6l-1.1-3.6l-0.3-1.1l-0.3,1.1
		l-1.1,3.6H153.5z"/>
	<path class="st9" d="M160.2,31.3v2.5h-2.1V22.5h2v0.8c0.4-0.4,1-0.9,2.3-0.9c1.7,0,3.1,1.2,3.1,3.7c0,2.6-1.6,4.3-4,4.3
		c-0.5,0-1-0.1-1.3-0.2L160.2,31.3z M161.4,28.9c1,0,1.8-0.9,1.8-2.6c0-1.8-0.6-2.3-1.5-2.3c-0.6,0-1.1,0.2-1.5,0.5v4.1
		C160.5,28.9,161,28.9,161.4,28.9z"/>
	<path class="st9" d="M167.2,22.5h1.9l0.1,1.1c0.3-0.6,1.2-1.2,2.2-1.2c0.3,0,0.5,0,0.6,0.1v2.1c-0.2-0.1-0.4-0.2-0.9-0.2
		c-0.9,0-1.4,0.4-1.7,0.7v5.3h-2.1V22.5z"/>
	<path class="st9" d="M176.8,22.4c1.6,0,3.1,0.8,3.1,3.1c0,0.6,0,1.1-0.1,1.5h-4.6c0.1,1.3,0.9,1.9,2.1,1.9c0.6,0,1.6-0.2,2-0.4
		l0.3,1.2c-0.5,0.4-1.7,0.8-2.9,0.8c-2.4,0-3.7-1.5-3.7-4C173.1,24.1,174.4,22.4,176.8,22.4z M177.9,25.8c0.1-1.1-0.2-1.8-1.2-1.8
		c-0.8,0-1.3,0.4-1.5,1.8H177.9z"/>
	<path class="st9" d="M181.8,22.5h1.9l0,0.8c0.5-0.4,1.6-0.9,2.5-1c1.6-0.1,2.4,0.8,2.4,3v4.9h-2.1v-4.4c0-1.3-0.3-1.7-1.1-1.7
		c-0.4,0-1.1,0.2-1.5,0.6v5.5h-2.1V22.5z"/>
	<path class="st9" d="M194.4,22.4c0.5,0,1,0.1,1.3,0.2l0-0.7v-3h2.1v11.5h-1.4c-0.3,0-0.5,0-0.5-0.4v-0.5c-0.4,0.4-1,0.9-2.3,0.9
		c-1.7,0-3.1-1.2-3.1-3.8C190.5,24.1,192.1,22.4,194.4,22.4z M195.7,28.4v-4.2c-0.3-0.2-0.7-0.2-1.2-0.2c-1,0-1.8,0.8-1.8,2.6
		c0,1.7,0.6,2.3,1.5,2.3C194.8,28.8,195.4,28.6,195.7,28.4z"/>
	<path class="st9" d="M200,20.2c0-0.7,0.6-1.3,1.4-1.3c0.8,0,1.2,0.5,1.2,1.2c0,0.7-0.6,1.3-1.4,1.3C200.5,21.4,200,20.9,200,20.2z
		 M200.2,22.5h2.1v7.8h-2.1V22.5z"/>
	<path class="st9" d="M207.4,24.6l0.4-0.6h-3.3l0-1.5h5.9l0.2,0.6l-3.3,5.1l-0.4,0.6h3.6v1.5h-6.2l-0.3-0.6L207.4,24.6z"/>
	<path class="st9" d="M213.1,25.9c0.9-0.4,2.1-0.5,3.1-0.5V25c0-0.8-0.2-1-1.5-1c-0.4,0-1.5,0.3-2.1,0.6l-0.5-1.4
		c0.5-0.3,1.9-0.8,3.1-0.8c2.2,0,3.2,0.6,3.2,2.9v5.2h-1.2c-0.5,0-0.8,0-0.8-0.7v-0.1c-0.4,0.4-1.1,0.8-2,0.8
		c-1.5,0-2.5-1.1-2.5-2.5C211.8,27,212.3,26.3,213.1,25.9z M215,29c0.5,0,1.1-0.2,1.2-0.4v-1.9c-0.5,0-1.3,0.1-1.6,0.3
		c-0.3,0.1-0.7,0.3-0.7,0.9C214,28.6,214.4,29,215,29z"/>
	<path class="st9" d="M224,22.4c0.5,0,1,0.1,1.3,0.2l0-0.7v-3h2.1v11.5H226c-0.3,0-0.5,0-0.5-0.4v-0.5c-0.4,0.4-1,0.9-2.3,0.9
		c-1.7,0-3.1-1.2-3.1-3.8C220.1,24.1,221.7,22.4,224,22.4z M225.3,28.4v-4.2c-0.3-0.2-0.7-0.2-1.2-0.2c-1,0-1.8,0.8-1.8,2.6
		c0,1.7,0.6,2.3,1.5,2.3C224.4,28.8,225,28.6,225.3,28.4z"/>
	<path class="st9" d="M233.1,22.4c2.7,0,3.8,1.9,3.7,4.2c0,2.5-1.7,3.8-3.9,3.8c-2.7,0-3.8-1.9-3.7-4.2
		C229.3,23.8,230.9,22.4,233.1,22.4z M234.6,26.5c0-1.3-0.4-2.5-1.6-2.5c-1.1,0-1.6,0.9-1.6,2.4c0,1.4,0.5,2.6,1.6,2.6
		C234.1,28.9,234.6,28.1,234.6,26.5z"/>
	<path class="st9" d="M246.4,22.4c1.6,0,3.1,0.8,3.1,3.1c0,0.6,0,1.1-0.1,1.5h-4.6c0.1,1.3,0.9,1.9,2.1,1.9c0.6,0,1.6-0.2,2-0.4
		l0.3,1.2c-0.5,0.4-1.7,0.8-2.9,0.8c-2.4,0-3.7-1.5-3.7-4C242.7,24.1,244,22.4,246.4,22.4z M247.5,25.8c0.1-1.1-0.2-1.8-1.2-1.8
		c-0.8,0-1.3,0.4-1.5,1.8H247.5z"/>
</g>
<g class="st8">
	<path class="st9" d="M164,39.2c0.5,0,1,0.1,1.3,0.2l0-0.7v-3h2.1v11.5h-1.4c-0.3,0-0.5,0-0.5-0.4v-0.5c-0.4,0.4-1,0.9-2.3,0.9
		c-1.7,0-3.1-1.2-3.1-3.8C160,40.9,161.6,39.2,164,39.2z M165.2,45.2V41c-0.3-0.2-0.7-0.2-1.2-0.2c-1,0-1.8,0.8-1.8,2.6
		c0,1.7,0.6,2.3,1.5,2.3C164.3,45.6,164.9,45.4,165.2,45.2z"/>
	<path class="st9" d="M172.9,39.2c1.6,0,3.1,0.8,3.1,3.1c0,0.6,0,1.1-0.1,1.5h-4.6c0.1,1.3,0.9,1.9,2.1,1.9c0.6,0,1.6-0.2,2-0.4
		l0.3,1.2c-0.5,0.4-1.7,0.8-2.9,0.8c-2.4,0-3.7-1.5-3.7-4C169.2,40.9,170.5,39.2,172.9,39.2z M174,42.6c0.1-1.1-0.2-1.8-1.2-1.8
		c-0.8,0-1.3,0.4-1.5,1.8H174z"/>
	<path class="st9" d="M177.6,45c0.2,0.2,1.2,0.6,2.2,0.6c0.8,0,1.2-0.2,1.2-0.6c0-0.5-0.6-0.8-1.7-1.1c-1.4-0.5-2-1.3-2-2.4
		c0-1.5,1.3-2.2,3.1-2.2c1.1,0,1.9,0.3,2.2,0.4l-0.2,1.6c-0.3-0.3-1.1-0.5-1.8-0.5c-0.9,0-1.3,0.2-1.3,0.6c0,0.5,0.4,0.7,1.5,1.1
		c1.6,0.5,2.2,1.2,2.2,2.3c0,1.6-1.2,2.4-3.1,2.4c-1.1,0-2.3-0.3-2.7-0.6L177.6,45z"/>
	<path class="st9" d="M188.3,39.2c1,0,1.8,0.2,2,0.4l-0.3,1.6c-0.4-0.2-0.8-0.3-1.5-0.3c-0.9,0-1.9,0.5-2,2.1c0,1.7,0.8,2.5,1.9,2.5
		c0.7,0,1.4-0.2,1.7-0.3l0.3,1.3c-0.5,0.5-1.4,0.8-2.4,0.8c-2.4,0-3.6-1.7-3.6-3.9C184.4,41,185.7,39.2,188.3,39.2z"/>
	<path class="st9" d="M195.5,39.2c2.7,0,3.8,1.9,3.7,4.2c0,2.5-1.7,3.8-3.9,3.8c-2.7,0-3.8-1.9-3.7-4.2
		C191.7,40.6,193.3,39.2,195.5,39.2z M197,43.3c0-1.3-0.4-2.5-1.6-2.5c-1.1,0-1.6,0.9-1.6,2.4c0,1.4,0.5,2.6,1.6,2.6
		C196.5,45.7,197,44.9,197,43.3z"/>
	<path class="st9" d="M201,35.8h2.1v3l-0.1,1.3c0.4-0.4,1-0.8,2.2-0.8c1.7,0,3.1,1.2,3.1,3.7c0,2.6-1.7,4.3-4.1,4.3
		c-1.4,0-3.1-0.4-3.3-0.6V35.8z M204.3,45.8c1,0,1.8-1,1.8-2.7c0-1.8-0.6-2.3-1.5-2.3c-0.6,0-1.1,0.2-1.5,0.5v4.2
		C203.3,45.7,203.7,45.8,204.3,45.8z"/>
	<path class="st9" d="M213.4,39.2c1.6,0,3.1,0.8,3.1,3.1c0,0.6,0,1.1-0.1,1.5h-4.6c0.1,1.3,0.9,1.9,2.1,1.9c0.6,0,1.6-0.2,2-0.4
		l0.3,1.2c-0.5,0.4-1.7,0.8-2.9,0.8c-2.4,0-3.7-1.5-3.7-4C209.7,40.9,211,39.2,213.4,39.2z M214.5,42.6c0.1-1.1-0.2-1.8-1.2-1.8
		c-0.8,0-1.3,0.4-1.5,1.8H214.5z"/>
	<path class="st9" d="M218.2,39.3h1.9l0.1,1.1c0.3-0.6,1.2-1.2,2.2-1.2c0.3,0,0.5,0,0.6,0.1v2.1c-0.2-0.1-0.4-0.2-0.9-0.2
		c-0.9,0-1.4,0.4-1.7,0.7v5.3h-2.1V39.3z"/>
	<path class="st9" d="M224.9,40.8H224v-1.2c0.7-0.2,1.1-0.3,1.3-0.7c0.1-0.3,0.3-0.9,0.5-1.4h1.3v1.8h2.1v1.5h-2.1v3.1
		c0,1.6,0.2,1.7,0.9,1.7c0.4,0,1-0.2,1.2-0.3l0.3,1.2c-0.4,0.3-1.3,0.7-2.3,0.7c-1.6,0-2.2-0.7-2.2-2.4V40.8z"/>
	<path class="st9" d="M231.8,42.7c0.9-0.4,2.1-0.5,3.1-0.5v-0.5c0-0.8-0.2-1-1.5-1c-0.4,0-1.5,0.3-2.1,0.6l-0.5-1.4
		c0.5-0.3,1.9-0.8,3.1-0.8c2.2,0,3.2,0.6,3.2,2.9v5.2h-1.2c-0.5,0-0.8,0-0.8-0.7v-0.1c-0.4,0.4-1.1,0.8-2,0.8
		c-1.5,0-2.5-1.1-2.5-2.5C230.4,43.8,230.9,43.1,231.8,42.7z M233.7,45.8c0.5,0,1.1-0.2,1.2-0.4v-1.9c-0.5,0-1.3,0.1-1.6,0.3
		c-0.3,0.1-0.7,0.3-0.7,0.9C232.6,45.4,233.1,45.8,233.7,45.8z"/>
</g>
<g class="st8">
	<path class="st9" d="M140.5,98.4h1c0.6,0,1.3-0.1,2.8-0.1c1.9,0,3.7,0.7,3.7,3.1c0,1.7-0.6,2.6-1.7,3c0.8,0.7,1.3,2.4,1.9,3.6
		l0.4,0.8h-2.4c-0.1-0.2-0.2-0.3-0.4-0.8c-0.6-1.2-0.8-3.2-1.8-3.2c-0.3,0-0.8,0-1.4,0v3.9h-2.2V98.4z M144.2,103.4
		c1.3,0,1.8-0.9,1.8-1.9c0-0.8-0.3-1.6-1.9-1.6c-0.5,0-1,0-1.3,0.1v3.3C143,103.4,143.8,103.4,144.2,103.4z"/>
	<path class="st9" d="M153.4,100.9c1.6,0,3.1,0.8,3.1,3.1c0,0.6,0,1.1-0.1,1.5h-4.6c0.1,1.3,0.9,1.9,2.1,1.9c0.6,0,1.6-0.2,2-0.4
		l0.3,1.2c-0.5,0.4-1.7,0.8-2.9,0.8c-2.4,0-3.7-1.5-3.7-4C149.7,102.6,151.1,100.9,153.4,100.9z M154.6,104.3
		c0.1-1.1-0.2-1.8-1.2-1.8c-0.8,0-1.3,0.4-1.5,1.8H154.6z"/>
	<path class="st9" d="M161.7,100.9c1,0,1.8,0.2,2,0.4l-0.3,1.6c-0.4-0.2-0.8-0.3-1.5-0.3c-0.9,0-1.9,0.5-2,2.1
		c0,1.7,0.8,2.5,1.9,2.5c0.7,0,1.4-0.2,1.7-0.3l0.3,1.3c-0.5,0.5-1.4,0.8-2.4,0.8c-2.4,0-3.6-1.7-3.6-3.9
		C157.9,102.7,159.1,100.9,161.7,100.9z"/>
	<path class="st9" d="M168.9,100.9c2.7,0,3.8,1.9,3.7,4.2c0,2.5-1.7,3.8-3.9,3.8c-2.7,0-3.8-1.9-3.7-4.2
		C165.1,102.3,166.7,100.9,168.9,100.9z M170.4,105c0-1.3-0.4-2.5-1.6-2.5c-1.1,0-1.6,0.9-1.6,2.4c0,1.4,0.5,2.6,1.6,2.6
		C169.9,107.4,170.4,106.6,170.4,105z"/>
	<path class="st9" d="M174.5,101h1.9l0,0.8c0.5-0.4,1.6-0.9,2.5-1c1.6-0.1,2.4,0.8,2.4,3v4.9h-2.1v-4.4c0-1.3-0.3-1.7-1.1-1.7
		c-0.4,0-1.1,0.2-1.5,0.6v5.5h-2.1V101z"/>
	<path class="st9" d="M183.7,97.5h2.1v3l-0.1,1.4c0.5-0.5,1.5-0.9,2.4-0.9c1.7-0.1,2.6,0.8,2.6,3.1v4.9h-2.1v-4.4
		c0-1.3-0.3-1.7-1.2-1.7c-0.4,0-1.1,0.2-1.5,0.6v5.5h-2.1V97.5z"/>
	<path class="st9" d="M196.1,100.9c1.6,0,3.1,0.8,3.1,3.1c0,0.6,0,1.1-0.1,1.5h-4.6c0.1,1.3,0.9,1.9,2.1,1.9c0.6,0,1.6-0.2,2-0.4
		l0.3,1.2c-0.5,0.4-1.7,0.8-2.9,0.8c-2.4,0-3.7-1.5-3.7-4C192.4,102.6,193.7,100.9,196.1,100.9z M197.2,104.3
		c0.1-1.1-0.2-1.8-1.2-1.8c-0.8,0-1.3,0.4-1.5,1.8H197.2z"/>
	<path class="st9" d="M204.4,100.9c1,0,1.8,0.2,2,0.4l-0.3,1.6c-0.4-0.2-0.8-0.3-1.5-0.3c-0.9,0-1.9,0.5-2,2.1
		c0,1.7,0.8,2.5,1.9,2.5c0.7,0,1.4-0.2,1.7-0.3l0.3,1.3c-0.5,0.5-1.4,0.8-2.4,0.8c-2.4,0-3.6-1.7-3.6-3.9
		C200.5,102.7,201.8,100.9,204.4,100.9z"/>
	<path class="st9" d="M208.1,98.7c0-0.7,0.6-1.3,1.4-1.3c0.8,0,1.2,0.5,1.2,1.2c0,0.7-0.6,1.3-1.4,1.3
		C208.6,99.9,208.1,99.4,208.1,98.7z M208.2,101h2.1v7.8h-2.1V101z"/>
	<path class="st9" d="M212.8,101h1.9l0,0.8c0.5-0.4,1.6-0.9,2.5-1s1.6,0.3,2,0.9c0.5-0.4,1.5-0.9,2.6-0.9c1.6,0,2.5,0.7,2.5,3v4.9
		h-2.1v-4.4c0-1.3-0.2-1.7-1.1-1.7c-0.5,0-1.1,0.3-1.5,0.6c0,0.2,0,0.5,0,0.7v4.8h-2.1v-4.4c0-1.3-0.2-1.7-1.1-1.7
		c-0.4,0-1.1,0.2-1.5,0.6v5.5h-2.1V101z"/>
	<path class="st9" d="M229.9,100.9c1.6,0,3.1,0.8,3.1,3.1c0,0.6,0,1.1-0.1,1.5h-4.6c0.1,1.3,0.9,1.9,2.1,1.9c0.6,0,1.6-0.2,2-0.4
		l0.3,1.2c-0.5,0.4-1.7,0.8-2.9,0.8c-2.4,0-3.7-1.5-3.7-4C226.2,102.6,227.5,100.9,229.9,100.9z M231,104.3c0.1-1.1-0.2-1.8-1.2-1.8
		c-0.8,0-1.3,0.4-1.5,1.8H231z"/>
	<path class="st9" d="M234.9,101h1.9l0,0.8c0.5-0.4,1.6-0.9,2.5-1c1.6-0.1,2.4,0.8,2.4,3v4.9h-2.1v-4.4c0-1.3-0.3-1.7-1.1-1.7
		c-0.4,0-1.1,0.2-1.5,0.6v5.5h-2.1V101z"/>
	<path class="st9" d="M244.4,102.5h-0.9v-1.2c0.7-0.2,1.1-0.3,1.3-0.7c0.1-0.3,0.3-0.9,0.5-1.4h1.3v1.8h2.1v1.5h-2.1v3.1
		c0,1.6,0.2,1.7,0.9,1.7c0.4,0,1-0.2,1.2-0.3l0.3,1.2c-0.4,0.3-1.3,0.7-2.3,0.7c-1.6,0-2.2-0.7-2.2-2.4V102.5z"/>
	<path class="st9" d="M253.7,100.9c2.7,0,3.8,1.9,3.7,4.2c0,2.5-1.7,3.8-3.9,3.8c-2.7,0-3.8-1.9-3.7-4.2
		C249.9,102.3,251.5,100.9,253.7,100.9z M255.2,105c0-1.3-0.4-2.5-1.6-2.5c-1.1,0-1.6,0.9-1.6,2.4c0,1.4,0.5,2.6,1.6,2.6
		C254.7,107.4,255.2,106.6,255.2,105z"/>
</g>
<g class="st8">
	<path class="st9" d="M157.7,117.7c0.5,0,1,0.1,1.3,0.2l0-0.7v-3h2.1v11.5h-1.4c-0.3,0-0.5,0-0.5-0.4v-0.5c-0.4,0.4-1,0.9-2.3,0.9
		c-1.7,0-3.1-1.2-3.1-3.8C153.7,119.4,155.3,117.7,157.7,117.7z M158.9,123.7v-4.2c-0.3-0.2-0.7-0.2-1.2-0.2c-1,0-1.8,0.8-1.8,2.6
		c0,1.7,0.6,2.3,1.5,2.3C158,124.1,158.6,123.9,158.9,123.7z"/>
	<path class="st9" d="M166.7,117.7c2.7,0,3.8,1.9,3.7,4.2c0,2.5-1.7,3.8-3.9,3.8c-2.7,0-3.8-1.9-3.7-4.2
		C162.9,119.1,164.5,117.7,166.7,117.7z M168.2,121.8c0-1.3-0.4-2.5-1.6-2.5c-1.1,0-1.6,0.9-1.6,2.4c0,1.4,0.5,2.6,1.6,2.6
		C167.7,124.2,168.2,123.4,168.2,121.8z"/>
	<path class="st9" d="M178.9,126.6v2.5h-2.1v-11.3h2v0.8c0.4-0.4,1-0.9,2.3-0.9c1.7,0,3.1,1.2,3.1,3.7c0,2.6-1.6,4.3-4,4.3
		c-0.5,0-1-0.1-1.3-0.2L178.9,126.6z M180.1,124.2c1,0,1.8-0.9,1.8-2.6c0-1.8-0.6-2.3-1.5-2.3c-0.6,0-1.1,0.2-1.5,0.5v4.1
		C179.2,124.2,179.7,124.2,180.1,124.2z"/>
	<path class="st9" d="M185.9,117.8h1.9l0.1,1.1c0.3-0.6,1.2-1.2,2.2-1.2c0.3,0,0.5,0,0.6,0.1v2.1c-0.2-0.1-0.4-0.2-0.9-0.2
		c-0.9,0-1.4,0.4-1.7,0.7v5.3h-2.1V117.8z"/>
	<path class="st9" d="M195.7,117.7c2.7,0,3.8,1.9,3.7,4.2c0,2.5-1.7,3.8-3.9,3.8c-2.7,0-3.8-1.9-3.7-4.2
		C191.9,119.1,193.5,117.7,195.7,117.7z M197.2,121.8c0-1.3-0.4-2.5-1.6-2.5c-1.1,0-1.6,0.9-1.6,2.4c0,1.4,0.5,2.6,1.6,2.6
		C196.7,124.2,197.2,123.4,197.2,121.8z"/>
	<path class="st9" d="M201.2,114.3h2.1v3l-0.1,1.3c0.4-0.4,1-0.8,2.2-0.8c1.7,0,3.1,1.2,3.1,3.7c0,2.6-1.7,4.3-4.1,4.3
		c-1.4,0-3.1-0.4-3.3-0.6V114.3z M204.5,124.3c1,0,1.8-1,1.8-2.7c0-1.8-0.6-2.3-1.5-2.3c-0.6,0-1.1,0.2-1.5,0.5v4.2
		C203.5,124.2,203.9,124.3,204.5,124.3z"/>
	<path class="st9" d="M210.4,114.3h2.1v11.4h-2.1V114.3z"/>
	<path class="st9" d="M218.2,117.7c1.6,0,3.1,0.8,3.1,3.1c0,0.6,0,1.1-0.1,1.5h-4.6c0.1,1.3,0.9,1.9,2.1,1.9c0.6,0,1.6-0.2,2-0.4
		l0.3,1.2c-0.5,0.4-1.7,0.8-2.9,0.8c-2.4,0-3.7-1.5-3.7-4C214.5,119.4,215.8,117.7,218.2,117.7z M219.3,121.1
		c0.1-1.1-0.2-1.8-1.2-1.8c-0.8,0-1.3,0.4-1.5,1.8H219.3z"/>
	<path class="st9" d="M223.1,117.8h1.9l0,0.8c0.5-0.4,1.6-0.9,2.5-1s1.6,0.3,2,0.9c0.5-0.4,1.5-0.9,2.6-0.9c1.6,0,2.5,0.7,2.5,3v4.9
		h-2.1v-4.4c0-1.3-0.2-1.7-1.1-1.7c-0.5,0-1.1,0.3-1.5,0.6c0,0.2,0,0.5,0,0.7v4.8h-2.1v-4.4c0-1.3-0.2-1.7-1.1-1.7
		c-0.4,0-1.1,0.2-1.5,0.6v5.5h-2.1V117.8z"/>
	<path class="st9" d="M238,121.2c0.9-0.4,2.1-0.5,3.1-0.5v-0.5c0-0.8-0.2-1-1.5-1c-0.4,0-1.5,0.3-2.1,0.6l-0.5-1.4
		c0.5-0.3,1.9-0.8,3.1-0.8c2.2,0,3.2,0.6,3.2,2.9v5.2H242c-0.5,0-0.8,0-0.8-0.7V125c-0.4,0.4-1.1,0.8-2,0.8c-1.5,0-2.5-1.1-2.5-2.5
		C236.6,122.3,237.2,121.6,238,121.2z M239.9,124.3c0.5,0,1.1-0.2,1.2-0.4V122c-0.5,0-1.3,0.1-1.6,0.3c-0.3,0.1-0.7,0.3-0.7,0.9
		C238.8,123.9,239.3,124.3,239.9,124.3z"/>
</g>
<g class="st8">
	<path class="st9" d="M156.9,172.2c1.5,0,2.2,0.3,2.8,0.4l-0.3,1.9c-0.4-0.2-1-0.6-2.4-0.6c-1.7,0-3,1.3-3,3.5
		c0,2.2,1.2,3.7,3.2,3.7c0.9,0,2.1-0.4,2.4-0.7l0,1.8c-0.6,0.2-1.4,0.5-2.6,0.5c-3.2,0-5.2-2.1-5.2-5.3
		C151.8,174.1,154.1,172.2,156.9,172.2z"/>
	<path class="st9" d="M164.5,174.8c2.7,0,3.8,1.9,3.7,4.2c0,2.5-1.7,3.8-3.9,3.8c-2.7,0-3.8-1.9-3.7-4.2
		C160.7,176.2,162.3,174.8,164.5,174.8z M166,178.9c0-1.3-0.4-2.5-1.6-2.5c-1.1,0-1.6,0.9-1.6,2.4c0,1.4,0.5,2.6,1.6,2.6
		C165.6,181.4,166,180.5,166,178.9z"/>
	<path class="st9" d="M170.1,175h1.9l0,0.8c0.5-0.4,1.6-0.9,2.5-1c1.6-0.1,2.4,0.8,2.4,3v4.9h-2.1v-4.4c0-1.3-0.3-1.7-1.1-1.7
		c-0.4,0-1.1,0.2-1.5,0.6v5.5h-2.1V175z"/>
	<path class="st9" d="M179.1,180.7c0.2,0.2,1.2,0.6,2.2,0.6c0.8,0,1.2-0.2,1.2-0.6c0-0.5-0.6-0.8-1.7-1.1c-1.4-0.5-2-1.3-2-2.4
		c0-1.5,1.3-2.2,3.1-2.2c1.1,0,1.9,0.3,2.2,0.4l-0.2,1.6c-0.3-0.3-1.1-0.5-1.8-0.5c-0.9,0-1.3,0.2-1.3,0.6c0,0.5,0.4,0.7,1.5,1.1
		c1.6,0.5,2.2,1.2,2.2,2.3c0,1.6-1.2,2.4-3.1,2.4c-1.1,0-2.3-0.3-2.7-0.6L179.1,180.7z"/>
	<path class="st9" d="M186.3,172.6c0-0.7,0.6-1.3,1.4-1.3c0.8,0,1.2,0.5,1.2,1.2c0,0.7-0.6,1.3-1.4,1.3
		C186.9,173.8,186.3,173.3,186.3,172.6z M186.5,175h2.1v7.8h-2.1V175z"/>
	<path class="st9" d="M194.4,174.8c0.5,0,1,0.1,1.3,0.2l0-0.7v-3h2.1v11.5h-1.4c-0.3,0-0.5,0-0.5-0.4v-0.5c-0.4,0.4-1,0.9-2.3,0.9
		c-1.7,0-3.1-1.2-3.1-3.8C190.5,176.5,192.1,174.8,194.4,174.8z M195.7,180.8v-4.2c-0.3-0.2-0.7-0.2-1.2-0.2c-1,0-1.8,0.8-1.8,2.6
		c0,1.7,0.6,2.3,1.5,2.3C194.8,181.2,195.4,181,195.7,180.8z"/>
	<path class="st9" d="M203.3,174.8c1.6,0,3.1,0.8,3.1,3.1c0,0.6,0,1.1-0.1,1.5h-4.6c0.1,1.3,0.9,1.9,2.1,1.9c0.6,0,1.6-0.2,2-0.4
		l0.3,1.2c-0.5,0.4-1.7,0.8-2.9,0.8c-2.4,0-3.7-1.5-3.7-4C199.6,176.6,201,174.9,203.3,174.8z M204.5,178.2c0.1-1.1-0.2-1.8-1.2-1.8
		c-0.8,0-1.3,0.4-1.5,1.8H204.5z"/>
	<path class="st9" d="M208.2,175h1.9l0.1,1.1c0.3-0.6,1.2-1.2,2.2-1.2c0.3,0,0.5,0,0.6,0.1v2.1c-0.2-0.1-0.4-0.2-0.9-0.2
		c-0.9,0-1.4,0.4-1.7,0.7v5.3h-2.1V175z"/>
	<path class="st9" d="M215.5,178.4c0.9-0.4,2.1-0.5,3.1-0.5v-0.5c0-0.8-0.2-1-1.5-1c-0.4,0-1.5,0.3-2.1,0.6l-0.5-1.4
		c0.5-0.3,1.9-0.8,3.1-0.8c2.2,0,3.2,0.6,3.2,2.9v5.2h-1.2c-0.5,0-0.8,0-0.8-0.7v-0.1c-0.4,0.4-1.1,0.8-2,0.8
		c-1.5,0-2.5-1.1-2.5-2.5C214.1,179.4,214.7,178.8,215.5,178.4z M217.4,181.4c0.5,0,1.1-0.2,1.2-0.4v-1.9c-0.5,0-1.3,0.1-1.6,0.3
		c-0.3,0.1-0.7,0.3-0.7,0.9C216.3,181.1,216.8,181.4,217.4,181.4z"/>
	<path class="st9" d="M224.6,184.7c0.4,0,0.8-0.3,0.8-1c0-0.4,0-0.7-0.1-0.9c-1.9-0.3-2.9-1.9-2.9-3.9c0-2.3,1.2-4.1,3.9-4.1
		c1,0,1.8,0.2,2,0.4l-0.3,1.6c-0.4-0.2-0.8-0.3-1.5-0.3c-0.9,0-1.9,0.5-2,2.1c0,1.7,0.8,2.5,1.9,2.5c0.7,0,1.4-0.2,1.7-0.3l0.3,1.3
		c-0.4,0.4-1,0.6-1.8,0.7c0.2,0.4,0.3,0.9,0.2,1.4c0,1.2-0.8,1.7-1.7,1.7c-0.4,0-1.1-0.1-1.2-0.2l0.1-1.1
		C224.2,184.7,224.4,184.7,224.6,184.7z"/>
	<path class="st9" d="M231,178.4c0.9-0.4,2.1-0.5,3.1-0.5v-0.5c0-0.8-0.2-1-1.5-1c-0.4,0-1.5,0.3-2.1,0.6l-0.5-1.4
		c0.5-0.3,1.9-0.8,3.1-0.8c2.2,0,3.2,0.6,3.2,2.9v5.2H235c-0.5,0-0.8,0-0.8-0.7v-0.1c-0.4,0.4-1.1,0.8-2,0.8c-1.5,0-2.5-1.1-2.5-2.5
		C229.7,179.4,230.2,178.8,231,178.4z M230.2,172.7c0.3-0.9,1-1.5,2.1-1.5c1.2,0,1.3,0.9,2,0.9c0.5,0,0.8-0.4,1.1-0.8l0.9,0.7
		c-0.3,0.9-1,1.6-2,1.6c-1.1,0-1.3-0.9-2-0.9c-0.4,0-0.8,0.4-1.1,0.7L230.2,172.7z M232.9,181.4c0.5,0,1.1-0.2,1.2-0.4v-1.9
		c-0.5,0-1.3,0.1-1.6,0.3c-0.3,0.1-0.7,0.3-0.7,0.9C231.9,181.1,232.3,181.4,232.9,181.4z"/>
	<path class="st9" d="M241.8,174.8c2.7,0,3.8,1.9,3.7,4.2c0,2.5-1.7,3.8-3.9,3.8c-2.7,0-3.8-1.9-3.7-4.2
		C238,176.2,239.6,174.8,241.8,174.8z M243.4,178.9c0-1.3-0.4-2.5-1.6-2.5c-1.1,0-1.6,0.9-1.6,2.4c0,1.4,0.5,2.6,1.6,2.6
		C242.9,181.4,243.4,180.5,243.4,178.9z"/>
</g>
<g class="st8">
	<path class="st9" d="M165.2,191.6c0.5,0,1,0.1,1.3,0.2l0-0.7v-3h2.1v11.5h-1.4c-0.3,0-0.5,0-0.5-0.4v-0.5c-0.4,0.4-1,0.9-2.3,0.9
		c-1.7,0-3.1-1.2-3.1-3.8C161.2,193.3,162.8,191.6,165.2,191.6z M166.4,197.6v-4.2c-0.3-0.2-0.7-0.2-1.2-0.2c-1,0-1.8,0.8-1.8,2.6
		c0,1.7,0.6,2.3,1.5,2.3C165.5,198,166.1,197.8,166.4,197.6z"/>
	<path class="st9" d="M171.8,195.2c0.9-0.4,2.1-0.5,3.1-0.5v-0.5c0-0.8-0.2-1-1.5-1c-0.4,0-1.5,0.3-2.1,0.6l-0.5-1.4
		c0.5-0.3,1.9-0.8,3.1-0.8c2.2,0,3.2,0.6,3.2,2.9v5.2h-1.2c-0.5,0-0.8,0-0.8-0.7v-0.1c-0.4,0.4-1.1,0.8-2,0.8
		c-1.5,0-2.5-1.1-2.5-2.5C170.4,196.2,170.9,195.6,171.8,195.2z M173.7,198.2c0.5,0,1.1-0.2,1.2-0.4v-1.9c-0.5,0-1.3,0.1-1.6,0.3
		c-0.3,0.1-0.7,0.3-0.7,0.9C172.6,197.9,173.1,198.2,173.7,198.2z"/>
	<path class="st9" d="M183.6,197.5c0.2,0.2,1.2,0.6,2.2,0.6c0.8,0,1.2-0.2,1.2-0.6c0-0.5-0.6-0.8-1.7-1.1c-1.4-0.5-2-1.3-2-2.4
		c0-1.5,1.3-2.2,3.1-2.2c1.1,0,1.9,0.3,2.2,0.4l-0.2,1.6c-0.3-0.3-1.1-0.5-1.8-0.5c-0.9,0-1.3,0.2-1.3,0.6c0,0.5,0.4,0.7,1.5,1.1
		c1.6,0.5,2.2,1.2,2.2,2.3c0,1.6-1.2,2.4-3.1,2.4c-1.1,0-2.3-0.3-2.7-0.6L183.6,197.5z"/>
	<path class="st9" d="M194.3,191.6c2.7,0,3.8,1.9,3.7,4.2c0,2.5-1.7,3.8-3.9,3.8c-2.7,0-3.8-1.9-3.7-4.2
		C190.5,193,192.1,191.6,194.3,191.6z M195.8,195.7c0-1.3-0.4-2.5-1.6-2.5c-1.1,0-1.6,0.9-1.6,2.4c0,1.4,0.5,2.6,1.6,2.6
		C195.4,198.2,195.8,197.3,195.8,195.7z"/>
	<path class="st9" d="M199.9,188.2h2.1v11.4h-2.1V188.2z"/>
	<path class="st9" d="M204.4,191.8h2.1v4.5c0,1.5,0.4,1.7,1.2,1.7c0.5,0,1.1-0.3,1.3-0.4v-5.8h2.1v7.9h-1.4c-0.3,0-0.5-0.1-0.5-0.4
		v-0.3c-0.6,0.4-1.5,0.7-2.3,0.7c-2.2,0-2.6-1.3-2.6-3.3V191.8z"/>
	<path class="st9" d="M215.2,201.5c0.4,0,0.8-0.3,0.8-1c0-0.4,0-0.7-0.1-0.9c-1.9-0.3-2.9-1.9-2.9-3.9c0-2.3,1.2-4.1,3.9-4.1
		c1,0,1.8,0.2,2,0.4l-0.3,1.6c-0.4-0.2-0.8-0.3-1.5-0.3c-0.9,0-1.9,0.5-2,2.1c0,1.7,0.8,2.5,1.9,2.5c0.7,0,1.4-0.2,1.7-0.3l0.3,1.3
		c-0.4,0.4-1,0.6-1.8,0.7c0.2,0.4,0.3,0.9,0.2,1.4c0,1.2-0.8,1.7-1.7,1.7c-0.4,0-1.1-0.1-1.2-0.2l0.1-1.1
		C214.8,201.5,215,201.5,215.2,201.5z"/>
	<path class="st9" d="M221.6,195.2c0.9-0.4,2.1-0.5,3.1-0.5v-0.5c0-0.8-0.2-1-1.5-1c-0.4,0-1.5,0.3-2.1,0.6l-0.5-1.4
		c0.5-0.3,1.9-0.8,3.1-0.8c2.2,0,3.2,0.6,3.2,2.9v5.2h-1.2c-0.5,0-0.8,0-0.8-0.7v-0.1c-0.4,0.4-1.1,0.8-2,0.8
		c-1.5,0-2.5-1.1-2.5-2.5C220.2,196.2,220.7,195.6,221.6,195.2z M220.8,189.5c0.3-0.9,1-1.5,2.1-1.5c1.2,0,1.3,0.9,2,0.9
		c0.5,0,0.8-0.4,1.1-0.8l0.9,0.7c-0.3,0.9-1,1.6-2,1.6c-1.1,0-1.3-0.9-2-0.9c-0.4,0-0.8,0.4-1.1,0.7L220.8,189.5z M223.5,198.2
		c0.5,0,1.1-0.2,1.2-0.4v-1.9c-0.5,0-1.3,0.1-1.6,0.3c-0.3,0.1-0.7,0.3-0.7,0.9C222.4,197.9,222.9,198.2,223.5,198.2z"/>
	<path class="st9" d="M232.4,191.6c2.7,0,3.8,1.9,3.7,4.2c0,2.5-1.7,3.8-3.9,3.8c-2.7,0-3.8-1.9-3.7-4.2
		C228.6,193,230.2,191.6,232.4,191.6z M233.9,195.7c0-1.3-0.4-2.5-1.6-2.5c-1.1,0-1.6,0.9-1.6,2.4c0,1.4,0.5,2.6,1.6,2.6
		C233.4,198.2,233.9,197.3,233.9,195.7z"/>
</g>
<g class="st8">
	<path class="st9" d="M161.6,250.8h1c0.6,0,1.4-0.1,2.5-0.1c3.5,0,5.1,1.9,5.1,5c0,3.5-2.1,5.6-5.3,5.6c-1,0-1.7-0.1-2.3-0.1h-1.1
		V250.8z M165.2,259.7c1.7,0,2.8-1.1,2.8-3.7c0-2.7-1-3.6-3-3.6c-0.4,0-0.9,0.1-1.2,0.1v7.1C164.2,259.7,164.7,259.7,165.2,259.7z"
		/>
	<path class="st9" d="M175.3,253.3c1.6,0,3.1,0.8,3.1,3.1c0,0.6,0,1.1-0.1,1.5h-4.6c0.1,1.3,0.9,1.9,2.1,1.9c0.6,0,1.6-0.2,2-0.4
		l0.3,1.2c-0.5,0.4-1.7,0.8-2.9,0.8c-2.4,0-3.7-1.5-3.7-4C171.6,255.1,172.9,253.4,175.3,253.3z M176.4,256.7
		c0.1-1.1-0.2-1.8-1.2-1.8c-0.8,0-1.3,0.4-1.5,1.8H176.4z"/>
	<path class="st9" d="M183.6,253.3c1,0,1.8,0.2,2,0.4l-0.3,1.6c-0.4-0.2-0.8-0.3-1.5-0.3c-0.9,0-1.9,0.5-2,2.1
		c0,1.7,0.8,2.5,1.9,2.5c0.7,0,1.4-0.2,1.7-0.3l0.3,1.3c-0.5,0.5-1.4,0.8-2.4,0.8c-2.4,0-3.6-1.7-3.6-3.9
		C179.7,255.2,181,253.3,183.6,253.3z"/>
	<path class="st9" d="M187.2,251.1c0-0.7,0.6-1.3,1.4-1.3c0.8,0,1.2,0.5,1.2,1.2c0,0.7-0.6,1.3-1.4,1.3
		C187.8,252.3,187.2,251.8,187.2,251.1z M187.4,253.5h2.1v7.8h-2.1V253.5z"/>
	<path class="st9" d="M191.7,259.2c0.2,0.2,1.2,0.6,2.2,0.6c0.8,0,1.2-0.2,1.2-0.6c0-0.5-0.6-0.8-1.7-1.1c-1.4-0.5-2-1.3-2-2.4
		c0-1.5,1.3-2.2,3.1-2.2c1.1,0,1.9,0.3,2.2,0.4l-0.2,1.6c-0.3-0.3-1.1-0.5-1.8-0.5c-0.9,0-1.3,0.2-1.3,0.6c0,0.5,0.4,0.7,1.5,1.1
		c1.6,0.5,2.2,1.2,2.2,2.3c0,1.6-1.2,2.4-3.1,2.4c-1.1,0-2.3-0.3-2.7-0.6L191.7,259.2z"/>
	<path class="st9" d="M200,256.9c0.9-0.4,2.1-0.5,3.1-0.5v-0.5c0-0.8-0.2-1-1.5-1c-0.4,0-1.5,0.3-2.1,0.6l-0.5-1.4
		c0.5-0.3,1.9-0.8,3.1-0.8c2.2,0,3.2,0.6,3.2,2.9v5.2H204c-0.5,0-0.8,0-0.8-0.7v-0.1c-0.4,0.4-1.1,0.8-2,0.8c-1.5,0-2.5-1.1-2.5-2.5
		C198.6,257.9,199.1,257.3,200,256.9z M199.1,251.2c0.3-0.9,1-1.5,2.1-1.5c1.2,0,1.3,0.9,2,0.9c0.5,0,0.8-0.4,1.1-0.8l0.9,0.7
		c-0.3,0.9-1,1.6-2,1.6c-1.1,0-1.3-0.9-2-0.9c-0.4,0-0.8,0.4-1.1,0.7L199.1,251.2z M201.9,259.9c0.5,0,1.1-0.2,1.2-0.4v-1.9
		c-0.5,0-1.3,0.1-1.6,0.3c-0.3,0.1-0.7,0.3-0.7,0.9C200.8,259.6,201.3,259.9,201.9,259.9z"/>
	<path class="st9" d="M210.8,253.3c2.7,0,3.8,1.9,3.7,4.2c0,2.5-1.7,3.8-3.9,3.8c-2.7,0-3.8-1.9-3.7-4.2
		C207,254.7,208.6,253.3,210.8,253.3z M212.3,257.4c0-1.3-0.4-2.5-1.6-2.5c-1.1,0-1.6,0.9-1.6,2.4c0,1.4,0.5,2.6,1.6,2.6
		C211.8,259.9,212.3,259,212.3,257.4z"/>
	<path class="st9" d="M224.4,253.3c0.5,0,1,0.1,1.3,0.2l0-0.7v-3h2.1v11.5h-1.4c-0.3,0-0.5,0-0.5-0.4v-0.5c-0.4,0.4-1,0.9-2.3,0.9
		c-1.7,0-3.1-1.2-3.1-3.8C220.4,255,222,253.3,224.4,253.3z M225.6,259.3v-4.2c-0.3-0.2-0.7-0.2-1.2-0.2c-1,0-1.8,0.8-1.8,2.6
		c0,1.7,0.6,2.3,1.5,2.3C224.7,259.7,225.3,259.5,225.6,259.3z"/>
	<path class="st9" d="M233.3,253.3c1.6,0,3.1,0.8,3.1,3.1c0,0.6,0,1.1-0.1,1.5h-4.6c0.1,1.3,0.9,1.9,2.1,1.9c0.6,0,1.6-0.2,2-0.4
		l0.3,1.2c-0.5,0.4-1.7,0.8-2.9,0.8c-2.4,0-3.7-1.5-3.7-4C229.5,255.1,230.9,253.4,233.3,253.3z M234.4,256.7
		c0.1-1.1-0.2-1.8-1.2-1.8c-0.8,0-1.3,0.4-1.5,1.8H234.4z"/>
</g>
<g class="st8">
	<path class="st9" d="M176.3,270.1c1,0,1.8,0.2,2,0.4l-0.3,1.6c-0.4-0.2-0.8-0.3-1.5-0.3c-0.9,0-1.9,0.5-2,2.1
		c0,1.7,0.8,2.5,1.9,2.5c0.7,0,1.4-0.2,1.7-0.3l0.3,1.3c-0.5,0.5-1.4,0.8-2.4,0.8c-2.4,0-3.6-1.7-3.6-3.9
		C172.4,272,173.6,270.1,176.3,270.1z"/>
	<path class="st9" d="M183.4,270.1c2.7,0,3.8,1.9,3.7,4.2c0,2.5-1.7,3.8-3.9,3.8c-2.7,0-3.8-1.9-3.7-4.2
		C179.6,271.5,181.2,270.1,183.4,270.1z M184.9,274.2c0-1.3-0.4-2.5-1.6-2.5c-1.1,0-1.6,0.9-1.6,2.4c0,1.4,0.5,2.6,1.6,2.6
		C184.4,276.7,184.9,275.8,184.9,274.2z"/>
	<path class="st9" d="M189,270.3h1.9l0,0.8c0.5-0.4,1.6-0.9,2.5-1s1.6,0.3,2,0.9c0.5-0.4,1.5-0.9,2.6-0.9c1.6,0,2.5,0.7,2.5,3v4.9
		h-2.1v-4.4c0-1.3-0.2-1.7-1.1-1.7c-0.5,0-1.1,0.3-1.5,0.6c0,0.2,0,0.5,0,0.7v4.8h-2.1v-4.4c0-1.3-0.2-1.7-1.1-1.7
		c-0.4,0-1.1,0.2-1.5,0.6v5.5H189V270.3z"/>
	<path class="st9" d="M205.1,279v2.5h-2.1v-11.3h2v0.8c0.4-0.4,1-0.9,2.3-0.9c1.7,0,3.1,1.2,3.1,3.7c0,2.6-1.6,4.3-4,4.3
		c-0.5,0-1-0.1-1.3-0.2L205.1,279z M206.3,276.7c1,0,1.8-0.9,1.8-2.6c0-1.8-0.6-2.3-1.5-2.3c-0.6,0-1.1,0.2-1.5,0.5v4.1
		C205.3,276.6,205.8,276.7,206.3,276.7z"/>
	<path class="st9" d="M212,270.3h1.9l0.1,1.1c0.3-0.6,1.2-1.2,2.2-1.2c0.3,0,0.5,0,0.6,0.1v2.1c-0.2-0.1-0.4-0.2-0.9-0.2
		c-0.9,0-1.4,0.4-1.7,0.7v5.3H212V270.3z"/>
	<path class="st9" d="M219.3,273.7c0.9-0.4,2.1-0.5,3.1-0.5v-0.5c0-0.8-0.2-1-1.5-1c-0.4,0-1.5,0.3-2.1,0.6l-0.5-1.4
		c0.5-0.3,1.9-0.8,3.1-0.8c2.2,0,3.2,0.6,3.2,2.9v5.2h-1.2c-0.5,0-0.8,0-0.8-0.7v-0.1c-0.4,0.4-1.1,0.8-2,0.8
		c-1.5,0-2.5-1.1-2.5-2.5C218,274.7,218.5,274.1,219.3,273.7z M221.2,276.7c0.5,0,1.1-0.2,1.2-0.4v-1.9c-0.5,0-1.3,0.1-1.6,0.3
		c-0.3,0.1-0.7,0.3-0.7,0.9C220.2,276.4,220.6,276.7,221.2,276.7z"/>
</g>
<g class="st8">
	<path class="st9" d="M38.6,30.6c-1,0.2-2,0.4-2.9,0.6l-0.3-2.3c1.7-0.4,4.4-1.8,5.4-2.6l1.9,0.3l0,15.5h-4V30.6z"/>
</g>
<g class="st8">
	<path class="st9" d="M58.3,118.6c3.1-1.8,8.3-5.2,8.3-8.4c0-1.5-0.8-2.6-2.6-2.6c-1.6,0-3.2,0.8-4.1,1.7l-1.4-2.3
		c1-1.1,3.2-2.5,6.2-2.5c4.5,0,6.1,2.4,6.1,4.9c0,3.1-2.3,5.8-6,8.1l6.9-0.3v3.3H58.9L58.3,118.6z"/>
</g>
<g class="st8">
	<path class="st9" d="M86.6,198.4c3.1,0,5.5-1.2,5.5-3.4c0-1.7-0.9-3.1-3.5-3l-1.7,0.4l-0.5-2.5c1.1-0.2,2.3-0.6,3-1
		c1.2-0.7,1.9-1.6,1.9-2.7c0-1.4-1.1-2-2.6-2c-1.9,0-3,0.7-3.8,1.3l-1.2-2.4c0.7-0.8,3.1-1.9,5.5-1.9c4,0,6,1.8,6,4.5
		c0,2.3-1.5,3.9-3.3,4.8c3.1,0.3,4.3,2.6,4.3,4.5c0,3.5-3.4,6.3-8.4,6.3c-1.9,0-3-0.4-3.5-0.6l0-2.5
		C85.1,198.3,85.8,198.4,86.6,198.4z"/>
</g>
<g class="st8">
	<path class="st9" d="M109.4,258h0.9l3,1.5l-5.7,10.5l-0.9,1.6h4.8l0.5-5.1h3.2v5.1h2.9v2.9h-2.9v4.7h-3.7v-4.7h-8.1l-0.9-1.6
		L109.4,258z"/>
</g>
</svg>
