<svg id="Layer_1" data-name="Layer 1" xmlns="http://www.w3.org/2000/svg" viewBox="0 0 103.25 81.75"><defs><style>.cls-1{fill:#73d978;}.cls-2{fill:#b49deb;}.cls-3{fill:#a9d972;}.cls-4{fill:#52d4b7;}.cls-5{fill:#57c6eb;}.cls-6{fill:#ebcd55;}.cls-7{fill:#d86b78;}.cls-8{fill:#f1f1f1;}</style></defs><title>Untitled-6</title><circle class="cls-1" cx="51.73273" cy="19.33331" r="6.5"/><path class="cls-2" d="M61.08569,63.344a9.39873,9.39873,0,0,1-18.706,0H20.14612L26,81.75H77.25l5.85388-18.406H61.08569Z"/><path class="cls-3" d="M0,0L5.81445,18.282H42.39539a9.39584,9.39584,0,0,1,18.67462,0H97.43555L103.25,0H0Z"/><path class="cls-4" d="M60.95825,21.1153a9.39516,9.39516,0,0,1-18.45111,0H6.71558l5.81415,18.281H42.47351a9.388,9.388,0,0,1,18.51837,0H90.72028l5.81415-18.281H60.95825Z"/><path class="cls-5" d="M61.03638,42.22961a9.3886,9.3886,0,0,1-18.60736,0H13.43085l5.81415,18.281H42.52759a9.40047,9.40047,0,0,1,18.41022,0H84.005l5.81415-18.281H61.03638Z"/><circle class="cls-6" cx="51.73273" cy="40.95831" r="6.5"/><circle class="cls-7" cx="51.73273" cy="62.41669" r="6.5"/><path class="cls-8" d="M48.20148,18.48535A1.52362,1.52362,0,0,1,49.75226,16.876,1.38813,1.38813,0,0,1,51.179,18.46484a1.52209,1.52209,0,0,1-1.54883,1.60547A1.39176,1.39176,0,0,1,48.20148,18.48535Zm2.01563,0.00684c0-.502-0.19043-0.83008-0.52246-0.83008-0.34473,0-.53516.29785-0.53516,0.78906,0,0.498.19043,0.83008,0.52246,0.83008C50.02667,19.28125,50.2171,18.9834,50.2171,18.49219Zm1.99512-1.60937h0.958l-1.88672,5.18262H50.32843Zm1.63574,2.002a1.38713,1.38713,0,0,1,1.42969,1.585,1.5238,1.5238,0,0,1-1.55176,1.60938,1.39231,1.39231,0,0,1-1.42578-1.585A1.52126,1.52126,0,0,1,53.848,18.88476Zm-0.06738,2.40137c0.3457,0,.53125-0.29785.53125-0.78906,0-.498-0.18555-0.83008-0.51758-0.83008-0.3457,0-.53516.29883-0.53516,0.79C53.25909,20.958,53.44855,21.28613,53.78058,21.28613Z"/><path class="cls-8" d="M48.20148,39.86035A1.52362,1.52362,0,0,1,49.75226,38.251,1.38813,1.38813,0,0,1,51.179,39.83984a1.52209,1.52209,0,0,1-1.54883,1.60547A1.39176,1.39176,0,0,1,48.20148,39.86035Zm2.01563,0.00684c0-.502-0.19043-0.83008-0.52246-0.83008-0.34473,0-.53516.29785-0.53516,0.78906,0,0.498.19043,0.83008,0.52246,0.83008C50.02667,40.65625,50.2171,40.3584,50.2171,39.86719Zm1.99512-1.60937h0.958l-1.88672,5.18262H50.32843Zm1.63574,2.002a1.38713,1.38713,0,0,1,1.42969,1.585,1.5238,1.5238,0,0,1-1.55176,1.60938,1.39231,1.39231,0,0,1-1.42578-1.585A1.52126,1.52126,0,0,1,53.848,40.25976Zm-0.06738,2.40137c0.3457,0,.53125-0.29785.53125-0.78906,0-.498-0.18555-0.83008-0.51758-0.83008-0.3457,0-.53516.29883-0.53516,0.79C53.25909,42.333,53.44855,42.66113,53.78058,42.66113Z"/><path class="cls-8" d="M48.20148,61.36035A1.52362,1.52362,0,0,1,49.75226,59.751,1.38813,1.38813,0,0,1,51.179,61.33984a1.52209,1.52209,0,0,1-1.54883,1.60547A1.39176,1.39176,0,0,1,48.20148,61.36035Zm2.01563,0.00684c0-.502-0.19043-0.83008-0.52246-0.83008-0.34473,0-.53516.29785-0.53516,0.78906,0,0.498.19043,0.83008,0.52246,0.83008C50.02667,62.15625,50.2171,61.8584,50.2171,61.36719Zm1.99512-1.60937h0.958l-1.88672,5.18262H50.32843Zm1.63574,2.002a1.38713,1.38713,0,0,1,1.42969,1.585,1.5238,1.5238,0,0,1-1.55176,1.60937,1.39231,1.39231,0,0,1-1.42578-1.585A1.52126,1.52126,0,0,1,53.848,61.75976Zm-0.06738,2.40137c0.3457,0,.53125-0.29785.53125-0.78906,0-.498-0.18555-0.83008-0.51758-0.83008-0.3457,0-.53516.29883-0.53516,0.79C53.25909,63.833,53.44855,64.16113,53.78058,64.16113Z"/></svg>