<svg id="share" xmlns="http://www.w3.org/2000/svg" viewBox="0 0 87.90573 23.26978"><defs><style>.cls-1{fill:#f0f0f0;}</style></defs><title>Untitled-4</title><path class="cls-1" d="M79.7775,23.02507H63.782a2.803,2.803,0,0,1-2.727-2.86765V5.0115a2.803,2.803,0,0,1,2.727-2.86711H78.965L72.12291,5.0448H63.78256l0.06068,15.11209,15.93425-.03356-0.061-2.04172,2.78951-2.15933v4.23489A2.80331,2.80331,0,0,1,79.7775,23.02507Z"/><path class="cls-1" d="M79.67466,15.77083l-0.01987-4.57777a19.99908,19.99908,0,0,0-11.38038,3.78648s0.77115-8.4687,11.40025-10.5566V0.24471l8.23107,7.769-4.00236,3.7658Z"/><circle class="cls-1" cx="51.57502" cy="11.63489" r="1.27996"/><circle class="cls-1" cx="42.50146" cy="11.63489" r="1.27996"/><circle class="cls-1" cx="33.42791" cy="11.63489" r="1.27996"/><polygon class="cls-1" points="5.169 16.61 7.241 23.27 21.219 23.27 23.291 16.61 5.169 16.61"/><polygon class="cls-1" points="2.073 6.66 26.387 6.66 28.46 0 0 0 2.073 6.66"/><polygon class="cls-1" points="2.584 8.305 4.657 14.965 23.803 14.965 25.875 8.305 2.584 8.305"/></svg>