<svg id="email" xmlns="http://www.w3.org/2000/svg" viewBox="0 0 87.90573 23.26978"><defs><style>.cls-1{fill:#f0f0f0;}</style></defs><title>Untitled-4</title><polygon class="cls-1" points="87.861 1.665 59.413 1.665 73.637 13.109 87.861 1.665"/><polygon class="cls-1" points="73.638 15.435 73.637 15.435 73.637 15.435 59.369 3.835 59.369 21.605 87.906 21.605 87.906 3.835 73.638 15.435"/><circle class="cls-1" cx="51.57502" cy="11.63489" r="1.27996"/><circle class="cls-1" cx="42.50146" cy="11.63489" r="1.27996"/><circle class="cls-1" cx="33.42791" cy="11.63489" r="1.27996"/><polygon class="cls-1" points="5.169 16.61 7.241 23.27 21.219 23.27 23.291 16.61 5.169 16.61"/><polygon class="cls-1" points="2.073 6.66 26.387 6.66 28.46 0 0 0 2.073 6.66"/><polygon class="cls-1" points="2.584 8.305 4.657 14.965 23.803 14.965 25.875 8.305 2.584 8.305"/></svg>