<svg id="Layer_4" data-name="Layer 4" xmlns="http://www.w3.org/2000/svg" viewBox="0 0 48.88922 45.83333"><title>graph</title><path d="M49.44394,16.06762a1.74624,1.74624,0,0,1-1.72629,1.76906c-0.0165.00092-.03285,0.00092-0.049,0.00092a1.75207,1.75207,0,0,1-1.77395-1.67709L45.71349,9.70114C33.33419,25.63185,6.583,27.23882,5.341,27.30421c-0.03285.00107-.06523,0.002-0.09792,0.002a1.72237,1.72237,0,1,1-.09548-3.4434c0.29118-.01619,27.18227-1.645,38.31864-17.03813L34.96,9.48788a1.81869,1.81869,0,0,1-.54538.08341,1.77142,1.77142,0,0,1-1.689-1.19465,1.71327,1.71327,0,0,1,1.1447-2.16916l12.9091-4.04073c0.02215-.00672.04476-0.00856,0.06691-0.01421,0.04354-.01237.08738-0.02276,0.1323-0.03132,0.03865-.00764.077-0.01619,0.11641-0.02093,0.03911-.00474.07776-0.00565,0.11672-0.00856,0.02185-.00092.04216-0.00749,0.06416-0.00749,0.01635-.00092.03285-0.00092,0.049-0.00092,0.00962,0,.01864.00275,0.02826,0.00275,0.02841,0,.05622.002,0.08448,0.00382,0.0498,0.0029.09823,0.0113,0.14727,0.018,0.04033,0.00565.08127,0.00947,0.12069,0.018,0.02368,0.00474.04721,0.0113,0.07058,0.01711,0.04553,0.0113.08861,0.02735,0.13276,0.04262,0.04553,0.016.0912,0.03025,0.135,0.04919,0.01161,0.00489.02337,0.00672,0.035,0.01237,0.00825,0.00382.015,0.00947,0.02322,0.01329,0.0388,0.018.07455,0.04079,0.11183,0.06157,0.04415,0.02567.088,0.05026,0.12985,0.07883,0.01925,0.01314.03987,0.0246,0.05851,0.0388C48.43307,2.46251,48.46,2.49,48.489,2.5146c0.03834,0.03223.07593,0.06447,0.11122,0.10052,0.01787,0.018.03789,0.03422,0.05484,0.05316,0.02368,0.02551.04308,0.05591,0.06508,0.08341,0.03223,0.03972.06294,0.07959,0.0912,0.12221C48.826,2.89667,48.843,2.9176,48.8567,2.94037c0.0168,0.0275.029,0.05775,0.04415,0.08723,0.02414,0.04553.04659,0.092,0.06645,0.13932,0.01161,0.02841.02414,0.055,0.03437,0.08341,0.00336,0.00947.00886,0.018,0.01207,0.0275,0.00749,0.02185.0084,0.04461,0.01467,0.06737,0.01314,0.04446.02475,0.08906,0.03391,0.13551,0.00672,0.03422.01375,0.06645,0.01833,0.10052,0.00535,0.037.00687,0.07486,0.00947,0.11183,0.00153,0.02276.00794,0.04369,0.00856,0.06645ZM46.71229,46.193a1.74911,1.74911,0,0,0-1.77517-1.72262H2.33087a1.72392,1.72392,0,1,0,0,3.44631H44.93712A1.75,1.75,0,0,0,46.71229,46.193Zm-7.34511-27.5978a47.82226,47.82226,0,0,1-4.85972,2.957v19.471a2.19353,2.19353,0,0,0,2.219,2.154H40.9387a2.19347,2.19347,0,0,0,2.21912-2.154V15.60672A40.11972,40.11972,0,0,1,39.36717,18.59518ZM24.58635,25.7229c-0.07088.02276-.1407,0.04461-0.21128,0.06722v15.233a2.1934,2.1934,0,0,0,2.21881,2.154h4.21229a2.1936,2.1936,0,0,0,2.21927-2.154V22.30791A63.44236,63.44236,0,0,1,24.58635,25.7229ZM14.24254,28.33005V41.02314a2.19353,2.19353,0,0,0,2.219,2.154h4.21229a2.19347,2.19347,0,0,0,2.21912-2.154V26.25194A82.44492,82.44492,0,0,1,14.24254,28.33005Zm-8.785,1.12545c-0.072.00382-.14314,0.00565-0.21449,0.00565A4.10262,4.10262,0,0,1,4.11,29.302V41.02314a2.19353,2.19353,0,0,0,2.219,2.154h4.21229a2.1936,2.1936,0,0,0,2.21927-2.154V28.59083A69.89829,69.89829,0,0,1,5.45758,29.4555Z" transform="translate(-0.55539 -2.08333)"/></svg>