<?xml version="1.0" encoding="utf-8"?>
<!-- Generator: Adobe Illustrator 19.2.1, SVG Export Plug-In . SVG Version: 6.00 Build 0)  -->
<svg version="1.1" id="Layer_1" xmlns="http://www.w3.org/2000/svg" xmlns:xlink="http://www.w3.org/1999/xlink" x="0px" y="0px"
	 viewBox="0 0 764 210" style="enable-background:new 0 0 764 210;" xml:space="preserve">
<style type="text/css">
	.st0{fill:#3DC3A5;}
	.st1{fill:#A386DF;}
	.st2{fill:#44B6DE;}
	.st3{fill:#52D5B7;}
	.st4{fill:#B49EEC;}
	.st5{fill:#96C955;}
	.st6{fill:#A9D973;}
	.st7{enable-background:new    ;}
	.st8{fill:#FFFFFF;}
	.st9{fill:#59C7EB;}
</style>
<title>jornada-hori</title>
<path class="st0" d="M360.2,105c0-10.5,7.5-19.5,17.8-21.5V4c0-2.2-1.8-4-4-4H197c-2.2,0-4,1.8-4,4v79.5c11.9,2,19.9,13.2,18,25.1
	c-1.5,9.2-8.8,16.5-18,18V206c0,2.2,1.8,4,4,4h177c2.2,0,4-1.8,4-4v-79.5C367.7,124.5,360.2,115.5,360.2,105z"/>
<path class="st1" d="M760,0H583c-2.2,0-4,1.8-4,4v79.6c11.8,2.4,19.4,14,16.9,25.8c-1.8,8.5-8.4,15.2-16.9,16.9V206c0,2.2,1.8,4,4,4
	h177c2.2,0,4-1.8,4-4V4C764,1.8,762.2,0,760,0z"/>
<path class="st2" d="M552.8,105c0-10.7,7.7-19.8,18.2-21.5V4c0-2.2-1.8-4-4-4H390c-2.2,0-4,1.8-4,4v79.5
	c11.8,2.2,19.7,13.6,17.5,25.4c-1.7,8.9-8.6,15.8-17.5,17.5V206c0,2.2,1.8,4,4,4h177c2.2,0,4-1.8,4-4v-79.5
	C560.5,124.8,552.8,115.7,552.8,105z"/>
<path class="st3" d="M360.2,105H211.3c0,10.7-7.7,19.8-18.3,21.5V206c0,2.2,1.8,4,4,4h177c2.2,0,4-1.8,4-4v-79.5
	C367.7,124.5,360.2,115.5,360.2,105z"/>
<path class="st4" d="M596.4,105c0,10.3-7.3,19.3-17.4,21.4V206c0,2.2,1.8,4,4,4h177c2.2,0,4-1.8,4-4V105H596.4z"/>
<path class="st5" d="M167.6,105c0-10.3,7.3-19.3,17.4-21.4V4c0-2.2-1.8-4-4-4H4C1.8,0,0,1.8,0,4v202c0,2.2,1.8,4,4,4h177
	c2.2,0,4-1.8,4-4v-79.6C174.9,124.3,167.6,115.3,167.6,105z"/>
<path class="st6" d="M167.6,105H0v101c0,2.2,1.8,4,4,4h177c2.2,0,4-1.8,4-4v-79.6C174.9,124.3,167.6,115.3,167.6,105z"/>
<g class="st7">
	<path class="st8" d="M42.3,140.8h2.7l4.7,12.8h-2.9l-0.8-2.7h-4.6l-0.8,2.7h-2.8L42.3,140.8z M45.3,149l-1.4-4.3l-0.4-1.3l-0.4,1.3
		l-1.4,4.3H45.3z"/>
	<path class="st8" d="M53.5,154.7v3h-2.6v-13.7h2.4v1c0.4-0.4,1.2-1.1,2.8-1.1c2,0,3.8,1.4,3.8,4.5c0,3.1-1.9,5.2-4.8,5.2
		c-0.7,0-1.2-0.1-1.6-0.3L53.5,154.7z M55,151.9c1.2,0,2.2-1.1,2.2-3.2c0-2.2-0.7-2.8-1.9-2.8c-0.7,0-1.4,0.3-1.8,0.6v5
		C53.8,151.8,54.4,151.9,55,151.9z"/>
	<path class="st8" d="M61.9,144.1h2.3l0.1,1.3c0.4-0.7,1.5-1.5,2.7-1.5c0.3,0,0.6,0,0.7,0.1v2.5c-0.2-0.1-0.4-0.2-1.1-0.2
		c-1.1,0-1.7,0.5-2.1,0.9v6.4h-2.6V144.1z"/>
	<path class="st8" d="M73.6,144c2,0,3.7,1,3.8,3.7c0,0.7,0,1.4-0.1,1.8h-5.6c0.1,1.6,1.1,2.3,2.5,2.3c0.7,0,1.9-0.2,2.4-0.5l0.4,1.5
		c-0.6,0.5-2,0.9-3.5,0.9c-2.9,0-4.5-1.8-4.5-4.9C69.1,146.1,70.7,144,73.6,144z M75,148c0.1-1.4-0.3-2.2-1.4-2.2
		c-1,0-1.6,0.5-1.8,2.2H75z"/>
	<path class="st8" d="M79.6,144.1H82l0.1,1c0.6-0.5,1.9-1.1,3.1-1.2c2-0.1,3,0.9,3,3.7v5.9h-2.6v-5.4c0-1.6-0.3-2.1-1.4-2.1
		c-0.5,0-1.3,0.2-1.9,0.7v6.7h-2.6V144.1z"/>
	<path class="st8" d="M95,144c0.6,0,1.2,0.1,1.6,0.3l0-0.8v-3.6h2.6v13.9h-1.8c-0.4,0-0.6-0.1-0.6-0.5v-0.6
		c-0.4,0.4-1.2,1.1-2.8,1.1c-2,0-3.8-1.5-3.8-4.6C90.2,146,92.1,144,95,144z M96.6,151.2v-5.1c-0.3-0.2-0.9-0.3-1.5-0.3
		c-1.2,0-2.2,1-2.2,3.1c0,2.1,0.7,2.8,1.9,2.8C95.5,151.7,96.2,151.5,96.6,151.2z"/>
	<path class="st8" d="M101.8,141.3c0-0.8,0.8-1.6,1.7-1.6c0.9,0,1.5,0.6,1.5,1.4c0,0.9-0.8,1.6-1.6,1.6
		C102.4,142.7,101.8,142.1,101.8,141.3z M102,144.1h2.6v9.5H102V144.1z"/>
	<path class="st8" d="M110.8,146.6l0.5-0.7h-4.1l0-1.8h7.2l0.3,0.8l-4,6.2l-0.5,0.7h4.4v1.8H107l-0.3-0.7L110.8,146.6z"/>
	<path class="st8" d="M117.7,148.3c1-0.5,2.6-0.5,3.8-0.5v-0.6c0-1-0.3-1.2-1.9-1.2c-0.5,0-1.8,0.3-2.6,0.7l-0.6-1.7
		c0.6-0.4,2.3-1,3.8-1c2.6,0,3.8,0.7,3.8,3.5v6.3h-1.5c-0.6,0-1,0-1-0.9v-0.1c-0.5,0.5-1.3,0.9-2.5,0.9c-1.9,0-3.1-1.3-3.1-3.1
		C116.1,149.5,116.7,148.7,117.7,148.3z M120,152c0.6,0,1.3-0.3,1.5-0.5v-2.3c-0.6,0-1.6,0.2-2,0.3c-0.4,0.1-0.8,0.4-0.8,1.1
		C118.7,151.5,119.3,152,120,152z"/>
	<path class="st8" d="M131,144c0.6,0,1.2,0.1,1.6,0.3l0-0.8v-3.6h2.6v13.9h-1.8c-0.4,0-0.6-0.1-0.6-0.5v-0.6
		c-0.4,0.4-1.2,1.1-2.8,1.1c-2,0-3.8-1.5-3.8-4.6C126.2,146,128.1,144,131,144z M132.5,151.2v-5.1c-0.3-0.2-0.9-0.3-1.5-0.3
		c-1.2,0-2.2,1-2.2,3.1c0,2.1,0.7,2.8,1.9,2.8C131.4,151.7,132.1,151.5,132.5,151.2z"/>
	<path class="st8" d="M142,144c3.3,0,4.6,2.4,4.5,5.1c0,3-2,4.7-4.7,4.7c-3.3,0-4.6-2.4-4.5-5.1C137.3,145.6,139.3,144,142,144z
		 M143.8,148.9c0-1.6-0.5-3.1-1.9-3.1c-1.4,0-2,1.1-2,2.9c0,1.7,0.5,3.2,1.9,3.2C143.2,151.9,143.8,150.8,143.8,148.9z"/>
</g>
<g class="st7">
	<path class="st8" d="M42.3,162c2,0,3.7,1,3.8,3.7c0,0.7,0,1.4-0.1,1.8h-5.6c0.1,1.6,1.1,2.3,2.5,2.3c0.7,0,1.9-0.2,2.4-0.5l0.4,1.5
		c-0.6,0.5-2,0.9-3.5,0.9c-2.9,0-4.5-1.8-4.5-4.9C37.8,164.1,39.4,162,42.3,162z M43.6,166c0.1-1.4-0.3-2.2-1.4-2.2
		c-1,0-1.6,0.5-1.8,2.2H43.6z"/>
	<path class="st8" d="M58,162c0.6,0,1.2,0.1,1.6,0.3l0-0.8v-3.6h2.6v13.9h-1.8c-0.4,0-0.6-0.1-0.6-0.5v-0.6
		c-0.4,0.4-1.2,1.1-2.8,1.1c-2,0-3.8-1.5-3.8-4.6C53.2,164,55.1,162,58,162z M59.5,169.2v-5.1c-0.3-0.2-0.9-0.3-1.5-0.3
		c-1.2,0-2.2,1-2.2,3.1c0,2.1,0.7,2.8,1.9,2.8C58.5,169.7,59.1,169.5,59.5,169.2z"/>
	<path class="st8" d="M68.8,162c2,0,3.7,1,3.8,3.7c0,0.7,0,1.4-0.1,1.8h-5.6c0.1,1.6,1.1,2.3,2.5,2.3c0.7,0,1.9-0.2,2.4-0.5l0.4,1.5
		c-0.6,0.5-2,0.9-3.5,0.9c-2.9,0-4.5-1.8-4.5-4.9C64.3,164.1,65.9,162,68.8,162z M70.2,166c0.1-1.4-0.3-2.2-1.4-2.2
		c-1,0-1.6,0.5-1.8,2.2H70.2z"/>
	<path class="st8" d="M74.6,169.1c0.3,0.2,1.5,0.7,2.7,0.7c1,0,1.5-0.2,1.5-0.8c0-0.5-0.7-0.9-2-1.4c-1.7-0.6-2.4-1.5-2.4-2.9
		c0-1.8,1.6-2.7,3.8-2.7c1.3,0,2.3,0.3,2.7,0.5l-0.3,2c-0.4-0.3-1.3-0.6-2.1-0.6c-1.1,0-1.6,0.2-1.6,0.7c0,0.6,0.5,0.9,1.9,1.3
		c1.9,0.7,2.7,1.5,2.7,2.8c0,2-1.4,2.9-3.7,2.9c-1.4,0-2.8-0.4-3.3-0.7L74.6,169.1z"/>
	<path class="st8" d="M87.6,162c1.2,0,2.1,0.2,2.5,0.5l-0.3,2c-0.5-0.2-1-0.4-1.9-0.4c-1.1,0-2.4,0.6-2.4,2.5c-0.1,2,1,3,2.3,3
		c0.9,0,1.7-0.2,2.1-0.4l0.4,1.5c-0.6,0.6-1.7,0.9-2.9,0.9c-2.9,0-4.4-2-4.4-4.7C82.9,164.2,84.4,162,87.6,162z"/>
	<path class="st8" d="M96.3,162c3.3,0,4.6,2.4,4.5,5.1c0,3-2,4.7-4.7,4.7c-3.3,0-4.6-2.4-4.5-5.1C91.6,163.6,93.6,162,96.3,162z
		 M98.1,166.9c0-1.6-0.5-3.1-1.9-3.1c-1.4,0-2,1.1-2,2.9c0,1.7,0.5,3.2,1.9,3.2C97.5,169.9,98.1,168.8,98.1,166.9z"/>
	<path class="st8" d="M103,157.8h2.6v3.6l-0.1,1.6c0.4-0.4,1.2-1,2.6-1c2,0,3.8,1.4,3.8,4.5c0,3.1-2,5.3-4.9,5.3
		c-1.7,0-3.7-0.5-4-0.7V157.8z M107.1,170c1.2,0,2.2-1.2,2.2-3.3c0-2.2-0.7-2.8-1.9-2.8c-0.7,0-1.4,0.3-1.8,0.6v5.1
		C105.8,169.9,106.3,170,107.1,170z"/>
	<path class="st8" d="M118,162c2,0,3.7,1,3.8,3.7c0,0.7,0,1.4-0.1,1.8h-5.6c0.1,1.6,1.1,2.3,2.5,2.3c0.7,0,1.9-0.2,2.4-0.5l0.4,1.5
		c-0.6,0.5-2,0.9-3.5,0.9c-2.9,0-4.5-1.8-4.5-4.9C113.5,164.1,115.1,162,118,162z M119.4,166c0.1-1.4-0.3-2.2-1.4-2.2
		c-1,0-1.6,0.5-1.8,2.2H119.4z"/>
	<path class="st8" d="M123.9,162.1h2.3l0.1,1.3c0.4-0.7,1.5-1.5,2.7-1.5c0.3,0,0.6,0,0.7,0.1v2.5c-0.2-0.1-0.4-0.2-1.1-0.2
		c-1.1,0-1.7,0.5-2.1,0.9v6.4h-2.6V162.1z"/>
	<path class="st8" d="M132,163.9h-1.1v-1.4c0.8-0.2,1.3-0.4,1.5-0.9c0.2-0.4,0.4-1,0.6-1.7h1.6v2.2h2.6v1.8h-2.6v3.8
		c0,1.9,0.3,2,1.1,2c0.4,0,1.2-0.2,1.5-0.4l0.3,1.5c-0.5,0.4-1.5,0.9-2.8,0.9c-1.9,0-2.6-0.8-2.6-2.9V163.9z"/>
	<path class="st8" d="M140.4,166.3c1-0.5,2.6-0.5,3.8-0.5v-0.6c0-1-0.3-1.2-1.9-1.2c-0.5,0-1.8,0.3-2.6,0.7l-0.6-1.7
		c0.6-0.4,2.3-1,3.8-1c2.6,0,3.8,0.7,3.8,3.5v6.3h-1.5c-0.6,0-1,0-1-0.9v-0.1c-0.5,0.5-1.3,0.9-2.5,0.9c-1.9,0-3.1-1.3-3.1-3.1
		C138.7,167.5,139.4,166.7,140.4,166.3z M142.7,170c0.6,0,1.3-0.3,1.5-0.5v-2.3c-0.6,0-1.6,0.2-2,0.3c-0.4,0.1-0.8,0.4-0.8,1.1
		C141.4,169.5,142,170,142.7,170z"/>
</g>
<g class="st7">
	<path class="st8" d="M214.9,141h1.2c0.8,0,1.5-0.1,3.4-0.1c2.4,0,4.5,0.8,4.5,3.8c0,2-0.8,3.1-2.1,3.7c1,0.9,1.5,2.9,2.4,4.4
		l0.5,0.9h-2.9c-0.1-0.2-0.2-0.4-0.5-0.9c-0.7-1.5-1-3.9-2.2-3.9c-0.4,0-1,0-1.7,0v4.8h-2.6V141z M219.3,147c1.6,0,2.2-1.1,2.2-2.2
		c0-1-0.3-1.9-2.3-1.9c-0.6,0-1.2,0-1.6,0.1v4C217.9,147,218.9,147,219.3,147z"/>
	<path class="st8" d="M230.6,144c2,0,3.7,1,3.8,3.7c0,0.7,0,1.4-0.1,1.8h-5.6c0.1,1.6,1.1,2.3,2.5,2.3c0.7,0,1.9-0.2,2.4-0.5
		l0.4,1.5c-0.6,0.5-2,0.9-3.5,0.9c-2.9,0-4.5-1.8-4.5-4.9C226.1,146.1,227.7,144,230.6,144z M231.9,148c0.1-1.4-0.3-2.2-1.4-2.2
		c-1,0-1.6,0.5-1.8,2.2H231.9z"/>
	<path class="st8" d="M240.7,144c1.2,0,2.1,0.2,2.5,0.5l-0.3,2c-0.5-0.2-1-0.4-1.9-0.4c-1.1,0-2.4,0.6-2.4,2.5c-0.1,2,1,3,2.3,3
		c0.9,0,1.7-0.2,2.1-0.4l0.4,1.5c-0.6,0.6-1.7,0.9-2.9,0.9c-2.9,0-4.4-2-4.4-4.7C235.9,146.2,237.5,144,240.7,144z"/>
	<path class="st8" d="M249.3,144c3.3,0,4.6,2.4,4.5,5.1c0,3-2,4.7-4.7,4.7c-3.3,0-4.6-2.4-4.5-5.1C244.7,145.6,246.7,144,249.3,144z
		 M251.2,148.9c0-1.6-0.5-3.1-1.9-3.1c-1.4,0-2,1.1-2,2.9c0,1.7,0.5,3.2,1.9,3.2C250.6,151.9,251.2,150.8,251.2,148.9z"/>
	<path class="st8" d="M256.1,144.1h2.3l0.1,1c0.6-0.5,1.9-1.1,3.1-1.2c2-0.1,3,0.9,3,3.7v5.9H262v-5.4c0-1.6-0.3-2.1-1.4-2.1
		c-0.5,0-1.3,0.2-1.9,0.7v6.7h-2.6V144.1z"/>
	<path class="st8" d="M267.3,139.8h2.6v3.6l-0.1,1.7c0.7-0.5,1.9-1.1,2.9-1.1c2.1-0.1,3.1,1,3.1,3.7v5.9h-2.6v-5.4
		c0-1.5-0.4-2.1-1.4-2.1c-0.5,0-1.3,0.2-1.9,0.7v6.7h-2.6V139.8z"/>
	<path class="st8" d="M282.4,144c2,0,3.7,1,3.8,3.7c0,0.7,0,1.4-0.1,1.8h-5.6c0.1,1.6,1.1,2.3,2.5,2.3c0.7,0,1.9-0.2,2.4-0.5
		l0.4,1.5c-0.6,0.5-2,0.9-3.5,0.9c-2.9,0-4.5-1.8-4.5-4.9C277.9,146.1,279.5,144,282.4,144z M283.8,148c0.1-1.4-0.3-2.2-1.4-2.2
		c-1,0-1.6,0.5-1.8,2.2H283.8z"/>
	<path class="st8" d="M292.5,144c1.2,0,2.1,0.2,2.5,0.5l-0.3,2c-0.5-0.2-1-0.4-1.9-0.4c-1.1,0-2.4,0.6-2.4,2.5c-0.1,2,1,3,2.3,3
		c0.9,0,1.7-0.2,2.1-0.4l0.4,1.5c-0.6,0.6-1.7,0.9-2.9,0.9c-2.9,0-4.4-2-4.4-4.7C287.8,146.2,289.3,144,292.5,144z"/>
	<path class="st8" d="M296.9,141.3c0-0.8,0.8-1.6,1.7-1.6c0.9,0,1.5,0.6,1.5,1.4c0,0.9-0.8,1.6-1.6,1.6
		C297.6,142.7,296.9,142.1,296.9,141.3z M297.1,144.1h2.6v9.5h-2.6V144.1z"/>
	<path class="st8" d="M302.6,144.1h2.3l0.1,1c0.6-0.5,1.9-1.1,3.1-1.2s2,0.3,2.4,1.1c0.6-0.4,1.8-1.1,3.2-1.1c2,0,3.1,0.9,3.1,3.7v6
		h-2.6v-5.4c0-1.5-0.3-2.1-1.4-2.1c-0.6,0-1.4,0.3-1.9,0.7c0,0.3,0,0.6,0,0.9v5.9h-2.6v-5.4c0-1.5-0.3-2.1-1.4-2.1
		c-0.5,0-1.3,0.2-1.9,0.7v6.7h-2.6V144.1z"/>
	<path class="st8" d="M323.5,144c2,0,3.7,1,3.8,3.7c0,0.7,0,1.4-0.1,1.8h-5.6c0.1,1.6,1.1,2.3,2.5,2.3c0.7,0,1.9-0.2,2.4-0.5
		l0.4,1.5c-0.6,0.5-2,0.9-3.5,0.9c-2.9,0-4.5-1.8-4.5-4.9C318.9,146.1,320.6,144,323.5,144z M324.8,148c0.1-1.4-0.3-2.2-1.4-2.2
		c-1,0-1.6,0.5-1.8,2.2H324.8z"/>
	<path class="st8" d="M329.5,144.1h2.3l0.1,1c0.6-0.5,1.9-1.1,3.1-1.2c2-0.1,3,0.9,3,3.7v5.9h-2.6v-5.4c0-1.6-0.3-2.1-1.4-2.1
		c-0.5,0-1.3,0.2-1.9,0.7v6.7h-2.6V144.1z"/>
	<path class="st8" d="M341,145.9h-1.1v-1.4c0.8-0.2,1.3-0.4,1.5-0.9c0.2-0.4,0.4-1,0.6-1.7h1.6v2.2h2.6v1.8h-2.6v3.8
		c0,1.9,0.3,2,1.1,2c0.4,0,1.2-0.2,1.5-0.4l0.3,1.5c-0.5,0.4-1.5,0.9-2.8,0.9c-1.9,0-2.6-0.8-2.6-2.9V145.9z"/>
	<path class="st8" d="M352.3,144c3.3,0,4.6,2.4,4.5,5.1c0,3-2,4.7-4.7,4.7c-3.3,0-4.6-2.4-4.5-5.1C347.7,145.6,349.6,144,352.3,144z
		 M354.2,148.9c0-1.6-0.5-3.1-1.9-3.1c-1.4,0-2,1.1-2,2.9c0,1.7,0.5,3.2,1.9,3.2C353.6,151.9,354.2,150.8,354.2,148.9z"/>
</g>
<g class="st7">
	<path class="st8" d="M235.7,162c0.6,0,1.2,0.1,1.6,0.3l0-0.8v-3.6h2.6v13.9h-1.8c-0.4,0-0.6-0.1-0.6-0.5v-0.6
		c-0.4,0.4-1.2,1.1-2.8,1.1c-2,0-3.8-1.5-3.8-4.6C230.9,164,232.8,162,235.7,162z M237.2,169.2v-5.1c-0.3-0.2-0.9-0.3-1.5-0.3
		c-1.2,0-2.2,1-2.2,3.1c0,2.1,0.7,2.8,1.9,2.8C236.2,169.7,236.8,169.5,237.2,169.2z"/>
	<path class="st8" d="M246.7,162c3.3,0,4.6,2.4,4.5,5.1c0,3-2,4.7-4.7,4.7c-3.3,0-4.6-2.4-4.5-5.1C242.1,163.6,244,162,246.7,162z
		 M248.5,166.9c0-1.6-0.5-3.1-1.9-3.1c-1.4,0-2,1.1-2,2.9c0,1.7,0.5,3.2,1.9,3.2C248,169.9,248.5,168.8,248.5,166.9z"/>
	<path class="st8" d="M261.6,172.7v3H259v-13.7h2.4v1c0.4-0.4,1.2-1.1,2.8-1.1c2,0,3.8,1.4,3.8,4.5c0,3.1-1.9,5.2-4.8,5.2
		c-0.7,0-1.2-0.1-1.6-0.3L261.6,172.7z M263,169.9c1.2,0,2.2-1.1,2.2-3.2c0-2.2-0.7-2.8-1.9-2.8c-0.7,0-1.4,0.3-1.8,0.6v5
		C261.9,169.8,262.4,169.9,263,169.9z"/>
	<path class="st8" d="M270,162.1h2.3l0.1,1.3c0.4-0.7,1.5-1.5,2.7-1.5c0.3,0,0.6,0,0.7,0.1v2.5c-0.2-0.1-0.4-0.2-1.1-0.2
		c-1.1,0-1.7,0.5-2.1,0.9v6.4H270V162.1z"/>
	<path class="st8" d="M281.9,162c3.3,0,4.6,2.4,4.5,5.1c0,3-2,4.7-4.7,4.7c-3.3,0-4.6-2.4-4.5-5.1C277.2,163.6,279.2,162,281.9,162z
		 M283.7,166.9c0-1.6-0.5-3.1-1.9-3.1c-1.4,0-2,1.1-2,2.9c0,1.7,0.5,3.2,1.9,3.2C283.1,169.9,283.7,168.8,283.7,166.9z"/>
	<path class="st8" d="M288.6,157.8h2.6v3.6l-0.1,1.6c0.4-0.4,1.2-1,2.6-1c2,0,3.8,1.4,3.8,4.5c0,3.1-2,5.3-4.9,5.3
		c-1.7,0-3.7-0.5-4-0.7V157.8z M292.6,170c1.2,0,2.2-1.2,2.2-3.3c0-2.2-0.7-2.8-1.9-2.8c-0.7,0-1.4,0.3-1.8,0.6v5.1
		C291.4,169.9,291.9,170,292.6,170z"/>
	<path class="st8" d="M299.8,157.8h2.6v13.8h-2.6V157.8z"/>
	<path class="st8" d="M309.2,162c2,0,3.7,1,3.8,3.7c0,0.7,0,1.4-0.1,1.8h-5.6c0.1,1.6,1.1,2.3,2.5,2.3c0.7,0,1.9-0.2,2.4-0.5
		l0.4,1.5c-0.6,0.5-2,0.9-3.5,0.9c-2.9,0-4.5-1.8-4.5-4.9C304.7,164.1,306.3,162,309.2,162z M310.6,166c0.1-1.4-0.3-2.2-1.4-2.2
		c-1,0-1.6,0.5-1.8,2.2H310.6z"/>
	<path class="st8" d="M315.2,162.1h2.3l0.1,1c0.6-0.5,1.9-1.1,3.1-1.2s2,0.3,2.4,1.1c0.6-0.4,1.8-1.1,3.2-1.1c2,0,3.1,0.9,3.1,3.7v6
		h-2.6v-5.4c0-1.5-0.3-2.1-1.4-2.1c-0.6,0-1.4,0.3-1.9,0.7c0,0.3,0,0.6,0,0.9v5.9H321v-5.4c0-1.5-0.3-2.1-1.4-2.1
		c-0.5,0-1.3,0.2-1.9,0.7v6.7h-2.6V162.1z"/>
	<path class="st8" d="M333.3,166.3c1-0.5,2.6-0.5,3.8-0.5v-0.6c0-1-0.3-1.2-1.9-1.2c-0.5,0-1.8,0.3-2.6,0.7l-0.6-1.7
		c0.6-0.4,2.3-1,3.8-1c2.6,0,3.8,0.7,3.8,3.5v6.3h-1.5c-0.6,0-1,0-1-0.9v-0.1c-0.5,0.5-1.3,0.9-2.5,0.9c-1.9,0-3.1-1.3-3.1-3.1
		C331.6,167.5,332.2,166.7,333.3,166.3z M335.6,170c0.6,0,1.3-0.3,1.5-0.5v-2.3c-0.6,0-1.6,0.2-2,0.3c-0.4,0.1-0.8,0.4-0.8,1.1
		C334.3,169.5,334.8,170,335.6,170z"/>
</g>
<g class="st7">
	<path class="st8" d="M626.5,141h1.3c0.7,0,1.7-0.1,3.1-0.1c4.2,0,6.2,2.2,6.2,6.1c0,4.3-2.5,6.8-6.4,6.8c-1.2,0-2.1-0.1-2.8-0.1
		h-1.3V141z M630.8,151.7c2,0,3.4-1.3,3.4-4.5c0-3.3-1.2-4.4-3.7-4.4c-0.5,0-1.1,0.1-1.4,0.1v8.6
		C629.6,151.7,630.2,151.7,630.8,151.7z"/>
	<path class="st8" d="M643.1,144c2,0,3.7,1,3.8,3.7c0,0.7,0,1.4-0.1,1.8h-5.6c0.1,1.6,1.1,2.3,2.5,2.3c0.7,0,1.9-0.2,2.4-0.5
		l0.4,1.5c-0.6,0.5-2,0.9-3.5,0.9c-2.9,0-4.5-1.8-4.5-4.9C638.6,146.1,640.2,144,643.1,144z M644.5,148c0.1-1.4-0.3-2.2-1.4-2.2
		c-1,0-1.6,0.5-1.8,2.2H644.5z"/>
	<path class="st8" d="M653.2,144c1.2,0,2.1,0.2,2.5,0.5l-0.3,2c-0.5-0.2-1-0.4-1.9-0.4c-1.1,0-2.4,0.6-2.4,2.5c-0.1,2,1,3,2.3,3
		c0.9,0,1.7-0.2,2.1-0.4l0.4,1.5c-0.6,0.6-1.7,0.9-2.9,0.9c-2.9,0-4.4-2-4.4-4.7C648.5,146.2,650,144,653.2,144z"/>
	<path class="st8" d="M657.6,141.3c0-0.8,0.8-1.6,1.7-1.6c0.9,0,1.5,0.6,1.5,1.4c0,0.9-0.8,1.6-1.6,1.6
		C658.3,142.7,657.6,142.1,657.6,141.3z M657.8,144.1h2.6v9.5h-2.6V144.1z"/>
	<path class="st8" d="M663.1,151.1c0.3,0.2,1.5,0.7,2.7,0.7c1,0,1.5-0.2,1.5-0.8c0-0.5-0.7-0.9-2-1.4c-1.7-0.6-2.4-1.5-2.4-2.9
		c0-1.8,1.6-2.7,3.8-2.7c1.3,0,2.3,0.3,2.7,0.5l-0.3,2c-0.4-0.3-1.3-0.6-2.1-0.6c-1.1,0-1.6,0.2-1.6,0.7c0,0.6,0.5,0.9,1.9,1.3
		c1.9,0.7,2.7,1.5,2.7,2.8c0,2-1.4,2.9-3.7,2.9c-1.4,0-2.8-0.4-3.3-0.7L663.1,151.1z"/>
	<path class="st8" d="M673.1,148.3c1-0.5,2.6-0.5,3.8-0.5v-0.6c0-1-0.3-1.2-1.9-1.2c-0.5,0-1.8,0.3-2.6,0.7l-0.6-1.7
		c0.6-0.4,2.3-1,3.8-1c2.6,0,3.8,0.7,3.8,3.5v6.3h-1.5c-0.6,0-1,0-1-0.9v-0.1c-0.5,0.5-1.3,0.9-2.5,0.9c-1.9,0-3.1-1.3-3.1-3.1
		C671.4,149.5,672.1,148.7,673.1,148.3z M672.1,141.4c0.4-1,1.2-1.9,2.5-1.9c1.4,0,1.6,1.1,2.4,1.1c0.6,0,1-0.5,1.3-0.9l1,0.9
		c-0.4,1.1-1.2,1.9-2.5,1.9c-1.3,0-1.5-1.1-2.5-1.1c-0.5,0-1,0.5-1.3,0.8L672.1,141.4z M675.4,152c0.6,0,1.3-0.3,1.5-0.5v-2.3
		c-0.6,0-1.6,0.2-2,0.3c-0.4,0.1-0.8,0.4-0.8,1.1C674.1,151.5,674.7,152,675.4,152z"/>
	<path class="st8" d="M686.2,144c3.3,0,4.6,2.4,4.5,5.1c0,3-2,4.7-4.7,4.7c-3.3,0-4.6-2.4-4.5-5.1C681.6,145.6,683.5,144,686.2,144z
		 M688.1,148.9c0-1.6-0.5-3.1-1.9-3.1c-1.4,0-2,1.1-2,2.9c0,1.7,0.5,3.2,1.9,3.2C687.5,151.9,688.1,150.8,688.1,148.9z"/>
	<path class="st8" d="M702.7,144c0.6,0,1.2,0.1,1.6,0.3l0-0.8v-3.6h2.6v13.9H705c-0.4,0-0.6-0.1-0.6-0.5v-0.6
		c-0.4,0.4-1.2,1.1-2.8,1.1c-2,0-3.8-1.5-3.8-4.6C697.9,146,699.8,144,702.7,144z M704.2,151.2v-5.1c-0.3-0.2-0.9-0.3-1.5-0.3
		c-1.2,0-2.2,1-2.2,3.1c0,2.1,0.7,2.8,1.9,2.8C703.2,151.7,703.8,151.5,704.2,151.2z"/>
	<path class="st8" d="M713.5,144c2,0,3.7,1,3.8,3.7c0,0.7,0,1.4-0.1,1.8h-5.6c0.1,1.6,1.1,2.3,2.5,2.3c0.7,0,1.9-0.2,2.4-0.5
		l0.4,1.5c-0.6,0.5-2,0.9-3.5,0.9c-2.9,0-4.5-1.8-4.5-4.9C709,146.1,710.6,144,713.5,144z M714.9,148c0.1-1.4-0.3-2.2-1.4-2.2
		c-1,0-1.6,0.5-1.8,2.2H714.9z"/>
</g>
<g class="st7">
	<path class="st8" d="M644.3,162c1.2,0,2.1,0.2,2.5,0.5l-0.3,2c-0.5-0.2-1-0.4-1.9-0.4c-1.1,0-2.4,0.6-2.4,2.5c-0.1,2,1,3,2.3,3
		c0.9,0,1.7-0.2,2.1-0.4l0.4,1.5c-0.6,0.6-1.7,0.9-2.9,0.9c-2.9,0-4.4-2-4.4-4.7C639.6,164.2,641.1,162,644.3,162z"/>
	<path class="st8" d="M653,162c3.3,0,4.6,2.4,4.5,5.1c0,3-2,4.7-4.7,4.7c-3.3,0-4.6-2.4-4.5-5.1C648.3,163.6,650.3,162,653,162z
		 M654.8,166.9c0-1.6-0.5-3.1-1.9-3.1c-1.4,0-2,1.1-2,2.9c0,1.7,0.5,3.2,1.9,3.2C654.2,169.9,654.8,168.8,654.8,166.9z"/>
	<path class="st8" d="M659.7,162.1h2.3l0,1c0.6-0.5,1.9-1.1,3.1-1.2s2,0.3,2.4,1.1c0.6-0.4,1.8-1.1,3.2-1.1c2,0,3.1,0.9,3.1,3.7v6
		h-2.6v-5.4c0-1.5-0.3-2.1-1.4-2.1c-0.6,0-1.4,0.3-1.9,0.7c0,0.3,0,0.6,0,0.9v5.9h-2.6v-5.4c0-1.5-0.3-2.1-1.4-2.1
		c-0.5,0-1.3,0.2-1.9,0.7v6.7h-2.6V162.1z"/>
	<path class="st8" d="M679.3,172.7v3h-2.6v-13.7h2.4v1c0.4-0.4,1.2-1.1,2.8-1.1c2,0,3.8,1.4,3.8,4.5c0,3.1-1.9,5.2-4.8,5.2
		c-0.7,0-1.2-0.1-1.6-0.3L679.3,172.7z M680.7,169.9c1.2,0,2.2-1.1,2.2-3.2c0-2.2-0.7-2.8-1.9-2.8c-0.7,0-1.4,0.3-1.8,0.6v5
		C679.6,169.8,680.1,169.9,680.7,169.9z"/>
	<path class="st8" d="M687.7,162.1h2.3l0.1,1.3c0.4-0.7,1.5-1.5,2.7-1.5c0.3,0,0.6,0,0.7,0.1v2.5c-0.2-0.1-0.4-0.2-1.1-0.2
		c-1.1,0-1.7,0.5-2.1,0.9v6.4h-2.6V162.1z"/>
	<path class="st8" d="M696.6,166.3c1-0.5,2.6-0.5,3.8-0.5v-0.6c0-1-0.3-1.2-1.9-1.2c-0.5,0-1.8,0.3-2.6,0.7l-0.6-1.7
		c0.6-0.4,2.3-1,3.8-1c2.6,0,3.8,0.7,3.8,3.5v6.3h-1.5c-0.6,0-1,0-1-0.9v-0.1c-0.5,0.5-1.3,0.9-2.5,0.9c-1.9,0-3.1-1.3-3.1-3.1
		C694.9,167.5,695.6,166.7,696.6,166.3z M698.9,170c0.6,0,1.3-0.3,1.5-0.5v-2.3c-0.6,0-1.6,0.2-2,0.3c-0.4,0.1-0.8,0.4-0.8,1.1
		C697.6,169.5,698.2,170,698.9,170z"/>
</g>
<polygon class="st5" points="196.1,105 186.8,111.8 186.8,98.2 "/>
<polygon class="st0" points="388.7,105 379.3,111.8 379.3,98.2 "/>
<polygon class="st2" points="581.2,105 571.9,111.8 571.9,98.2 "/>
<path class="st8" d="M97.7,54.7h-9.6c-1.5,0-2.7,1.3-2.7,2.9v4.6h2.5v-4.6c0-0.2,0.1-0.3,0.2-0.4h9.6c0.2,0.1,0.3,0.2,0.2,0.4v4.7
	h2.5v-4.7C100.4,56,99.2,54.7,97.7,54.7"/>
<path class="st8" d="M92.5,32.6C81.7,32.6,73,41.3,73,52.1s8.7,19.5,19.5,19.5c10.8,0,19.5-8.7,19.5-19.5c0,0,0,0,0,0
	C112,41.4,103.3,32.6,92.5,32.6 M109.5,52.3c-0.1,8.9-6.9,16.2-15.8,16.8v-4.7h-2.5v4.7c-8.9-0.7-15.7-8-15.8-16.9h4.8v-2.4h-4.6
	c1.1-8,7.6-14.1,15.6-14.7v5.2h2.5v-5.2c8,0.6,14.6,6.8,15.6,14.7h-5.1v2.4C104.3,52.3,109.5,52.3,109.5,52.3z"/>
<path class="st8" d="M92.6,52.3c2.7,0,4.8-2.2,4.8-4.9c0-2.7-2.2-4.8-4.9-4.8c-2.7,0-4.8,2.2-4.8,4.9C87.7,50.1,89.9,52.3,92.6,52.3
	 M92.6,45c1.3,0,2.4,1.1,2.4,2.5c0,1.3-1.1,2.4-2.5,2.4c-1.3,0-2.4-1.1-2.4-2.4C90.1,46.1,91.2,45,92.6,45"/>
<path class="st8" d="M285.6,40.3c-1.2-1.6-3.1-2.6-5.1-2.6h-14.3v1.2H266v27.5h0.1v1.2H305v-2.4h0v-1.5h0v-2.4h0V40.1h0v-2.4h-14.3
	C288.6,37.7,286.7,38.6,285.6,40.3 M284.3,44v18.6c-1.1-0.9-2.5-1.4-3.9-1.4h-12V40.1h12C282.6,40.1,284.3,41.8,284.3,44
	 M268.5,65.2v-1.5h12c1.2,0,2.3,0.6,3,1.5H268.5z M302.5,65.2h-14.9c0.7-0.9,1.9-1.5,3-1.5h11.9L302.5,65.2L302.5,65.2z M302.5,61.2
	h-11.9c-1.4,0-2.8,0.5-3.9,1.4V44c0-2.1,1.7-3.9,3.9-3.9h11.9V61.2z"/>
<path class="st8" d="M290.5,46.1h9.4v-2.4h-9.4V46.1z"/>
<path class="st8" d="M290.5,50.8h9.4v-2.4h-9.4V50.8z"/>
<path class="st8" d="M290.5,55.6h9.4v-2.4h-9.4V55.6z"/>
<path class="st8" d="M280.6,43.6h-9.4v2.4h9.4V43.6z"/>
<path class="st8" d="M280.6,48.3h-9.4v2.4h9.4C280.6,50.8,280.6,48.3,280.6,48.3z"/>
<path class="st8" d="M280.6,53.2h-9.4v2.4h9.4V53.2z"/>
<path class="st8" d="M487.9,46.2c-1.7-5.3-7.4-8.2-12.7-6.5c-4.1,1.3-6.9,5-7,9.3c0,2.8,1.2,5.5,3.3,7.3c0.7,0.6,1.5,1.1,2.3,1.4
	v4.6l8.7,0.1v-4.6c0.8-0.3,1.5-0.8,2.2-1.3C487.8,54,489,50,487.9,46.2 M483.1,54.5c-0.7,0.5-1.4,1-2.3,1.2l-0.9,0.3v3.8l-3.5,0V56
	l-0.8-0.3c-0.8-0.3-1.6-0.8-2.3-1.3c-1.6-1.4-2.5-3.3-2.5-5.4c0.1-4.1,3.6-7.3,7.7-7.2c3.1,0.1,5.8,2.2,6.8,5.1
	C486.2,49.7,485.3,52.6,483.1,54.5"/>
<path class="st8" d="M460.5,50.6h4.6V48h-4.6V50.6z"/>
<path class="st8" d="M496.5,48h-4.6v2.6h4.6V48z"/>
<path class="st8" d="M470,39.1l-3.3-3.2l-1.9,1.8l3.3,3.2L470,39.1z"/>
<path class="st8" d="M492.2,60.9l-3.3-3.2l-1.9,1.8l3.3,3.2L492.2,60.9z"/>
<path class="st8" d="M477.2,36.2h2.6l0-4.5h-2.6L477.2,36.2z"/>
<path class="st8" d="M492.2,37.7l-1.9-1.8l-3.3,3.2l1.9,1.8L492.2,37.7z"/>
<path class="st8" d="M470,59.5l-1.9-1.8l-3.3,3.2l1.9,1.8L470,59.5z"/>
<path class="st8" d="M477.3,50.1l-1.7-1.7l-1.9,1.8l3.6,3.5l6.9-6.7l-1.9-1.8L477.3,50.1z"/>
<path class="st8" d="M474,68.4c0,2.4,2,4.3,4.4,4.3c2.3,0,4.2-1.9,4.3-4.3v-3.5H474L474,68.4L474,68.4z M476.6,67.4h3.4v0.9
	c0,0.9-0.8,1.7-1.7,1.7c-0.9,0-1.7-0.8-1.7-1.7V67.4z"/>
<path class="st8" d="M685.3,39.6h-27.7c-1.7,0-3.1,1.4-3.1,3.1v18.8c0,1.7,1.4,3.1,3.1,3.1h27.7c1.7,0,3.1-1.4,3.1-3.1V42.8
	C688.5,41,687.1,39.6,685.3,39.6 M656.6,42.8c0-0.6,0.5-1,1.1-1h27.7c0.6,0,1.1,0.5,1.1,1v3h-29.8V42.8z M686.4,61.5
	c0,0.6-0.5,1-1.1,1h-27.7c-0.6,0-1.1-0.5-1.1-1V50h29.8V61.5z"/>
<path class="st8" d="M675.8,52.2h-17.5v6.2h17.5V52.2z M673.7,56.3h-13.3v-2h13.3C673.7,54.3,673.7,56.3,673.7,56.3z"/>
<path class="st8" d="M684,52.2h-6.4v6.2h6.4V52.2z M681.9,56.3h-2.2v-2h2.2C681.9,54.3,681.9,56.3,681.9,56.3z"/>
<path class="st9" d="M552.8,105H403.8c0,10.5-7.5,19.5-17.8,21.5V206c0,2.2,1.8,4,4,4h177c2.2,0,4-1.8,4-4v-79.5
	C560.5,124.8,552.8,115.7,552.8,105z"/>
<g class="st7">
	<path class="st8" d="M427.8,138.8c1.8,0,2.6,0.3,3.4,0.5l-0.4,2.3c-0.4-0.2-1.2-0.7-2.9-0.7c-2.1,0-3.6,1.6-3.6,4.2
		c0,2.6,1.4,4.5,3.8,4.5c1.1,0,2.5-0.5,2.9-0.8l0,2.2c-0.7,0.3-1.7,0.7-3.2,0.7c-3.9,0-6.3-2.6-6.3-6.4
		C421.6,141.1,424.3,138.8,427.8,138.8z"/>
	<path class="st8" d="M437,142c3.3,0,4.6,2.4,4.5,5.1c0,3-2,4.7-4.7,4.7c-3.3,0-4.6-2.4-4.5-5.1C432.4,143.6,434.3,142,437,142z
		 M438.9,146.9c0-1.6-0.5-3.1-1.9-3.1c-1.4,0-2,1.1-2,2.9c0,1.7,0.5,3.2,1.9,3.2C438.3,149.9,438.9,148.8,438.9,146.9z"/>
	<path class="st8" d="M443.8,142.1h2.3l0,1c0.6-0.5,1.9-1.1,3.1-1.2c2-0.1,3,0.9,3,3.7v5.9h-2.6v-5.4c0-1.6-0.3-2.1-1.4-2.1
		c-0.5,0-1.3,0.2-1.9,0.7v6.7h-2.6V142.1z"/>
	<path class="st8" d="M454.8,149.1c0.3,0.2,1.5,0.7,2.7,0.7c1,0,1.5-0.2,1.5-0.8c0-0.5-0.7-0.9-2-1.4c-1.7-0.6-2.4-1.5-2.4-2.9
		c0-1.8,1.6-2.7,3.8-2.7c1.3,0,2.3,0.3,2.7,0.5l-0.3,2c-0.4-0.3-1.3-0.6-2.1-0.6c-1.1,0-1.6,0.2-1.6,0.7c0,0.6,0.5,0.9,1.9,1.3
		c1.9,0.7,2.7,1.5,2.7,2.8c0,2-1.4,2.9-3.7,2.9c-1.4,0-2.8-0.4-3.3-0.7L454.8,149.1z"/>
	<path class="st8" d="M463.5,139.3c0-0.8,0.8-1.6,1.7-1.6c0.9,0,1.5,0.6,1.5,1.4c0,0.9-0.8,1.6-1.6,1.6
		C464.2,140.7,463.5,140.1,463.5,139.3z M463.7,142.1h2.6v9.5h-2.6V142.1z"/>
	<path class="st8" d="M473.4,142c0.6,0,1.2,0.1,1.6,0.3l0-0.8v-3.6h2.6v13.9h-1.8c-0.4,0-0.6-0.1-0.6-0.5v-0.6
		c-0.4,0.4-1.2,1.1-2.8,1.1c-2,0-3.8-1.5-3.8-4.6C468.5,144,470.5,142,473.4,142z M474.9,149.2v-5.1c-0.3-0.2-0.9-0.3-1.5-0.3
		c-1.2,0-2.2,1-2.2,3.1c0,2.1,0.7,2.8,1.9,2.8C473.8,149.7,474.5,149.5,474.9,149.2z"/>
	<path class="st8" d="M484.2,142c2,0,3.7,1,3.8,3.7c0,0.7,0,1.4-0.1,1.8h-5.6c0.1,1.6,1.1,2.3,2.5,2.3c0.7,0,1.9-0.2,2.4-0.5
		l0.4,1.5c-0.6,0.5-2,0.9-3.5,0.9c-2.9,0-4.5-1.8-4.5-4.9C479.7,144.1,481.3,142,484.2,142z M485.5,146c0.1-1.4-0.3-2.2-1.4-2.2
		c-1,0-1.6,0.5-1.8,2.2H485.5z"/>
	<path class="st8" d="M490.1,142.1h2.3l0.1,1.3c0.4-0.7,1.5-1.5,2.7-1.5c0.3,0,0.6,0,0.7,0.1v2.5c-0.2-0.1-0.4-0.2-1.1-0.2
		c-1.1,0-1.7,0.5-2.1,0.9v6.4h-2.6V142.1z"/>
	<path class="st8" d="M498.9,146.3c1-0.5,2.6-0.5,3.8-0.5v-0.6c0-1-0.3-1.2-1.9-1.2c-0.5,0-1.8,0.3-2.6,0.7l-0.6-1.7
		c0.6-0.4,2.3-1,3.8-1c2.6,0,3.8,0.7,3.8,3.5v6.3h-1.5c-0.6,0-1,0-1-0.9v-0.1c-0.5,0.5-1.3,0.9-2.5,0.9c-1.9,0-3.1-1.3-3.1-3.1
		C497.3,147.5,497.9,146.7,498.9,146.3z M501.3,150c0.6,0,1.3-0.3,1.5-0.5v-2.3c-0.6,0-1.6,0.2-2,0.3c-0.4,0.1-0.8,0.4-0.8,1.1
		C499.9,149.5,500.5,150,501.3,150z"/>
	<path class="st8" d="M510,153.9c0.5,0,1-0.4,1-1.2c0-0.5,0-0.8-0.1-1.1c-2.3-0.4-3.5-2.3-3.5-4.7c0-2.8,1.5-5,4.7-5
		c1.2,0,2.1,0.2,2.5,0.5l-0.3,2c-0.5-0.2-1-0.4-1.9-0.4c-1.1,0-2.4,0.6-2.4,2.5c-0.1,2,1,3,2.3,3c0.9,0,1.7-0.2,2.1-0.4l0.4,1.5
		c-0.5,0.4-1.3,0.8-2.2,0.9c0.2,0.4,0.3,1.1,0.3,1.8c0,1.4-1,2-2.1,2c-0.5,0-1.3-0.1-1.5-0.2l0.2-1.4
		C509.5,153.9,509.7,153.9,510,153.9z"/>
	<path class="st8" d="M517.8,146.3c1-0.5,2.6-0.5,3.8-0.5v-0.6c0-1-0.3-1.2-1.9-1.2c-0.5,0-1.8,0.3-2.6,0.7l-0.6-1.7
		c0.6-0.4,2.3-1,3.8-1c2.6,0,3.8,0.7,3.8,3.5v6.3h-1.5c-0.6,0-1,0-1-0.9v-0.1c-0.5,0.5-1.3,0.9-2.5,0.9c-1.9,0-3.1-1.3-3.1-3.1
		C516.1,147.5,516.8,146.7,517.8,146.3z M516.8,139.4c0.4-1,1.2-1.9,2.5-1.9c1.4,0,1.6,1.1,2.4,1.1c0.6,0,1-0.5,1.3-0.9l1,0.9
		c-0.4,1.1-1.2,1.9-2.5,1.9c-1.3,0-1.5-1.1-2.5-1.1c-0.5,0-1,0.5-1.3,0.8L516.8,139.4z M520.1,150c0.6,0,1.3-0.3,1.5-0.5v-2.3
		c-0.6,0-1.6,0.2-2,0.3c-0.4,0.1-0.8,0.4-0.8,1.1C518.8,149.5,519.4,150,520.1,150z"/>
	<path class="st8" d="M530.9,142c3.3,0,4.6,2.4,4.5,5.1c0,3-2,4.7-4.7,4.7c-3.3,0-4.6-2.4-4.5-5.1C526.3,143.6,528.2,142,530.9,142z
		 M532.8,146.9c0-1.6-0.5-3.1-1.9-3.1c-1.4,0-2,1.1-2,2.9c0,1.7,0.5,3.2,1.9,3.2C532.2,149.9,532.8,148.8,532.8,146.9z"/>
</g>
<g class="st7">
	<path class="st8" d="M437.8,164c0.6,0,1.2,0.1,1.6,0.3l0-0.8v-3.6h2.6v13.9h-1.8c-0.4,0-0.6-0.1-0.6-0.5v-0.6
		c-0.4,0.4-1.2,1.1-2.8,1.1c-2,0-3.8-1.5-3.8-4.6C433,166,434.9,164,437.8,164z M439.3,171.2v-5.1c-0.3-0.2-0.9-0.3-1.5-0.3
		c-1.2,0-2.2,1-2.2,3.1c0,2.1,0.7,2.8,1.9,2.8C438.3,171.7,439,171.5,439.3,171.2z"/>
	<path class="st8" d="M445.8,168.3c1-0.5,2.6-0.5,3.8-0.5v-0.6c0-1-0.3-1.2-1.9-1.2c-0.5,0-1.8,0.3-2.6,0.7l-0.6-1.7
		c0.6-0.4,2.3-1,3.8-1c2.6,0,3.8,0.7,3.8,3.5v6.3h-1.5c-0.6,0-1,0-1-0.9v-0.1c-0.5,0.5-1.3,0.9-2.5,0.9c-1.9,0-3.1-1.3-3.1-3.1
		C444.2,169.5,444.8,168.7,445.8,168.3z M448.2,172c0.6,0,1.3-0.3,1.5-0.5v-2.3c-0.6,0-1.6,0.2-2,0.3c-0.4,0.1-0.8,0.4-0.8,1.1
		C446.8,171.5,447.4,172,448.2,172z"/>
	<path class="st8" d="M460.3,171.1c0.3,0.2,1.5,0.7,2.7,0.7c1,0,1.5-0.2,1.5-0.8c0-0.5-0.7-0.9-2-1.4c-1.7-0.6-2.4-1.5-2.4-2.9
		c0-1.8,1.6-2.7,3.8-2.7c1.3,0,2.3,0.3,2.7,0.5l-0.3,2c-0.4-0.3-1.3-0.6-2.1-0.6c-1.1,0-1.6,0.2-1.6,0.7c0,0.6,0.5,0.9,1.9,1.3
		c1.9,0.7,2.7,1.5,2.7,2.8c0,2-1.4,2.9-3.7,2.9c-1.4,0-2.8-0.4-3.3-0.7L460.3,171.1z"/>
	<path class="st8" d="M473.2,164c3.3,0,4.6,2.4,4.5,5.1c0,3-2,4.7-4.7,4.7c-3.3,0-4.6-2.4-4.5-5.1C468.6,165.6,470.5,164,473.2,164z
		 M475.1,168.9c0-1.6-0.5-3.1-1.9-3.1c-1.4,0-2,1.1-2,2.9c0,1.7,0.5,3.2,1.9,3.2C474.5,171.9,475.1,170.8,475.1,168.9z"/>
	<path class="st8" d="M480,159.8h2.6v13.8H480V159.8z"/>
	<path class="st8" d="M485.5,164.1h2.6v5.5c0,1.8,0.5,2.1,1.5,2.1c0.6,0,1.3-0.3,1.6-0.5v-7.1h2.6v9.6H492c-0.4,0-0.6-0.1-0.6-0.5
		v-0.4c-0.7,0.5-1.8,0.9-2.8,0.9c-2.7,0-3.1-1.6-3.1-4.1V164.1z"/>
	<path class="st8" d="M498.5,175.9c0.5,0,1-0.4,1-1.2c0-0.5,0-0.8-0.1-1.1c-2.3-0.4-3.5-2.3-3.5-4.7c0-2.8,1.5-5,4.7-5
		c1.2,0,2.1,0.2,2.5,0.5l-0.3,2c-0.5-0.2-1-0.4-1.9-0.4c-1.1,0-2.4,0.6-2.4,2.5c-0.1,2,1,3,2.3,3c0.9,0,1.7-0.2,2.1-0.4l0.4,1.5
		c-0.5,0.4-1.3,0.8-2.2,0.9c0.2,0.4,0.3,1.1,0.3,1.8c0,1.4-1,2-2.1,2c-0.5,0-1.3-0.1-1.5-0.2l0.2-1.4
		C498,175.9,498.3,175.9,498.5,175.9z"/>
	<path class="st8" d="M506.3,168.3c1-0.5,2.6-0.5,3.8-0.5v-0.6c0-1-0.3-1.2-1.9-1.2c-0.5,0-1.8,0.3-2.6,0.7l-0.6-1.7
		c0.6-0.4,2.3-1,3.8-1c2.6,0,3.8,0.7,3.8,3.5v6.3h-1.5c-0.6,0-1,0-1-0.9v-0.1c-0.5,0.5-1.3,0.9-2.5,0.9c-1.9,0-3.1-1.3-3.1-3.1
		C504.7,169.5,505.3,168.7,506.3,168.3z M505.3,161.4c0.4-1,1.2-1.9,2.5-1.9c1.4,0,1.6,1.1,2.4,1.1c0.6,0,1-0.5,1.3-0.9l1,0.9
		c-0.4,1.1-1.2,1.9-2.5,1.9c-1.3,0-1.5-1.1-2.5-1.1c-0.5,0-1,0.5-1.3,0.8L505.3,161.4z M508.6,172c0.6,0,1.3-0.3,1.5-0.5v-2.3
		c-0.6,0-1.6,0.2-2,0.3c-0.4,0.1-0.8,0.4-0.8,1.1C507.3,171.5,507.9,172,508.6,172z"/>
	<path class="st8" d="M519.5,164c3.3,0,4.6,2.4,4.5,5.1c0,3-2,4.7-4.7,4.7c-3.3,0-4.6-2.4-4.5-5.1C514.8,165.6,516.8,164,519.5,164z
		 M521.3,168.9c0-1.6-0.5-3.1-1.9-3.1c-1.4,0-2,1.1-2,2.9c0,1.7,0.5,3.2,1.9,3.2C520.7,171.9,521.3,170.8,521.3,168.9z"/>
</g>
</svg>
