<svg id="Layer_1" data-name="Layer 1" xmlns="http://www.w3.org/2000/svg" viewBox="0 0 500 61.14574"><defs><style>.cls-1{fill:#506c83;}.cls-2{fill:#706e6d;}</style></defs><title>logo-resultados-digitais-original</title><path class="cls-1" d="M0,2.99374a88.40708,88.40708,0,0,1,13.50675-.93145c6.65365,0,11.31173.99816,14.5051,3.52629,2.7283,2.12922,4.19134,5.32333,4.19134,9.44793a11.88093,11.88093,0,0,1-7.91725,10.97884V26.2148c3.12738,1.26452,4.85678,4.19151,5.98766,8.31707,1.398,5.123,2.72849,10.9779,3.593,12.708H23.48723a60.0922,60.0922,0,0,1-3.06047-10.4461c-1.26452-5.65551-3.19337-7.11948-7.38582-7.18545H10.0472V47.2399H0V2.99374Zm10.0472,19.295h3.99208c5.057,0,8.05089-2.52811,8.05089-6.45328,0-4.05881-2.79448-6.188-7.45163-6.188a20.1147,20.1147,0,0,0-4.59135.33309V22.2887Z"/><path class="cls-1" d="M45.24894,34.19877c0.26618,4.19153,4.4577,6.188,9.18158,6.188a26.7978,26.7978,0,0,0,8.98232-1.39724l1.33125,6.85329a30.76646,30.76646,0,0,1-11.77736,2.06231c-11.04463,0-17.36538-6.38748-17.36538-16.5674,0-8.25034,5.123-17.36519,16.43376-17.36519,10.513,0,14.50511,8.18342,14.50511,16.23432a23.94629,23.94629,0,0,1-.33309,3.9919H45.24894ZM57.159,27.27894c0-2.46139-1.06507-6.58692-5.72222-6.58692-4.25826,0-5.9884,3.92609-6.25476,6.58692H57.159Z"/><path class="cls-1" d="M70.86891,38.45721a19.77042,19.77042,0,0,0,8.716,2.3954c3.06065,0,4.32518-.99834,4.32518-2.66176,0-1.72922-.99835-2.52811-4.72407-3.79245-6.78637-2.262-9.38122-5.92187-9.31523-9.78029,0-6.12112,5.18969-10.71246,13.24058-10.71246a21.38551,21.38551,0,0,1,9.11578,1.92977L90.497,22.82124a16.24213,16.24213,0,0,0-7.05273-1.86286c-2.46213,0-3.85937.99816-3.85937,2.59484,0,1.5965,1.26452,2.3954,5.2566,3.79245,6.188,2.12922,8.716,5.32333,8.78287,10.04739,0,6.12112-4.72406,10.57882-14.03947,10.57882a22.98121,22.98121,0,0,1-10.51209-2.32867Z"/><path class="cls-1" d="M128.82405,36.7938c0,4.25826.13364,7.71854,0.26636,10.4461h-8.78287l-0.46562-4.59136h-0.19963a11.60491,11.60491,0,0,1-10.17993,5.32334c-6.65365,0-11.44445-4.12555-11.44445-14.172V14.70454H108.132V32.20338c0,4.72388,1.52977,7.58508,5.123,7.58508a5.60978,5.60978,0,0,0,5.45586-5.72224V14.70454h10.1132V36.7938Z"/><path class="cls-1" d="M135.282,0h10.11319V47.2399H135.282V0Z"/><path class="cls-1" d="M163.22874,5.92167v8.78287h7.25218V22.156h-7.25218V33.9326c0,3.92609.99834,5.72222,3.99208,5.72222a12.44207,12.44207,0,0,0,2.99374-.26618l0.06691,7.6518a21.28142,21.28142,0,0,1-6.5202.86472,10.80683,10.80683,0,0,1-7.65181-2.79429c-1.863-1.92977-2.79448-5.05715-2.79448-9.64758V22.156H148.99V14.70454h4.325V8.64923Z"/><path class="cls-1" d="M201.75453,39.38865a42.19152,42.19152,0,0,0,.53254,7.85126h-9.115l-0.59927-3.2601h-0.19945a11.72085,11.72085,0,0,1-9.31523,3.99208c-6.58692,0-10.51228-4.79079-10.51228-9.98048,0-8.44978,7.58527-12.44187,19.09552-12.44187V25.14972c0-1.79595-.93143-4.25826-5.92167-4.25826a18.30112,18.30112,0,0,0-8.98232,2.46231l-1.86286-6.5202a26.71335,26.71335,0,0,1,12.64224-2.92793c10.84519,0,14.23781,6.38748,14.23781,14.10528V39.38865Zm-9.78011-7.51837c-5.32333,0-9.44794,1.26454-9.44794,5.123,0,2.59484,1.72922,3.85936,3.9919,3.85936a5.59228,5.59228,0,0,0,5.2566-3.72591,7.27108,7.27108,0,0,0,.19945-1.73014V31.87027Z"/><path class="cls-1" d="M239.68457,0V37.5256c0,3.65992.13272,7.51835,0.26545,9.7143h-8.98233L230.56879,42.516h-0.19945c-1.9965,3.593-5.98858,5.45586-10.17993,5.45586-7.7178,0-13.90583-6.58692-13.90583-16.70012-0.06673-10.97864,6.78638-17.36612,14.5709-17.36612,4.05881,0,7.11947,1.464,8.58344,3.659h0.13252V0h10.11412ZM229.57045,28.47653a9.14151,9.14151,0,0,0-.13252-1.86284,6.08147,6.08147,0,0,0-5.92168-4.92333c-4.65734,0-6.98674,4.12554-6.98674,9.2485,0,5.52278,2.7283,8.98214,6.91983,8.98214a5.9915,5.9915,0,0,0,5.92167-4.85752,13.12668,13.12668,0,0,0,.19945-2.32867V28.47653Z"/><path class="cls-1" d="M278.28079,30.60577c0,11.91025-8.45163,17.36612-17.16667,17.36612-9.51486,0-16.83358-6.25476-16.83358-16.76685,0-10.57975,6.91983-17.29939,17.43285-17.29939C271.62714,13.90565,278.28079,20.75875,278.28079,30.60577Zm-23.55322.33309c0,5.58858,2.32867,9.781,6.65365,9.781,3.98931,0,6.45162-3.92609,6.45162-9.84795,0-4.79079-1.863-9.71412-6.45162-9.71412C256.59043,21.15783,254.72757,26.14807,254.72757,30.93886Z"/><path class="cls-1" d="M282.808,38.45721a19.76988,19.76988,0,0,0,8.71521,2.3954c3.06139,0,4.325-.99834,4.325-2.66176,0-1.72922-.9965-2.52811-4.72221-3.79245-6.78731-2.262-9.38307-5.92187-9.3143-9.78029,0-6.12112,5.18783-10.71246,13.23872-10.71246a21.37883,21.37883,0,0,1,9.11578,1.92977L302.437,22.82124a16.25086,16.25086,0,0,0-7.0544-1.86286c-2.46231,0-3.85936.99816-3.85936,2.59484,0,1.5965,1.2636,2.3954,5.25642,3.79245,6.188,2.12922,8.71873,5.32333,8.7838,10.04739,0,6.12112-4.72591,10.57882-14.04021,10.57882a22.993,22.993,0,0,1-10.513-2.32867Z"/><path class="cls-2" d="M311.08695,3.06045a74.26264,74.26264,0,0,1,12.311-.99816c8.318,0,14.23873,1.99652,18.16315,5.5886,4.05789,3.65992,6.38655,8.84959,6.38655,16.10178,0,7.31872-2.32867,13.30731-6.45161,17.43285C337.23594,45.377,330.3187,47.6388,321.6,47.6388a92.71861,92.71861,0,0,1-10.513-.53161V3.06045Zm5.791,39.655a48.15244,48.15244,0,0,0,5.85568.26618c12.44094,0,19.0946-6.91983,19.0946-19.02953,0.06507-10.579-5.92075-17.29846-18.16317-17.29846a32.85839,32.85839,0,0,0-6.78711.59834V42.71547Z"/><path class="cls-2" d="M360.06346,5.98747a3.49371,3.49371,0,0,1-3.72572,3.59319,3.44251,3.44251,0,0,1-3.5272-3.59319,3.5662,3.5662,0,0,1,3.66084-3.659A3.51394,3.51394,0,0,1,360.06346,5.98747Zm-6.52,41.25243V15.03651h5.85217V47.2399h-5.85217Z"/><path class="cls-2" d="M394.99625,42.516c0,7.45144-1.5307,11.91007-4.59226,14.77127-3.19153,2.8601-7.715,3.85844-11.77662,3.85844-3.85935,0-8.11577-.93145-10.71153-2.66176l1.46581-4.52351a17.52125,17.52125,0,0,0,9.44793,2.59484c5.98581,0,10.37937-3.12738,10.37937-11.31191V41.71713h-0.13346c-1.7294,2.99466-5.2566,5.39006-10.24592,5.39006-7.98581,0-13.708-6.78711-13.708-15.70272,0-10.91189,7.11928-17.033,14.5709-17.033,5.58858,0,8.58509,2.861,10.04721,5.52276h0.13364l0.19852-4.85771h5.19154c-0.20222,2.26288-.2671,4.92353-0.2671,8.78289V42.516Zm-5.85587-14.77147a7.658,7.658,0,0,0-.33217-2.59483,8.3588,8.3588,0,0,0-8.18434-6.25384c-5.58878,0-9.5816,4.72406-9.5816,12.17551,0,6.32167,3.2601,11.57715,9.51652,11.57715a8.44029,8.44029,0,0,0,8.116-5.98746,10.20975,10.20975,0,0,0,.46562-3.12738V27.74455Z"/><path class="cls-2" d="M409.105,5.98747a3.49381,3.49381,0,0,1-3.72572,3.59319,3.4424,3.4424,0,0,1-3.5272-3.59319,3.56824,3.56824,0,0,1,3.66066-3.659A3.512,3.512,0,0,1,409.105,5.98747Zm-6.5202,41.25243V15.03651h5.85587V47.2399h-5.85587Z"/><path class="cls-2" d="M423.546,7.31872v7.71779h8.38287v4.4579H423.546V36.86053c0,3.99208,1.13,6.25382,4.39005,6.25382a10.94584,10.94584,0,0,0,3.39356-.39888l0.26728,4.4577a15.96261,15.96261,0,0,1-5.19154.79871,8.355,8.355,0,0,1-6.32167-2.46213c-1.59558-1.79613-2.25989-4.65715-2.25989-8.44978V19.49441h-4.993v-4.4579h4.993V9.04813Z"/><path class="cls-2" d="M459.4751,39.5221a54.13583,54.13583,0,0,0,.46562,7.7178h-5.25642l-0.46581-4.05881H454.02a11.9983,11.9983,0,0,1-9.8487,4.79079c-6.5202,0-9.84517-4.59136-9.84517-9.2485,0-7.78453,6.91724-12.04279,19.3617-11.97606V26.08115c0-2.59484-.73291-7.45144-7.318-7.38473a15.52169,15.52169,0,0,0-8.45145,2.39541l-1.33217-3.92609a20.86533,20.86533,0,0,1,10.64647-2.79429c9.84887,0,12.24242,6.72038,12.24242,13.10786V39.5221Zm-5.65365-8.71688c-6.39007-.13273-13.63947.99816-13.63947,7.25292,0,3.85842,2.52719,5.58877,5.45512,5.58877a8.13036,8.13036,0,0,0,7.91725-5.38932,6.65008,6.65008,0,0,0,.2671-1.86286V30.80522Z"/><path class="cls-2" d="M473.78611,5.98747a3.49381,3.49381,0,0,1-3.72572,3.59319A3.44255,3.44255,0,0,1,466.533,5.98747a3.56631,3.56631,0,0,1,3.66086-3.659A3.51409,3.51409,0,0,1,473.78611,5.98747ZM467.26593,47.2399V15.03651h5.85217V47.2399h-5.85217Z"/><path class="cls-2" d="M480.37119,41.31823a16.5483,16.5483,0,0,0,7.7873,2.26175c4.19134,0,6.18785-2.06231,6.18785-4.78987,0-2.79429-1.66432-4.25826-5.92444-5.85568-5.85217-2.12922-8.58139-5.25568-8.58139-9.115,0-5.18969,4.26011-9.44794,11.11228-9.44794a14.93752,14.93752,0,0,1,7.84867,1.99558l-1.39724,4.25826a12.474,12.474,0,0,0-6.58508-1.92887c-3.45862,0-5.32148,1.99559-5.32148,4.391,0,2.66176,1.86286,3.85936,6.05439,5.52278,5.52,2.06229,8.448,4.8566,8.448,9.64739,0,5.72222-4.45864,9.7143-11.97515,9.7143a18.36325,18.36325,0,0,1-9.05088-2.26268Z"/></svg>