<svg id="Layer_1" data-name="Layer 1" xmlns="http://www.w3.org/2000/svg" viewBox="0 0 270.498 33.0796"><defs><style>.cls-1{fill:#fff;}</style></defs><title>marca_rd_horizontal</title><path class="cls-1" d="M0,1.6196a47.82788,47.82788,0,0,1,7.3071-.50391c3.5996,0,6.1196.54,7.8472,1.90771a6.15342,6.15342,0,0,1,2.2675,5.11129,6.42754,6.42754,0,0,1-4.2832,5.93951v0.1079c1.6919,0.6841,2.6275,2.26759,3.2393,4.4995,0.7563,2.7715,1.4761,5.939,1.9438,6.875H12.7065a32.50964,32.50964,0,0,1-1.6557-5.6513c-0.6841-3.05961-1.7276-3.85161-3.9957-3.8873H5.4355v9.5386H0V1.6196ZM5.4355,12.0581H7.5952c2.7358,0,4.3555-1.3677,4.3555-3.4912,0-2.1958-1.5118-3.3477-4.0313-3.3477a10.882,10.882,0,0,0-2.4839.1802v6.6587Z"/><path class="cls-1" d="M24.4795,18.5014c0.144,2.2676,2.4116,3.3477,4.9672,3.3477a14.4975,14.4975,0,0,0,4.8594-.7559l0.7202,3.7076a16.64453,16.64453,0,0,1-6.3715,1.1157c-5.9751,0-9.3946-3.4556-9.3946-8.9629,0-4.4634,2.7715-9.3945,8.8906-9.3945,5.6875,0,7.8472,4.4272,7.8472,8.7827a12.95485,12.95485,0,0,1-.1802,2.1596H24.4795Zm6.4433-3.7436c0-1.3316-.5762-3.5635-3.0957-3.5635-2.3037,0-3.2397,2.124-3.3838,3.5635h6.4795Z"/><path class="cls-1" d="M38.3398,20.8052a10.69572,10.69572,0,0,0,4.7153,1.2959c1.6558,0,2.3399-.5401,2.3399-1.44,0-.9355-0.5401-1.3677-2.5557-2.0517-3.6714-1.22371-5.0752-3.20371-5.0395-5.2911,0-3.3115,2.8076-5.7954,7.1631-5.7954a11.56948,11.56948,0,0,1,4.9316,1.044l-0.936,3.7793a8.78693,8.78693,0,0,0-3.8155-1.0078c-1.332,0-2.0879.54-2.0879,1.4038s0.6841,1.2959,2.8438,2.0517c3.3477,1.1519,4.7153,2.8799,4.7515,5.4356,0,3.3115-2.5557,5.7231-7.5953,5.7231a12.43274,12.43274,0,0,1-5.687-1.2598Z"/><path class="cls-1" d="M69.6933,19.9053c0,2.3037.0723,4.1757,0.1441,5.6513H65.0859L64.834,23.07269H64.726a6.27821,6.27821,0,0,1-5.5073,2.87991c-3.5996,0-6.1914-2.23191-6.1914-7.667V7.9551H58.499v9.4668c0,2.5556.8276,4.1035,2.7715,4.1035a3.03487,3.03487,0,0,0,2.9516-3.09571V7.9551h5.4712V19.9053Z"/><path class="cls-1" d="M73.187,0h5.4712V25.5566H73.187V0Z"/><path class="cls-1" d="M88.3061,3.2036V7.9551h3.9234v4.0312H88.3061v6.3711c0,2.124.5401,3.0957,2.1597,3.0957a6.73111,6.73111,0,0,0,1.6196-.144l0.0362,4.13959a11.51316,11.51316,0,0,1-3.5274.46781,5.84645,5.84645,0,0,1-4.1396-1.5117c-1.0079-1.044-1.5118-2.7359-1.5118-5.2193V11.9863H80.603V7.9551h2.3398V4.6792Z"/><path class="cls-1" d="M109.1484,21.3091a22.82544,22.82544,0,0,0,.2881,4.2475h-4.9312l-0.3242-1.7637h-0.1079a6.34093,6.34093,0,0,1-5.0395,2.1597,5.39542,5.39542,0,0,1-5.6871-5.3994c0-4.5713,4.1036-6.731,10.3306-6.731V13.6059c0-.9716-0.5039-2.3037-3.2036-2.3037a9.90083,9.90083,0,0,0-4.8594,1.3321L94.6064,9.1069a14.45181,14.45181,0,0,1,6.8394-1.584c5.8672,0,7.7026,3.4556,7.7026,7.6309v6.1553Zm-5.291-4.06741c-2.8799,0-5.1113.68411-5.1113,2.77151a1.96516,1.96516,0,0,0,2.1596,2.0879,3.0254,3.0254,0,0,0,2.8438-2.0157,3.93362,3.93362,0,0,0,.1079-0.936V17.24169Z"/><path class="cls-1" d="M129.6684,0V20.3012c0,1.98.0718,4.0674,0.1436,5.2554h-4.8594l-0.2158-2.5556h-0.1079a6.14783,6.14783,0,0,1-5.5073,2.9516c-4.1753,0-7.523-3.5635-7.523-9.0347-0.0361-5.9394,3.6714-9.395,7.8828-9.395a5.4092,5.4092,0,0,1,4.6436,1.9795h0.0717V0h5.4717Zm-5.4717,15.40569a4.94552,4.94552,0,0,0-.0717-1.00779,3.29,3.29,0,0,0-3.2036-2.6635c-2.5196,0-3.7798,2.2319-3.7798,5.0034,0,2.9878,1.476,4.8593,3.7436,4.8593a3.24138,3.24138,0,0,0,3.2036-2.6279,7.10148,7.10148,0,0,0,.1079-1.2598V15.40569Z"/><path class="cls-1" d="M150.54879,16.5576c0,6.4434-4.5723,9.395-9.2871,9.395-5.1475,0-9.1069-3.3838-9.1069-9.0708,0-5.7236,3.7436-9.3589,9.4311-9.3589C146.94919,7.5229,150.54879,11.2304,150.54879,16.5576Zm-12.7422.1802c0,3.0234,1.2598,5.2915,3.5996,5.2915,2.1582,0,3.4903-2.124,3.4903-5.3277,0-2.5918-1.0079-5.2553-3.4903-5.2553C138.81439,11.4463,137.80659,14.146,137.80659,16.7378Z"/><path class="cls-1" d="M152.998,20.8052a10.69542,10.69542,0,0,0,4.71489,1.2959c1.6562,0,2.3398-.5401,2.3398-1.44,0-.9355-0.5391-1.3677-2.55469-2.0517-3.67191-1.22371-5.07621-3.20371-5.039-5.2911,0-3.3115,2.80659-5.7954,7.16209-5.7954a11.56586,11.56586,0,0,1,4.9316,1.044l-0.9355,3.7793a8.79165,8.79165,0,0,0-3.8164-1.0078c-1.3321,0-2.0879.54-2.0879,1.4038s0.6836,1.2959,2.8437,2.0517c3.3477,1.1519,4.7168,2.8799,4.752,5.4356,0,3.3115-2.5567,5.7231-7.5957,5.7231a12.43913,12.43913,0,0,1-5.6875-1.2598Z"/><path class="cls-1" d="M168.29679,1.65569a40.17579,40.17579,0,0,1,6.66021-.54c4.5,0,7.70309,1.08011,9.82619,3.02341,2.1953,1.98,3.4551,4.78759,3.4551,8.711a12.9834,12.9834,0,0,1-3.49029,9.4311c-2.30471,2.2676-6.04691,3.4912-10.76371,3.4912a50.1604,50.1604,0,0,1-5.6875-.2876V1.65569Zm3.1329,21.45321a26.05028,26.05028,0,0,0,3.1679.144c6.7305,0,10.3301-3.7436,10.3301-10.2949,0.0352-5.7232-3.2031-9.3584-9.8262-9.3584a17.77626,17.77626,0,0,0-3.6718.3237V23.1089Z"/><path class="cls-1" d="M194.79289,3.2392a1.89008,1.89008,0,0,1-2.0156,1.9439,1.86239,1.86239,0,0,1-1.9082-1.9439,1.9293,1.9293,0,0,1,1.9805-1.97951A1.901,1.901,0,0,1,194.79289,3.2392Zm-3.5273,22.3174V8.13469h3.166V25.5566h-3.166Z"/><path class="cls-1" d="M213.69139,23.001c0,4.0312-.8281,6.4433-2.48439,7.9912a9.56915,9.56915,0,0,1-6.37111,2.0874,11.2419,11.2419,0,0,1-5.79489-1.44l0.793-2.4472a9.47892,9.47892,0,0,0,5.11129,1.4038c3.2383,0,5.6152-1.6919,5.6152-6.1197V22.5688h-0.0722a6.17505,6.17505,0,0,1-5.543,2.916c-4.32029,0-7.416-3.6718-7.416-8.49511,0-5.90329,3.8515-9.21479,7.8828-9.21479a5.81631,5.81631,0,0,1,5.4355,2.98779h0.0723l0.1074-2.628h2.8086c-0.1094,1.22421-.1445,2.66361-0.1445,4.75151V23.001Zm-3.168-7.99131a4.14292,4.14292,0,0,0-.1797-1.40379,4.52208,4.52208,0,0,0-4.42769-3.3833c-3.02351,0-5.18361,2.5557-5.18361,6.5869,0,3.42,1.7637,6.26319,5.1484,6.26319a4.56616,4.56616,0,0,0,4.3907-3.23919,5.52343,5.52343,0,0,0,.2519-1.6919V15.00969Z"/><path class="cls-1" d="M221.32419,3.2392a1.89014,1.89014,0,0,1-2.0156,1.9439,1.86232,1.86232,0,0,1-1.9082-1.9439,1.9304,1.9304,0,0,1,1.9804-1.97951A1.9,1.9,0,0,1,221.32419,3.2392Zm-3.5274,22.3174V8.13469h3.168V25.5566h-3.168Z"/><path class="cls-1" d="M229.13669,3.9594V8.13469h4.5351V10.5464h-4.5351v9.395c0,2.1597.61131,3.38329,2.375,3.38329a5.92166,5.92166,0,0,0,1.8359-.21579l0.1446,2.4116a8.63571,8.63571,0,0,1-2.8086.4321,4.52,4.52,0,0,1-3.42-1.332c-0.8632-.9717-1.22259-2.5195-1.22259-4.5713V10.5464h-2.70121V8.13469H226.041V4.895Z"/><path class="cls-1" d="M248.57419,21.3813a29.28726,29.28726,0,0,0,.2519,4.1753h-2.8437l-0.252-2.1958H245.623a6.491,6.491,0,0,1-5.32811,2.5918,4.96273,4.96273,0,0,1-5.3262-5.0034c0-4.2114,3.7422-6.5151,10.4746-6.479V14.1098c0-1.4038-.3965-4.0312-3.959-3.99511a8.39717,8.39717,0,0,0-4.5722,1.29591l-0.7207-2.124a11.28806,11.28806,0,0,1,5.7597-1.5117c5.3282,0,6.6231,3.6357,6.6231,7.0913v6.5151Zm-3.0586-4.7158c-3.457-.07181-7.3789.54-7.3789,3.9238a2.77492,2.77492,0,0,0,2.9512,3.0235,4.39849,4.39849,0,0,0,4.2832-2.9156,3.59767,3.59767,0,0,0,.1445-1.0078V16.6655Z"/><path class="cls-1" d="M256.31639,3.2392a1.89014,1.89014,0,0,1-2.0156,1.9439,1.8624,1.8624,0,0,1-1.9083-1.9439A1.92936,1.92936,0,0,1,254.373,1.25969,1.90111,1.90111,0,0,1,256.31639,3.2392ZM252.789,25.5566V8.13469h3.166V25.5566h-3.166Z"/><path class="cls-1" d="M259.87889,22.353a8.95256,8.95256,0,0,0,4.2129,1.2236c2.2675,0,3.3476-1.1157,3.3476-2.5913,0-1.5117-.90039-2.3037-3.2051-3.1679-3.166-1.1519-4.6425-2.8433-4.6425-4.9312,0-2.8076,2.3047-5.1113,6.0117-5.1113a8.08114,8.08114,0,0,1,4.2461,1.0796l-0.7559,2.3037a6.7484,6.7484,0,0,0-3.5625-1.04351c-1.8711,0-2.8789,1.07961-2.8789,2.37551,0,1.44,1.0078,2.0879,3.2754,2.9878,2.98631,1.11569,4.57031,2.6274,4.57031,5.2192,0,3.0957-2.41211,5.2554-6.47851,5.2554a9.93445,9.93445,0,0,1-4.89649-1.2241Z"/></svg>