<svg id="Layer_1" data-name="Layer 1" xmlns="http://www.w3.org/2000/svg" viewBox="0 0 624.12595 218.67708"><defs><style>.cls-1{fill:#676767;}.cls-2{fill:#72be53;}.cls-3{fill:#4ec2e1;}.cls-4{fill:#faaf1a;}.cls-5{fill:#218bcb;}</style></defs><title>logo-scup</title><path class="cls-1" d="M1.83231,133.14985l2.44929-3.06068c2.75461-3.6743,6.12135-3.98037,10.407-1.22427a66.59244,66.59244,0,0,0,40.71,14.07911c17.14128,0,31.22113-8.56989,31.22113-24.793,0-34.58862-82.33815-24.18083-82.33815-74.99253C4.28159,14.692,28.46243,0,56.62289,0,78.66124,0,92.43578,7.9585,98.8632,12.54952c3.97963,2.44854,4.59176,6.1221,2.14322,10.101L98.8632,26.018c-2.44854,4.28495-6.12135,4.591-10.407,2.14247-5.81528-3.97963-16.83446-9.79491-33.05754-9.79491S25.09568,25.4051,25.09568,42.24031c0,35.50683,82.03209,24.18083,82.03209,75.60467,0,25.4051-21.42622,43.46458-52.03522,43.46458-26.93619,0-44.38353-11.3245-52.03522-17.75341C-.61623,140.80154-.9223,137.12873,1.83231,133.14985Z"/><path class="cls-1" d="M213.652,0c26.32331,0,43.46458,11.32525,51.117,17.44735,3.67281,2.75461,3.97888,6.42742.9182,10.407l-2.14247,3.36674c-2.75535,4.28569-6.1221,4.28569-10.407,1.53034-6.73423-5.20315-20.202-14.07986-38.87357-14.07986-33.67042,0-59.99373,25.4051-59.99373,62.1362,0,36.425,26.32331,61.83013,60.29979,61.83013,21.42622,0,36.11822-10.10023,43.46458-16.22308q5.96944-4.591,10.101,1.8379l2.14247,3.06068c2.44929,3.97888,1.53108,7.34562-1.83641,10.4063A85.51284,85.51284,0,0,1,213.652,161.30956c-45.91387,0-80.80856-32.75073-80.80856-80.50175C132.84342,33.36361,168.04418,0,213.652,0Z"/><path class="cls-1" d="M304.25919,11.32525c0-4.89708,2.44854-7.65244,7.34637-7.65244h5.81528c4.89857,0,7.65318,2.75535,7.65318,7.65244V96.11269c0,24.18083,3.67281,45.60706,33.36286,45.60706,35.20076,0,56.93305-30.91432,56.93305-64.27867V11.32525c0-4.89708,2.75461-7.65244,7.65318-7.65244h5.81528c4.89708,0,7.34562,2.75535,7.34562,7.65244V149.98506c0,4.89708-2.44854,7.65169-7.34562,7.65169h-5.50922c-4.89857,0-7.34712-2.75461-7.34712-7.65169V132.23165a66.57732,66.57732,0,0,1,.9182-11.01993h-.61214c-5.81528,14.99881-26.62937,40.09784-60.60586,40.09784-36.425,0-51.42309-19.58982-51.42309-59.68766Z"/><path class="cls-1" d="M483.93654,11.32525c0-4.89708,2.44854-7.65244,7.34712-7.65244h4.89708c4.89708,0,7.34562,2.75535,7.34562,7.0403V21.73229a54.80831,54.80831,0,0,1-.9182,10.407h.61214S516.38269,0,557.09267,0c41.32211,0,67.03328,33.05754,67.03328,80.80782,0,48.66923-29.07791,80.50175-69.17575,80.50175-37.34323,0-50.8117-31.22039-50.8117-31.22039h-.61214a68.45652,68.45652,0,0,1,1.22427,13.467v67.64691c0,4.89708-2.75461,7.65169-7.65169,7.65169h-5.81528c-4.89857,0-7.34712-2.75461-7.34712-7.65169Zm68.87118,131.3127c27.54758,0,49.892-22.65049,49.892-61.83013,0-37.6493-20.202-61.83013-48.66773-61.83013-25.71266,0-49.8935,18.36555-49.8935,62.1362C504.13849,112.0297,521.27977,142.63795,552.80772,142.63795Z"/><path class="cls-2" d="M426.04647,218.67708H333.96641a10.70191,10.70191,0,0,1,0-21.40383h92.08006a10.70191,10.70191,0,1,1,0,21.40383Z"/><path class="cls-3" d="M333.96641,218.67708H184.33817a10.70191,10.70191,0,0,1,0-21.40383H333.96641a10.70191,10.70191,0,1,1,0,21.40383Z"/><path class="cls-4" d="M604.572,218.67708H564.92063a10.70191,10.70191,0,0,1,0-21.40383H604.572a10.70191,10.70191,0,1,1,0,21.40383Z"/><path class="cls-5" d="M181.7463,218.67708H10.20139a10.70191,10.70191,0,0,1,0-21.40383H181.7463a10.70191,10.70191,0,0,1,0,21.40383Z"/></svg>