<svg id="Layer_1" data-name="Layer 1" xmlns="http://www.w3.org/2000/svg" viewBox="0 0 954 635"><defs><style>.cls-1{fill:#720049;}.cls-2{fill:#fff;}.cls-3{fill:#374049;}.cls-4{fill:#e4e4e2;}.cls-5{fill:#cfcbca;}.cls-6{fill:#bab6b5;}.cls-11,.cls-7{fill:#4464a2;}.cls-8{fill:#d5d5d5;}.cls-9{fill:#cedaef;}.cls-11,.cls-13,.cls-9{fill-rule:evenodd;}.cls-10,.cls-12{fill:none;stroke-width:1.41732px;}.cls-10{stroke:#4464a2;}.cls-10,.cls-12,.cls-13{stroke-miterlimit:10;}.cls-12{stroke:#babcbe;}.cls-13{fill:#babcbe;stroke:#fefefe;stroke-width:0.22677px;}.cls-14{fill:#64cbcc;}.cls-15{fill:#c23e4b;}</style></defs><title>quiz_content</title><path class="cls-1" d="M175.7282,569.682c-3.49981,0-7.03781-.13273-10.51661-.39391a2.93365,2.93365,0,0,1,.43927-5.85084c3.33365.25067,6.72459.37767,10.0783.37767h.01814q.689,0,1.376-.00716h.03056a2.93361,2.93361,0,0,1,.02865,5.86707C176.6984,569.67957,176.22189,569.67241,175.7282,569.682Zm17.01679-1.05376a2.93392,2.93392,0,0,1-.36-5.84511c3.78628-.47269,7.59167-1.11631,11.31015-1.9132a2.93378,2.93378,0,0,1,1.22995,5.7372c-3.88464.83222-7.859,1.50449-11.81244,1.99818A2.99205,2.99205,0,0,1,192.745,568.62819Zm-42.80554-1.39706a2.93971,2.93971,0,0,1-.55768-.05348c-3.90851-.752-7.8304-1.685-11.65488-2.77263a2.9336,2.9336,0,1,1,1.60428-5.64362c3.66214,1.04135,7.41692,1.93468,11.16023,2.65517a2.93374,2.93374,0,0,1-.55195,5.81455Zm69.44991-4.71447a2.93408,2.93408,0,0,1-.94251-5.71237c3.60676-1.22422,7.20683-2.62271,10.699-4.15727a2.93364,2.93364,0,0,1,2.36058,5.37146c-3.64782,1.60237-7.40737,3.0634-11.17455,4.34157A2.92913,2.92913,0,0,1,219.38935,562.51666Zm-95.62445-3.14028a2.92971,2.92971,0,0,1-1.123-.22489c-3.67265-1.52311-7.32429-3.22717-10.85465-5.06445a2.93385,2.93385,0,0,1,2.71008-5.20435c3.37949,1.75945,6.87547,3.39094,10.39247,4.8496a2.934,2.934,0,0,1-1.1249,5.64409Zm120.49265-8.21953a2.93377,2.93377,0,0,1-1.48491-5.46552c3.28972-1.92609,6.53456-4.01976,9.64476-6.22182a2.9333,2.9333,0,1,1,3.39,4.788c-3.24675,2.29946-6.63579,4.48529-10.07066,6.49684A2.92128,2.92128,0,0,1,244.25756,551.15685Zm22.077-16.111a2.934,2.934,0,0,1-1.95951-5.11793c2.84-2.54536,5.60256-5.244,8.21046-8.02043a2.93364,2.93364,0,0,1,4.27616,4.01738c-2.7225,2.89773-5.60542,5.71476-8.57047,8.37184A2.922,2.922,0,0,1,266.33451,535.04581ZM284.755,514.86248a2.93379,2.93379,0,0,1-2.352-4.68439c2.27368-3.05672,4.44232-6.25047,6.44576-9.49245a2.9331,2.9331,0,1,1,4.99045,3.08346c-2.09129,3.38474-4.35447,6.71934-6.72841,9.91071A2.929,2.929,0,0,1,284.755,514.86248Zm14.01832-23.44632a2.93422,2.93422,0,0,1-2.6547-4.1778c1.61287-3.44681,3.09587-7.00868,4.40794-10.58679a2.93315,2.93315,0,1,1,5.508,2.01872c-1.36841,3.73663-2.9173,7.45607-4.60275,11.05566A2.93332,2.93332,0,0,1,298.77337,491.41616ZM49.21282,483.23149a2.93515,2.93515,0,0,1-2.734-1.86831c-1.44671-3.708-2.74732-7.52387-3.86459-11.34262a2.93327,2.93327,0,1,1,5.63025-1.6482c1.07047,3.65546,2.3157,7.30853,3.70034,10.85847a2.93529,2.93529,0,0,1-2.732,4.00067Zm258.58365-17.60312a2.93614,2.93614,0,0,1-2.85619-3.61678c.88713-3.70607,1.62147-7.49474,2.18392-11.26193a2.93314,2.93314,0,1,1,5.80213.86516c-.58632,3.9343-1.35313,7.892-2.27941,11.76231A2.93563,2.93563,0,0,1,307.79647,465.62837Zm-265.885-8.72946a2.93344,2.93344,0,0,1-2.8877-2.44079c-.66845-3.91711-1.1736-7.91539-1.5021-11.88359a2.93355,2.93355,0,1,1,5.847-.4851c.31417,3.80109.79832,7.63082,1.43812,11.38225a2.93382,2.93382,0,0,1-2.39878,3.38522A2.97117,2.97117,0,0,1,41.91145,456.8989ZM311.44238,438.549q-.05013,0-.10027-.00143a2.93373,2.93373,0,0,1-2.83327-3.03046c.04966-1.49064.07544-3.019.07639-4.54259,0-3.82257-.16425-7.68-.488-11.46246a2.93372,2.93372,0,1,1,5.84606-.50038c.338,3.94814.509,7.97364.509,11.96475-.001,1.589-.02769,3.18229-.08021,4.73739A2.93282,2.93282,0,0,1,311.44238,438.549Zm-2.649-31.82532a2.9349,2.9349,0,0,1-2.87242-2.35007c-.7563-3.72756-1.68927-7.4723-2.77024-11.13158a2.93346,2.93346,0,1,1,5.62643-1.66253c1.12968,3.82114,2.10275,7.733,2.89438,11.62623a2.93664,2.93664,0,0,1-2.87815,3.51795ZM300.666,380.62986a2.9334,2.9334,0,0,1-2.69862-1.78237c-1.49733-3.507-3.16654-6.98863-4.96275-10.349a2.93387,2.93387,0,0,1,5.1757-2.76451c1.87452,3.50983,3.61822,7.14667,5.18239,10.80929a2.93608,2.93608,0,0,1-2.69671,4.08661Zm-13.2181-23.92617a2.92884,2.92884,0,0,1-2.41405-1.26385c-2.16673-3.12786-4.49961-6.20511-6.93468-9.14677a2.93329,2.93329,0,1,1,4.51871-3.7414c2.542,3.07009,4.97708,6.28246,7.23834,9.54783a2.93388,2.93388,0,0,1-2.40833,4.60418ZM66.52087,353.24877a2.93325,2.93325,0,0,1-2.35676-4.67771c2.36344-3.19566,4.89782-6.33021,7.53151-9.31626a2.93389,2.93389,0,0,1,4.4003,3.88178c-2.52387,2.86-4.95034,5.8623-7.21447,8.92284A2.92983,2.92983,0,0,1,66.52087,353.24877ZM269.713,335.90683a2.92692,2.92692,0,0,1-2.03113-.81646c-2.75114-2.63942-5.64935-5.18955-8.61439-7.58021a2.93342,2.93342,0,0,1,3.6822-4.56741c3.09587,2.4957,6.122,5.15851,8.99445,7.91348a2.93377,2.93377,0,0,1-2.03113,5.05061ZM84.89366,333.01674a2.93331,2.93331,0,0,1-1.96524-5.1122c2.95072-2.6609,6.059-5.2287,9.237-7.63177a2.93375,2.93375,0,0,1,3.539,4.6801c-3.04431,2.30137-6.02081,4.76079-8.8474,7.309A2.92241,2.92241,0,0,1,84.89366,333.01674Zm163.30106-13.95291a2.92365,2.92365,0,0,1-1.56512-.45455c-3.22192-2.03734-6.5699-3.95674-9.95129-5.70425a2.93372,2.93372,0,0,1,2.6948-5.212c3.53036,1.82534,7.02731,3.82973,10.39247,5.95731a2.93387,2.93387,0,0,1-1.57085,5.41348Zm-141.26517-2.21638a2.93388,2.93388,0,0,1-1.4916-5.4617c3.43392-2.02253,6.99388-3.91711,10.58154-5.6312a2.9335,2.9335,0,1,1,2.52865,5.29411c-3.43487,1.641-6.844,3.4554-10.13273,5.39247A2.91609,2.91609,0,0,1,106.92955,316.84744Zm116.81618-9.97994a2.91463,2.91463,0,0,1-1.0361-.19051c-3.56283-1.34692-7.22975-2.55347-10.89762-3.58575a2.93336,2.93336,0,0,1,1.589-5.64744c3.83212,1.07811,7.66138,2.33814,11.38273,3.74522a2.934,2.934,0,0,1-1.038,5.67847Zm-91.98427-1.44528a2.93392,2.93392,0,0,1-.9492-5.71c3.76432-1.2882,7.63177-2.42647,11.49445-3.38283a2.9335,2.9335,0,1,1,1.40947,5.69518c-3.69748.91577-7.39973,2.00535-11.00553,3.23863A2.92055,2.92055,0,0,1,131.76146,305.42222Zm65.5815-5.57582a2.93945,2.93945,0,0,1-.467-.03724c-3.75764-.60017-7.59167-1.04421-11.39705-1.31971a2.93357,2.93357,0,0,1,.424-5.85179c3.97154.28743,7.97555.751,11.89934,1.378a2.93377,2.93377,0,0,1-.45932,5.83078Zm-38.9696-.60781a2.93393,2.93393,0,0,1-.36765-5.84415c3.941-.50229,7.95645-.84034,11.93563-1.00458a2.93362,2.93362,0,0,1,.24064,5.8623c-3.81207.15709-7.65851.48081-11.43334.96257A3.02376,3.02376,0,0,1,158.37336,299.2386Z"/><path class="cls-1" d="M720.09753,452.13382c-1.74847,0-3.52845-.02244-5.29029-.06732a2.93353,2.93353,0,0,1,.07353-5.86611c.02483,0,.04966.00048.07544.001,1.73033.04393,3.48357.08117,5.19289.06541,2.1228,0,4.26661-.03342,6.37032-.09884a2.93354,2.93354,0,0,1,.18335,5.8642c-2.16577.06732-4.36974.1017-6.55271.1017ZM699.283,451.08054c-.09931,0-.19862-.00477-.29985-.0148-3.93334-.39868-7.902-.91625-11.79621-1.53886a2.93356,2.93356,0,0,1,.92628-5.79354c3.78342.60495,7.63941,1.10771,11.462,1.49494a2.93365,2.93365,0,0,1-.29221,5.85227Zm42.923-.12366a2.93359,2.93359,0,0,1-.3094-5.85036c3.81684-.40919,7.67-.93487,11.45435-1.56226a2.93334,2.93334,0,1,1,.95875,5.78781c-3.89324.64553-7.859,1.1865-11.78666,1.6081A2.964,2.964,0,0,1,742.206,450.95687Zm-69.88918-4.45044a2.956,2.956,0,0,1-.68659-.08117c-3.84072-.9215-7.70435-1.96715-11.48395-3.10781a2.93367,2.93367,0,0,1,1.69595-5.61688c3.67169,1.10819,7.42551,2.12423,11.15736,3.019a2.934,2.934,0,0,1-.68277,5.78686Zm96.8267-.28218a2.9338,2.9338,0,0,1-.699-5.78256c3.72421-.91625,7.4723-1.95426,11.14017-3.08489a2.93338,2.93338,0,1,1,1.72842,5.60637c-3.77483,1.16406-7.63273,2.23214-11.46676,3.17561A2.94153,2.94153,0,0,1,769.14352,446.22426Zm-122.93535-7.87385a2.9211,2.9211,0,0,1-1.06092-.20006c-3.6736-1.42666-7.3558-2.97937-10.94251-4.61516a2.93361,2.93361,0,0,1,2.43506-5.338c3.48453,1.58948,7.06168,3.09778,10.6312,4.48434a2.934,2.934,0,0,1-1.06283,5.66892Zm149.01154-.44213a2.93414,2.93414,0,0,1-1.07907-5.66272c3.57907-1.41425,7.15909-2.94977,10.64075-4.56455a2.93345,2.93345,0,1,1,2.46753,5.32276c-3.58289,1.662-7.26795,3.24245-10.95205,4.69824A2.92807,2.92807,0,0,1,795.21971,437.90828ZM621.46124,426.77383a2.92038,2.92038,0,0,1-1.4152-.36621c-3.44633-1.90317-6.8898-3.93669-10.2349-6.04278a2.93353,2.93353,0,1,1,3.12643-4.96466c3.24962,2.04689,6.59568,4.02215,9.94461,5.87184a2.93382,2.93382,0,0,1-1.42093,5.50181Zm198.49011-.61879a2.93393,2.93393,0,0,1-1.43716-5.49322c3.35084-1.87786,6.69022-3.87843,9.92646-5.94585a2.93376,2.93376,0,1,1,3.1589,4.94461c-3.33078,2.12758-6.76757,4.1864-10.21676,6.11965A2.92339,2.92339,0,0,1,819.95135,426.155Zm-221.48-14.1692a2.92105,2.92105,0,0,1-1.74656-.57773c-3.16845-2.351-6.31207-4.8262-9.343-7.35628a2.93328,2.93328,0,0,1,3.75859-4.50439c2.9469,2.45894,6.00171,4.8644,9.08135,7.14906a2.93371,2.93371,0,0,1-1.75038,5.28934Zm244.40394-.78256a2.93371,2.93371,0,0,1-1.76566-5.27788c3.06627-2.30615,6.10867-4.73309,9.04316-7.21352a2.93335,2.93335,0,1,1,3.78724,4.48052c-3.01852,2.552-6.14877,5.04917-9.3029,7.42169A2.92448,2.92448,0,0,1,842.87532,411.20327ZM577.64539,394.26335a2.92347,2.92347,0,0,1-2.04545-.83079c-2.83327-2.75687-5.62165-5.62834-8.28781-8.53609a2.93343,2.93343,0,0,1,4.32391-3.96533c2.59167,2.82563,5.3008,5.61688,8.05481,8.29593a2.93353,2.93353,0,0,1-2.04545,5.03628Zm285.95185-.92389a2.93377,2.93377,0,0,1-2.05882-5.02339c2.73586-2.69528,5.4278-5.50324,8.00133-8.34558a2.93312,2.93312,0,1,1,4.34874,3.93716c-2.648,2.92542-5.4173,5.81455-8.23242,8.58813A2.92305,2.92305,0,0,1,863.59723,393.33946ZM559.3509,373.92628a2.92792,2.92792,0,0,1-2.30806-1.12061c-2.43984-3.10447-4.82333-6.323-7.0846-9.56646a2.93358,2.93358,0,0,1,4.81283-3.35561c2.19729,3.15221,4.51394,6.28008,6.88407,9.29621a2.93348,2.93348,0,0,1-2.30424,4.74646Zm322.40617-1.03657a2.93356,2.93356,0,0,1-2.31665-4.73118c2.35771-3.04049,4.65145-6.17885,6.81627-9.32868a2.93376,2.93376,0,0,1,4.83575,3.32314c-2.2288,3.24245-4.58938,6.47249-7.01489,9.60083A2.93042,2.93042,0,0,1,881.75707,372.8897ZM543.91642,351.32841a2.93283,2.93283,0,0,1-2.53056-1.44528c-2.0063-3.4067-3.94-6.91653-5.74675-10.43257a2.9332,2.9332,0,1,1,5.21772-2.68143c1.75611,3.41577,3.63445,6.82629,5.58441,10.13655a2.93429,2.93429,0,0,1-2.52483,4.42274Zm-12.28036-24.46713a2.93382,2.93382,0,0,1-2.70531-1.79813c-1.53361-3.65021-2.97937-7.39113-4.29717-11.11869a2.93326,2.93326,0,1,1,5.53094-1.95569c1.28056,3.62108,2.68525,7.25553,4.17494,10.80165a2.93574,2.93574,0,0,1-2.7034,4.07085ZM522.7562,300.968a2.93574,2.93574,0,0,1-2.83136-2.17294c-1.02464-3.8135-1.95283-7.70721-2.75687-11.57323a2.93387,2.93387,0,0,1,5.74484-1.19461c.78113,3.7562,1.68163,7.53962,2.67857,11.24474a2.93718,2.93718,0,0,1-2.83518,3.696Zm-5.3113-26.82771a2.93432,2.93432,0,0,1-2.90584-2.55825c-.5042-3.9047-.90241-7.88722-1.18315-11.83727a2.93329,2.93329,0,1,1,5.85179-.41635c.27311,3.83833.65985,7.70817,1.15069,11.50209a2.93817,2.93817,0,0,1-2.91348,3.30978Zm405.56119-1.20512a2.99342,2.99342,0,0,1-.36192-.02244,2.93342,2.93342,0,0,1-2.55347-3.26967c.467-3.80156.83174-7.67379,1.081-11.50878a2.93355,2.93355,0,1,1,5.85466.382c-.25688,3.94623-.63121,7.93067-1.11249,11.843A2.934,2.934,0,0,1,923.00609,272.93514Zm1.53361-25.19144a2.93337,2.93337,0,0,1-2.93353-2.93353c0-3.85074-.10982-7.73873-.32563-11.557a2.93344,2.93344,0,1,1,5.85752-.33136c.2225,3.92761.33518,7.9278.33518,11.88836A2.93337,2.93337,0,0,1,924.5397,247.7437Zm-408.77929-.9H515.748a2.93411,2.93411,0,0,1-2.92112-2.94643c.01719-3.962.148-7.96266.3877-11.89027a2.93325,2.93325,0,1,1,5.85561.35714c-.233,3.8178-.35905,7.70674-.37624,11.55891A2.9331,2.9331,0,0,1,515.76041,246.84368Zm406.96971-26.387a2.93424,2.93424,0,0,1-2.90393-2.54631c-.508-3.80825-1.1335-7.64658-1.85829-11.40851a2.93395,2.93395,0,0,1,5.762-1.10962c.7458,3.87175,1.38846,7.82276,1.91176,11.74273a2.93721,2.93721,0,0,1-2.91157,3.32171Zm-405.0398-.89524a2.9377,2.9377,0,0,1-2.90966-3.33556c.54144-3.91615,1.20225-7.86382,1.96428-11.73271a2.93351,2.93351,0,1,1,5.7563,1.13445c-.741,3.75907-1.38273,7.595-1.9089,11.40135A2.93368,2.93368,0,0,1,517.69031,219.56142Zm399.613-25.90859a2.93509,2.93509,0,0,1-2.82754-2.16c-1.01222-3.69652-2.14668-7.41644-3.3728-11.0571a2.93324,2.93324,0,1,1,5.55958-1.87261c1.26241,3.74665,2.43029,7.57543,3.47211,11.38082a2.93676,2.93676,0,0,1-2.83136,3.70894Zm-394.06674-.87089a2.93611,2.93611,0,0,1-2.82754-3.72135c1.06-3.80825,2.245-7.63225,3.52177-11.366a2.93385,2.93385,0,0,1,5.55194,1.89887c-1.24045,3.62681-2.39209,7.34148-3.42246,11.04086A2.93439,2.93439,0,0,1,523.23653,192.78193Zm9.089-25.77777a2.93549,2.93549,0,0,1-2.69385-4.09377c1.55462-3.6144,3.24007-7.2393,5.00859-10.773a2.93345,2.93345,0,0,1,5.24637,2.626c-1.71791,3.433-3.35466,6.95425-4.86535,10.46552A2.93447,2.93447,0,0,1,532.32552,167.00416ZM880.3963,120.85638a2.92641,2.92641,0,0,1-2.30042-1.11106c-2.38063-3.00277-4.88445-5.98166-7.44174-8.8536a2.9334,2.9334,0,0,1,4.3812-3.90183c2.63178,2.9555,5.20817,6.02081,7.65756,9.11048a2.9335,2.9335,0,0,1-2.2966,4.756Zm-18.389-20.25829a2.92172,2.92172,0,0,1-2.0359-.82171c-2.76451-2.6652-5.64075-5.28456-8.54755-7.78409a2.93357,2.93357,0,0,1,3.82544-4.44853c2.99083,2.5721,5.95015,5.2669,8.79392,8.009a2.93354,2.93354,0,0,1-2.0359,5.04536ZM841.09916,82.96632a2.92136,2.92136,0,0,1-1.73606-.57009c-3.09014-2.27225-6.28628-4.48481-9.49961-6.57515a2.93339,2.93339,0,1,1,3.199-4.91787c3.30691,2.15145,6.59568,4.42752,9.77654,6.76613a2.93356,2.93356,0,0,1-1.73988,5.297Zm-241.25937-.467a2.93351,2.93351,0,0,1-1.73128-5.30366c3.199-2.33241,6.50114-4.59893,9.81569-6.737a2.93341,2.93341,0,0,1,3.17991,4.93029c-3.221,2.07744-6.43048,4.28046-9.53876,6.547A2.91863,2.91863,0,0,1,599.83979,82.49936ZM818.04245,68.27955a2.91222,2.91222,0,0,1-1.40374-.36c-3.36134-1.8368-6.821-3.60151-10.28552-5.24446a2.93364,2.93364,0,1,1,2.51528-5.3008c3.56474,1.6907,7.12566,3.50649,10.58345,5.39725a2.93358,2.93358,0,0,1-1.40947,5.508Zm-195.06192-.393a2.93415,2.93415,0,0,1-1.39992-5.51375c3.47975-1.88359,7.05786-3.68984,10.635-5.36764a2.9335,2.9335,0,0,1,2.49236,5.3113c-3.47593,1.63054-6.95282,3.38569-10.33326,5.21581A2.9231,2.9231,0,0,1,622.98053,67.88659ZM793.24492,56.81326a2.92832,2.92832,0,0,1-1.04851-.19528c-3.58193-1.37175-7.25267-2.65756-10.90813-3.82066a2.93351,2.93351,0,0,1,1.77807-5.5911c3.76337,1.19748,7.54106,2.52053,11.229,3.93287a2.93424,2.93424,0,0,1-1.05042,5.67417Zm-145.36658-.31274a2.93436,2.93436,0,0,1-1.039-5.67847c3.70321-1.4004,7.49522-2.7096,11.27-3.8918a2.93342,2.93342,0,1,1,1.75325,5.59874c-3.66692,1.1483-7.351,2.42074-10.94728,3.781A2.93416,2.93416,0,0,1,647.87834,56.50052Zm26.19555-7.9321a2.93364,2.93364,0,0,1-.65508-5.79259c3.85313-.8876,7.77883-1.673,11.66538-2.33527a2.93367,2.93367,0,0,1,.98548,5.784c-3.77674.64314-7.58976,1.40661-11.335,2.26843A2.93287,2.93287,0,0,1,674.07388,48.56843Zm27.00151-4.3368A2.93356,2.93356,0,0,1,700.809,38.377c3.92475-.36287,7.91825-.61832,11.86974-.75821a2.93347,2.93347,0,0,1,.20817,5.86325c-3.84167.13655-7.72345.38436-11.53742.7372C701.25778,44.22781,701.16611,44.23163,701.07539,44.23163Z"/><rect class="cls-2" x="199.6498" y="209.53763" width="610.20676" height="401.23382" rx="9.64844" ry="9.64844"/><path class="cls-3" d="M792.58656,232.2291V601.61527H216.9198V232.2291H792.58656m19.21513-33.10084h-614.097A13.88584,13.88584,0,0,0,183.819,213.014V607.29511a13.88584,13.88584,0,0,0,13.88571,13.88571h614.097a13.88584,13.88584,0,0,0,13.88571-13.88571V213.014a13.88584,13.88584,0,0,0-13.88571-13.88571Z"/><path class="cls-4" d="M95.40918,588.14744h818.958a3.42692,3.42692,0,0,1,3.42692,3.42692V602.095a0,0,0,0,1,0,0H91.71228a0,0,0,0,1,0,0V591.84434A3.6969,3.6969,0,0,1,95.40918,588.14744Z"/><path class="cls-5" d="M811.48771,628H197.37444a131.58207,131.58207,0,0,1-37.80983-5.5493L91.71228,602.095h826.0818l-67.23529,20.17059A135.97133,135.97133,0,0,1,811.48771,628Z"/><rect class="cls-6" x="448.62567" y="588.14744" width="112.25502" height="13.94755"/><rect class="cls-7" x="216.9198" y="232.2291" width="575.66676" height="42.97094"/><rect class="cls-8" x="299.36125" y="357.72076" width="421.77086" height="0.70802"/><rect class="cls-8" x="299.36125" y="400.43307" width="421.77086" height="0.75535"/><rect class="cls-8" x="299.36125" y="443.18825" width="421.77086" height="0.7095"/><rect class="cls-8" x="299.36125" y="485.90047" width="421.77086" height="0.75686"/><rect class="cls-8" x="299.36125" y="528.66163" width="421.77086" height="0.70651"/><path class="cls-9" d="M299.36125,486.28042v42.38121H721.13211V443.89775h-2.296c-86.26128,27.83056-120.81937-1.653-200.01673,26.69435-98.91187,35.38924-147.227-26.26925-219.45815,15.68832Z"/><path class="cls-10" d="M299.36125,486.65734c72.87766-43.42022,119.90534,19.56092,219.45815-16.06524,79.83536-28.58291,114.30986,1.656,202.31272-27.40385"/><path class="cls-11" d="M302.7635,479.38173A4.79545,4.79545,0,1,1,297.991,484.2a4.79638,4.79638,0,0,1,4.77249-4.8183Z"/><path class="cls-11" d="M569.05871,453.58339a4.797,4.797,0,1,1,0,9.59387,4.797,4.797,0,0,1,0-9.59387Z"/><path class="cls-11" d="M443.9254,477.7015a4.77173,4.77173,0,1,1-4.77249,4.771,4.759,4.759,0,0,1,4.77249-4.771Z"/><path class="cls-11" d="M721.18364,437.94927a4.77247,4.77247,0,1,1-4.77841,4.7695,4.79844,4.79844,0,0,1,4.77841-4.7695Z"/><path class="cls-12" d="M299.36125,428.87234c51.91907,29.72376,360.67673,39.41579,421.77086-70.44351"/><path class="cls-13" d="M302.7635,426.181a4.79546,4.79546,0,1,1-4.77249,4.771,4.75631,4.75631,0,0,1,4.77249-4.771Z"/><path class="cls-13" d="M443.94906,443.82289a4.79623,4.79623,0,0,1,0,9.59234,4.79623,4.79623,0,1,1,0-9.59234Z"/><path class="cls-13" d="M569.08389,433.17755c3.76408,0,6.48331,4.30793,3.504,8.2907-3.98421,2.95282-8.27492.24032-8.27492-3.51973a4.7567,4.7567,0,0,1,4.771-4.771Z"/><path class="cls-13" d="M721.13136,353.6571c3.76408,0,6.48331,4.30793,3.504,8.2907-3.98421,2.95282-8.27492.24032-8.27492-3.51973a4.7567,4.7567,0,0,1,4.771-4.771Z"/><path class="cls-1" d="M768.16091,29.99681a21.12854,21.12854,0,1,0-37.05953,13.87h-.11658a21.02142,21.02142,0,0,1,4.83651,13.439c0,.276.00935.55042.014.82358h22.34406c.00461-.27335.014-.54762.014-.82358a21.01683,21.01683,0,0,1,4.7224-13.29519h-.07685A21.04442,21.04442,0,0,0,768.16091,29.99681Z"/><path class="cls-1" d="M735.82132,70.99866a4.23809,4.23809,0,0,0,4.22548,4.22562h2.02233v1.04631a2.55436,2.55436,0,0,0,2.54693,2.54683h4.78245a2.55433,2.55433,0,0,0,2.54693-2.54683V75.22428h2.02238a4.23812,4.23812,0,0,0,4.22548-4.22562V61.90508h-22.372Z"/><circle class="cls-14" cx="199.6498" cy="212.04767" r="151.53482"/><polygon class="cls-2" points="248.943 150.518 183.746 215.715 150.357 182.326 127.287 205.395 160.676 238.784 160.676 238.784 183.746 261.854 206.815 238.784 272.012 173.587 248.943 150.518"/><path class="cls-15" d="M883.52406,404.05375h-147.335a15.10113,15.10113,0,0,0-15.057,15.05685V566.4457a15.10113,15.10113,0,0,0,15.057,15.05685h43.7511l29.9164,30.08509,29.91635-30.08509h43.75115a15.10113,15.10113,0,0,0,15.057-15.05685V419.1106A15.10113,15.10113,0,0,0,883.52406,404.05375Z"/><path class="cls-2" d="M810.03458,460.26467s-29.9693-26.18491-46.68369,2.44692c-17.59854,30.14657,30.14239,67.717,46.68369,79.84562h-.35611c16.5413-12.12862,64.28233-49.699,46.68369-79.84562-16.71428-28.63183-46.68369-2.44692-46.68369-2.44692"/><path class="cls-1" d="M69.69351,393.30054a29.72676,29.72676,0,1,0-14.75779,25.674l11.21181.72977-.78676-10.94663A29.57749,29.57749,0,0,0,69.69351,393.30054Zm-44.05168,4.27953a4.27968,4.27968,0,1,1,4.27972-4.27953A4.27958,4.27958,0,0,1,25.64183,397.58007Zm14.33369,0a4.27968,4.27968,0,1,1,4.27972-4.27953A4.27958,4.27958,0,0,1,39.97553,397.58007Zm14.33369,0a4.27968,4.27968,0,1,1,4.27968-4.27953A4.27959,4.27959,0,0,1,54.30922,397.58007Z"/><path class="cls-1" d="M84.02685,559.50815h0a2.77044,2.77044,0,0,1-3.55337-1.62306L57.28309,496.36233a2.77044,2.77044,0,0,1,1.62306-3.55337h0a2.77044,2.77044,0,0,1,3.55337,1.62306l23.19038,61.52275A2.77044,2.77044,0,0,1,84.02685,559.50815Z"/><polygon class="cls-1" points="112.071 498.07 66.076 494.98 79.33 530.521 112.071 498.07"/><path class="cls-1" d="M917.29928,133.75618a15.82643,15.82643,0,0,0-2.88993.26923,20.68629,20.68629,0,0,0-38.27625,7.61572c-.07021-.00122-.13968-.00525-.21019-.00525a11.81117,11.81117,0,1,0,0,23.62234h41.37637a15.751,15.751,0,1,0,0-31.502Z"/><path class="cls-1" d="M942.37777,298.51932a3.00511,3.00511,0,0,0-1.87467-.65813H885.14416a3.005,3.005,0,0,0-1.87462.65813l29.554,19.3949Z"/><path class="cls-1" d="M912.82357,324.65306l-30.70393-20.1495v31.95861a3.03346,3.03346,0,0,0,3.02452,3.02454H940.5031a3.03346,3.03346,0,0,0,3.02454-3.02454V304.50357Z"/><path class="cls-1" d="M574.3019,105.71912a16.08282,16.08282,0,1,0-14.919,0,24.64641,24.64641,0,0,0-16.50223,29.26381h47.92349a24.64613,24.64613,0,0,0-16.50223-29.26381Z"/></svg>