<?xml version="1.0" encoding="utf-8"?>
<!-- Generator: Adobe Illustrator 19.1.0, SVG Export Plug-In . SVG Version: 6.00 Build 0)  -->
<svg version="1.1" id="Layer_1" xmlns="http://www.w3.org/2000/svg" xmlns:xlink="http://www.w3.org/1999/xlink" x="0px" y="0px"
	 viewBox="0 0 500 65" style="enable-background:new 0 0 500 65;" xml:space="preserve">
<style type="text/css">
	.st0{fill:#4F6D82;}
	.st1{fill:#696B6B;}
</style>
<g>
	<g>
		<path class="st0" d="M0,3c3.3-0.5,8.1-0.9,13.5-0.9c6.7,0,11.3,1,14.5,3.5c2.7,2.1,4.2,5.3,4.2,9.4c0,5.7-4.1,9.6-7.9,11v0.2
			c3.1,1.3,4.9,4.2,6,8.3c1.4,5.1,2.7,11,3.6,12.7H23.5c-0.7-1.3-1.8-4.9-3.1-10.4c-1.3-5.7-3.2-7.1-7.4-7.2h-3v17.6H0V3z M10,22.3
			h4c5.1,0,8.1-2.5,8.1-6.5c0-4.1-2.8-6.2-7.5-6.2c-2.5,0-3.9,0.1-4.6,0.3V22.3z"/>
		<path class="st0" d="M45.2,34.2c0.3,4.2,4.5,6.2,9.2,6.2c3.5,0,6.3-0.5,9-1.4l1.3,6.9c-3.3,1.4-7.4,2.1-11.8,2.1
			c-11,0-17.4-6.4-17.4-16.6C35.6,23.1,40.7,14,52,14c10.5,0,14.5,8.2,14.5,16.2c0,1.7-0.2,3.3-0.3,4H45.2z M57.2,27.3
			c0-2.5-1.1-6.6-5.7-6.6c-4.3,0-6,3.9-6.3,6.6H57.2z"/>
		<path class="st0" d="M70.9,38.5c1.9,1.1,5.7,2.4,8.7,2.4c3.1,0,4.3-1,4.3-2.7c0-1.7-1-2.5-4.7-3.8c-6.8-2.3-9.4-5.9-9.3-9.8
			c0-6.1,5.2-10.7,13.2-10.7c3.8,0,7.1,0.9,9.1,1.9l-1.7,7C89,22,86.2,21,83.4,21c-2.5,0-3.9,1-3.9,2.6c0,1.6,1.3,2.4,5.3,3.8
			c6.2,2.1,8.7,5.3,8.8,10c0,6.1-4.7,10.6-14,10.6c-4.3,0-8.1-1-10.5-2.3L70.9,38.5z"/>
		<path class="st0" d="M128.8,36.8c0,4.3,0.1,7.7,0.3,10.4h-8.8l-0.5-4.6h-0.2c-1.3,2-4.3,5.3-10.2,5.3C102.8,48,98,43.8,98,33.8
			V14.7h10.1v17.5c0,4.7,1.5,7.6,5.1,7.6c2.8,0,4.5-1.9,5.1-3.5c0.3-0.6,0.4-1.3,0.4-2.2V14.7h10.1V36.8z"/>
		<path class="st0" d="M135.3,0h10.1v47.2h-10.1V0z"/>
		<path class="st0" d="M163.2,5.9v8.8h7.3v7.5h-7.3v11.8c0,3.9,1,5.7,4,5.7c1.4,0,2.1-0.1,3-0.3l0.1,7.7c-1.3,0.5-3.7,0.9-6.5,0.9
			c-3.3,0-6-1.1-7.7-2.8c-1.9-1.9-2.8-5.1-2.8-9.6V22.2H149v-7.5h4.3V8.6L163.2,5.9z"/>
		<path class="st0" d="M201.8,39.4c0,3.1,0.1,6.1,0.5,7.9h-9.1l-0.6-3.3h-0.2c-2.1,2.6-5.5,4-9.3,4c-6.6,0-10.5-4.8-10.5-10
			c0-8.4,7.6-12.4,19.1-12.4v-0.4c0-1.8-0.9-4.3-5.9-4.3c-3.3,0-6.9,1.1-9,2.5l-1.9-6.5c2.3-1.3,6.7-2.9,12.6-2.9
			c10.8,0,14.2,6.4,14.2,14.1V39.4z M192,31.9c-5.3,0-9.4,1.3-9.4,5.1c0,2.6,1.7,3.9,4,3.9c2.5,0,4.6-1.7,5.3-3.7
			c0.1-0.5,0.2-1.1,0.2-1.7V31.9z"/>
		<path class="st0" d="M239.7,0v37.5c0,3.7,0.1,7.5,0.3,9.7h-9l-0.4-4.7h-0.2c-2,3.6-6,5.5-10.2,5.5c-7.7,0-13.9-6.6-13.9-16.7
			c-0.1-11,6.8-17.4,14.6-17.4c4.1,0,7.1,1.5,8.6,3.7h0.1V0H239.7z M229.6,28.5c0-0.5,0-1.3-0.1-1.9c-0.6-2.7-2.8-4.9-5.9-4.9
			c-4.7,0-7,4.1-7,9.2c0,5.5,2.7,9,6.9,9c2.9,0,5.3-2,5.9-4.9c0.1-0.7,0.2-1.5,0.2-2.3V28.5z"/>
		<path class="st0" d="M278.3,30.6c0,11.9-8.5,17.4-17.2,17.4c-9.5,0-16.8-6.3-16.8-16.8c0-10.6,6.9-17.3,17.4-17.3
			C271.6,13.9,278.3,20.8,278.3,30.6z M254.7,30.9c0,5.6,2.3,9.8,6.7,9.8c4,0,6.5-3.9,6.5-9.8c0-4.8-1.9-9.7-6.5-9.7
			C256.6,21.2,254.7,26.1,254.7,30.9z"/>
		<path class="st0" d="M282.8,38.5c1.9,1.1,5.7,2.4,8.7,2.4c3.1,0,4.3-1,4.3-2.7c0-1.7-1-2.5-4.7-3.8c-6.8-2.3-9.4-5.9-9.3-9.8
			c0-6.1,5.2-10.7,13.2-10.7c3.8,0,7.1,0.9,9.1,1.9l-1.7,7c-1.5-0.8-4.3-1.9-7.1-1.9c-2.5,0-3.9,1-3.9,2.6c0,1.6,1.3,2.4,5.3,3.8
			c6.2,2.1,8.7,5.3,8.8,10c0,6.1-4.7,10.6-14,10.6c-4.3,0-8.1-1-10.5-2.3L282.8,38.5z"/>
	</g>
	<g>
		<path class="st1" d="M311.1,3.1c3.5-0.6,7.7-1,12.3-1c8.3,0,14.2,2,18.2,5.6c4.1,3.7,6.4,8.8,6.4,16.1c0,7.3-2.3,13.3-6.5,17.4
			c-4.3,4.2-11.2,6.5-19.9,6.5c-4.2,0-7.6-0.2-10.5-0.5V3.1z M316.9,42.7c1.5,0.2,3.6,0.3,5.9,0.3c12.4,0,19.1-6.9,19.1-19
			c0.1-10.6-5.9-17.3-18.2-17.3c-3,0-5.3,0.3-6.8,0.6V42.7z"/>
		<path class="st1" d="M360.1,6c0,2-1.4,3.6-3.7,3.6c-2.1,0-3.5-1.6-3.5-3.6c0-2,1.5-3.7,3.7-3.7C358.6,2.3,360.1,3.9,360.1,6z
			 M353.5,47.2V15h5.9v32.2H353.5z"/>
		<path class="st1" d="M395,42.5c0,7.5-1.5,11.9-4.6,14.8c-3.2,2.9-7.7,3.9-11.8,3.9c-3.9,0-8.1-0.9-10.7-2.7l1.5-4.5
			c2.1,1.4,5.5,2.6,9.4,2.6c6,0,10.4-3.1,10.4-11.3v-3.5h-0.1c-1.7,3-5.3,5.4-10.2,5.4c-8,0-13.7-6.8-13.7-15.7
			c0-10.9,7.1-17,14.6-17c5.6,0,8.6,2.9,10,5.5h0.1l0.2-4.9h5.2c-0.2,2.3-0.3,4.9-0.3,8.8V42.5z M389.1,27.7c0-1-0.1-1.9-0.3-2.6
			c-1.1-3.5-3.9-6.3-8.2-6.3c-5.6,0-9.6,4.7-9.6,12.2c0,6.3,3.3,11.6,9.5,11.6c3.7,0,6.9-2.3,8.1-6c0.3-1,0.5-2.1,0.5-3.1V27.7z"/>
		<path class="st1" d="M409.1,6c0,2-1.4,3.6-3.7,3.6c-2.1,0-3.5-1.6-3.5-3.6c0-2,1.5-3.7,3.7-3.7C407.6,2.3,409.1,3.9,409.1,6z
			 M402.6,47.2V15h5.9v32.2H402.6z"/>
		<path class="st1" d="M423.5,7.3V15h8.4v4.5h-8.4v17.4c0,4,1.1,6.3,4.4,6.3c1.6,0,2.5-0.1,3.4-0.4l0.3,4.5
			c-1.1,0.4-2.9,0.8-5.2,0.8c-2.7,0-4.9-0.9-6.3-2.5c-1.6-1.8-2.3-4.7-2.3-8.4V19.5h-5V15h5V9L423.5,7.3z"/>
		<path class="st1" d="M459.5,39.5c0,2.8,0.1,5.5,0.5,7.7h-5.3l-0.5-4.1H454c-1.8,2.5-5.3,4.8-9.8,4.8c-6.5,0-9.8-4.6-9.8-9.2
			c0-7.8,6.9-12,19.4-12v-0.7c0-2.6-0.7-7.5-7.3-7.4c-3.1,0-6.2,0.9-8.5,2.4l-1.3-3.9c2.7-1.7,6.6-2.8,10.6-2.8
			c9.8,0,12.2,6.7,12.2,13.1V39.5z M453.8,30.8c-6.4-0.1-13.6,1-13.6,7.3c0,3.9,2.5,5.6,5.5,5.6c4.3,0,7-2.7,7.9-5.4
			c0.2-0.7,0.3-1.3,0.3-1.9V30.8z"/>
		<path class="st1" d="M473.8,6c0,2-1.4,3.6-3.7,3.6c-2.1,0-3.5-1.6-3.5-3.6c0-2,1.5-3.7,3.7-3.7C472.3,2.3,473.8,3.9,473.8,6z
			 M467.3,47.2V15h5.9v32.2H467.3z"/>
		<path class="st1" d="M480.4,41.3c1.8,1.1,4.9,2.3,7.8,2.3c4.2,0,6.2-2.1,6.2-4.8c0-2.8-1.7-4.3-5.9-5.9c-5.9-2.1-8.6-5.3-8.6-9.1
			c0-5.2,4.3-9.4,11.1-9.4c3.3,0,6.1,0.9,7.8,2l-1.4,4.3c-1.3-0.8-3.6-1.9-6.6-1.9c-3.5,0-5.3,2-5.3,4.4c0,2.7,1.9,3.9,6.1,5.5
			c5.5,2.1,8.4,4.9,8.4,9.6c0,5.7-4.5,9.7-12,9.7c-3.5,0-6.8-0.9-9.1-2.3L480.4,41.3z"/>
	</g>
</g>
</svg>
