<svg id="Layer_1" data-name="Layer 1" xmlns="http://www.w3.org/2000/svg" viewBox="0 0 279.79 41.66"><defs><style>.cls-1{fill:#595b5a;}.cls-2{fill:#016cf6;}</style></defs><title>rock-content</title><path class="cls-1" d="M63.12,15.51V31.88H58V10h4.85v1.78C64.95,10,67.62,9.5,70.34,9.5v4.69A19.18,19.18,0,0,0,63.12,15.51Z"/><path class="cls-1" d="M82.21,32.46c-6.36,0-9.85-3.26-9.85-10.17V19.62c0-6.87,3.49-10.12,9.85-10.12s9.85,3.26,9.85,10.12V22.3C92.07,29.2,88.58,32.46,82.21,32.46ZM87,19.62c0-4.19-1.44-5.74-4.77-5.74s-4.77,1.55-4.77,5.74V22.3c0,4.19,1.44,5.78,4.77,5.78S87,26.49,87,22.3V19.62Z"/><path class="cls-1" d="M105.22,32.46c-6.29,0-9.2-3.57-9.2-10.13V19.58c0-6.67,2.91-10.09,9.2-10.09a24.83,24.83,0,0,1,6.75.81v3.88c-2.75-.23-4.66-0.35-5.86-0.35-3.18,0-5,1-5,5.74v2.75c0,4.7,1.79,5.78,5,5.78,1.2,0,3.1-.12,5.86-0.35v3.88A26.54,26.54,0,0,1,105.22,32.46Z"/><path class="cls-1" d="M129.16,31.88l-7.72-10.36V31.88h-5.08V1.74h5.08v18L129.2,10h5.86L126.6,20.51l8.69,11.37h-6.13Z"/><path class="cls-1" d="M145.77,32.46c-6.29,0-9.19-3.57-9.19-10.13V19.58c0-6.67,2.91-10.09,9.19-10.09a24.82,24.82,0,0,1,6.75.81v3.88c-2.75-.23-4.65-0.35-5.86-0.35-3.18,0-5,1-5,5.74v2.75c0,4.7,1.78,5.78,5,5.78,1.2,0,3.1-.12,5.86-0.35v3.88A26.53,26.53,0,0,1,145.77,32.46Z"/><path class="cls-1" d="M165.33,32.46c-6.36,0-9.85-3.26-9.85-10.17V19.62c0-6.87,3.49-10.12,9.85-10.12s9.86,3.26,9.86,10.12V22.3C175.18,29.2,171.69,32.46,165.33,32.46Zm4.77-12.84c0-4.19-1.43-5.74-4.77-5.74s-4.77,1.55-4.77,5.74V22.3c0,4.19,1.44,5.78,4.77,5.78s4.77-1.59,4.77-5.78V19.62Z"/><path class="cls-1" d="M193.89,31.88V18c0-3.14-.54-4.23-3.07-4.23a16.84,16.84,0,0,0-5.74,1.47V31.88H180V10h4.89v1.74a14.6,14.6,0,0,1,7.18-2.29c6.17,0,7,3.57,7,8.53V31.88h-5.16Z"/><path class="cls-1" d="M212,32.46c-4.31,0-6-1.71-6-6.29v-12l-4.07-.35V10H206V4.49h5.12V10h5.32v4.11h-5.32V26.1c0,2,.16,2.41,2,2.41,1.13,0,2.68-.08,3.3-0.16v3.49A18.59,18.59,0,0,1,212,32.46Z"/><path class="cls-1" d="M224,22.57V23c0,3.18.47,5.24,5.82,5.24,2.29,0,5-.23,7.88-0.5v3.84a35.1,35.1,0,0,1-8.11.93c-7.88,0-10.67-3-10.67-10.71V20.4c0-7.33,3.34-10.9,9.85-10.9,7.29,0,9.86,4.73,9.86,11.37v1.71H224Zm9.51-3.69c0-2.52-.5-5.28-4.73-5.28s-4.73,2.79-4.73,5.28v0.35h9.46V18.88Z"/><path class="cls-1" d="M257.29,31.88V18c0-3.14-.54-4.23-3.07-4.23a16.85,16.85,0,0,0-5.74,1.47V31.88H243.4V10h4.89v1.74a14.61,14.61,0,0,1,7.18-2.29c6.17,0,7,3.57,7,8.53V31.88h-5.16Z"/><path class="cls-1" d="M275.37,32.46c-4.31,0-6-1.71-6-6.29v-12l-4.07-.35V10h4.07V4.49h5.12V10h5.32v4.11h-5.32V26.1c0,2,.16,2.41,2,2.41,1.13,0,2.68-.08,3.3-0.16v3.49A18.57,18.57,0,0,1,275.37,32.46Z"/><rect class="cls-2" x="11.8" y="18.64" width="20.99" height="4.4"/><path class="cls-2" d="M32.79,29.44a2.4,2.4,0,0,1-2.4,2.4H14.2a2.4,2.4,0,0,1-2.4-2.4v-2h21v2Z"/><path class="cls-2" d="M32.79,14.25h-21v-2a2.4,2.4,0,0,1,2.4-2.4H30.39a2.4,2.4,0,0,1,2.4,2.4v2Z"/><path class="cls-2" d="M28,0L17.62,0C4.63,0.33,0,7.9,0,21.63c0,14,5.61,20,16.82,20l10.4,0c13-.3,17.63-7.87,17.63-21.6C44.85,6,39.23,0,28,0Zm-0.8,37.24v0h-10c-9.62,0-11.62-6.41-11.62-15.62,0-10.26,2.74-17,12-17.2l10,0c9.61,0,11.61,6.41,11.61,15.62C39.23,30.29,36.5,37,27.22,37.24Z"/><path class="cls-2" d="M46.87,39.67a2,2,0,1,1-2-2A2,2,0,0,1,46.87,39.67Zm-3.54,0a1.52,1.52,0,0,0,1.54,1.57,1.51,1.51,0,0,0,1.5-1.56A1.52,1.52,0,1,0,43.33,39.67Zm1.21,1H44.08v-2a4,4,0,0,1,.76-0.06,1.22,1.22,0,0,1,.68.14,0.54,0.54,0,0,1,.19.43,0.5,0.5,0,0,1-.41.46v0a0.58,0.58,0,0,1,.36.48,1.52,1.52,0,0,0,.14.49H45.32a1.69,1.69,0,0,1-.16-0.48,0.35,0.35,0,0,0-.41-0.31H44.54V40.7Zm0-1.12h0.22c0.25,0,.46-0.08.46-0.29S45.09,39,44.8,39a1.12,1.12,0,0,0-.25,0v0.56Z"/></svg>