<?xml version="1.0" encoding="utf-8"?>
<!-- Generator: Adobe Illustrator 19.1.0, SVG Export Plug-In . SVG Version: 6.00 Build 0)  -->
<svg version="1.1" id="Layer_1" xmlns="http://www.w3.org/2000/svg" xmlns:xlink="http://www.w3.org/1999/xlink" x="0px" y="0px"
	 viewBox="0 0 280 60" style="enable-background:new 0 0 280 60;" xml:space="preserve">
<style type="text/css">
	.st0{fill:#FFFFFF;}
</style>
<g>
	<g>
		<path class="st0" d="M0,21c1.1-0.2,2.7-0.3,4.6-0.3c2.3,0,3.8,0.3,4.9,1.2c0.9,0.7,1.4,1.7,1.4,3.1c0,1.8-1.4,3.1-2.7,3.6v0.1
			c1.1,0.4,1.7,1.4,2,2.7c0.5,1.7,0.9,3.6,1.2,4.2H8c-0.2-0.4-0.6-1.6-1-3.4c-0.4-1.8-1.1-2.3-2.5-2.4h-1v5.8H0V21z M3.4,27.3h1.4
			c1.7,0,2.7-0.8,2.7-2.1c0-1.3-1-2-2.5-2c-0.8,0-1.3,0-1.6,0.1V27.3z"/>
		<path class="st0" d="M15.4,31.2c0.1,1.4,1.5,2,3.1,2c1.2,0,2.1-0.2,3.1-0.5L22,35c-1.1,0.5-2.5,0.7-4,0.7c-3.8,0-5.9-2.1-5.9-5.4
			c0-2.7,1.7-5.7,5.6-5.7c3.6,0,4.9,2.7,4.9,5.3c0,0.6-0.1,1.1-0.1,1.3H15.4z M19.4,28.9c0-0.8-0.4-2.2-1.9-2.2
			c-1.4,0-2,1.3-2.1,2.2H19.4z"/>
		<path class="st0" d="M24.1,32.6c0.6,0.4,1.9,0.8,3,0.8c1,0,1.5-0.3,1.5-0.9c0-0.6-0.3-0.8-1.6-1.2c-2.3-0.7-3.2-1.9-3.2-3.2
			c0-2,1.8-3.5,4.5-3.5c1.3,0,2.4,0.3,3.1,0.6l-0.6,2.3c-0.5-0.3-1.5-0.6-2.4-0.6c-0.8,0-1.3,0.3-1.3,0.8c0,0.5,0.4,0.8,1.8,1.2
			c2.1,0.7,3,1.7,3,3.3c0,2-1.6,3.5-4.8,3.5c-1.4,0-2.7-0.3-3.6-0.8L24.1,32.6z"/>
		<path class="st0" d="M43.8,32c0,1.4,0,2.5,0.1,3.4h-3l-0.2-1.5h-0.1c-0.4,0.7-1.5,1.7-3.5,1.7c-2.3,0-3.9-1.3-3.9-4.6v-6.2h3.4
			v5.7c0,1.5,0.5,2.5,1.7,2.5c1,0,1.5-0.6,1.7-1.2c0.1-0.2,0.1-0.4,0.1-0.7v-6.3h3.4V32z"/>
		<path class="st0" d="M46,20h3.4v15.5H46V20z"/>
		<path class="st0" d="M55.5,21.9v2.9H58v2.4h-2.5v3.9c0,1.3,0.3,1.9,1.4,1.9c0.5,0,0.7,0,1-0.1l0,2.5c-0.4,0.2-1.3,0.3-2.2,0.3
			c-1.1,0-2-0.4-2.6-0.9c-0.6-0.6-1-1.7-1-3.2v-4.4h-1.5v-2.4h1.5v-2L55.5,21.9z"/>
		<path class="st0" d="M68.6,32.9c0,1,0,2,0.2,2.6h-3.1l-0.2-1.1h-0.1c-0.7,0.8-1.9,1.3-3.2,1.3c-2.2,0-3.6-1.6-3.6-3.3
			c0-2.8,2.6-4.1,6.5-4.1v-0.1c0-0.6-0.3-1.4-2-1.4c-1.1,0-2.3,0.4-3.1,0.8l-0.6-2.1c0.8-0.4,2.3-1,4.3-1c3.7,0,4.8,2.1,4.8,4.6
			V32.9z M65.3,30.4c-1.8,0-3.2,0.4-3.2,1.7c0,0.8,0.6,1.3,1.4,1.3c0.8,0,1.6-0.5,1.8-1.2c0-0.2,0.1-0.4,0.1-0.6V30.4z"/>
		<path class="st0" d="M81.5,20v12.3c0,1.2,0,2.5,0.1,3.2h-3.1l-0.1-1.5h-0.1c-0.7,1.2-2,1.8-3.5,1.8c-2.6,0-4.7-2.2-4.7-5.5
			c0-3.6,2.3-5.7,5-5.7c1.4,0,2.4,0.5,2.9,1.2h0V20H81.5z M78.1,29.3c0-0.2,0-0.4,0-0.6c-0.2-0.9-1-1.6-2-1.6c-1.6,0-2.4,1.3-2.4,3
			c0,1.8,0.9,2.9,2.4,2.9c1,0,1.8-0.7,2-1.6c0-0.2,0.1-0.5,0.1-0.8V29.3z"/>
		<path class="st0" d="M94.6,30c0,3.9-2.9,5.7-5.8,5.7c-3.2,0-5.7-2-5.7-5.5c0-3.5,2.4-5.7,5.9-5.7C92.4,24.5,94.6,26.8,94.6,30z
			 M86.6,30.1c0,1.8,0.8,3.2,2.3,3.2c1.4,0,2.2-1.3,2.2-3.2c0-1.6-0.6-3.2-2.2-3.2C87.2,26.9,86.6,28.6,86.6,30.1z"/>
		<path class="st0" d="M96.2,32.6c0.6,0.4,1.9,0.8,3,0.8c1,0,1.5-0.3,1.5-0.9c0-0.6-0.3-0.8-1.6-1.2c-2.3-0.7-3.2-1.9-3.2-3.2
			c0-2,1.8-3.5,4.5-3.5c1.3,0,2.4,0.3,3.1,0.6l-0.6,2.3c-0.5-0.3-1.5-0.6-2.4-0.6c-0.8,0-1.3,0.3-1.3,0.8c0,0.5,0.4,0.8,1.8,1.2
			c2.1,0.7,3,1.7,3,3.3c0,2-1.6,3.5-4.8,3.5c-1.4,0-2.7-0.3-3.6-0.8L96.2,32.6z"/>
	</g>
	<g>
		<path class="st0" d="M105.8,21c1.2-0.2,2.6-0.3,4.2-0.3c2.8,0,4.8,0.7,6.2,1.8c1.4,1.2,2.2,2.9,2.2,5.3c0,2.4-0.8,4.4-2.2,5.7
			c-1.4,1.4-3.8,2.1-6.8,2.1c-1.4,0-2.6-0.1-3.6-0.2V21z M107.7,34c0.5,0.1,1.2,0.1,2,0.1c4.2,0,6.5-2.3,6.5-6.2
			c0-3.5-2-5.7-6.2-5.7c-1,0-1.8,0.1-2.3,0.2V34z"/>
		<path class="st0" d="M122.4,22c0,0.7-0.5,1.2-1.3,1.2c-0.7,0-1.2-0.5-1.2-1.2c0-0.7,0.5-1.2,1.2-1.2
			C121.9,20.8,122.4,21.3,122.4,22z M120.2,35.5V24.9h2v10.5H120.2z"/>
		<path class="st0" d="M134.3,33.9c0,2.4-0.5,3.9-1.6,4.8c-1.1,0.9-2.6,1.3-4,1.3c-1.3,0-2.8-0.3-3.6-0.9l0.5-1.5
			c0.7,0.5,1.9,0.8,3.2,0.8c2,0,3.5-1,3.5-3.7v-1.2h0c-0.6,1-1.8,1.8-3.5,1.8c-2.7,0-4.7-2.2-4.7-5.1c0-3.6,2.4-5.6,5-5.6
			c1.9,0,2.9,0.9,3.4,1.8h0l0.1-1.6h1.8c-0.1,0.7-0.1,1.6-0.1,2.9V33.9z M132.3,29.1c0-0.3,0-0.6-0.1-0.8c-0.4-1.1-1.3-2-2.8-2
			c-1.9,0-3.3,1.5-3.3,4c0,2.1,1.1,3.8,3.2,3.8c1.2,0,2.4-0.7,2.8-2c0.1-0.3,0.2-0.7,0.2-1V29.1z"/>
		<path class="st0" d="M139.1,22c0,0.7-0.5,1.2-1.3,1.2c-0.7,0-1.2-0.5-1.2-1.2c0-0.7,0.5-1.2,1.2-1.2
			C138.6,20.8,139.1,21.3,139.1,22z M136.9,35.5V24.9h2v10.5H136.9z"/>
		<path class="st0" d="M144,22.4v2.5h2.9v1.5H144v5.7c0,1.3,0.4,2,1.5,2c0.5,0,0.9,0,1.2-0.1l0.1,1.5c-0.4,0.1-1,0.3-1.8,0.3
			c-0.9,0-1.7-0.3-2.1-0.8c-0.5-0.6-0.8-1.5-0.8-2.8v-5.7h-1.7v-1.5h1.7v-2L144,22.4z"/>
		<path class="st0" d="M156.2,32.9c0,0.9,0,1.8,0.2,2.5h-1.8l-0.2-1.3h-0.1c-0.6,0.8-1.8,1.6-3.3,1.6c-2.2,0-3.3-1.5-3.3-3
			c0-2.5,2.4-3.9,6.6-3.9v-0.2c0-0.8-0.2-2.4-2.5-2.4c-1,0-2.1,0.3-2.9,0.8l-0.5-1.3c0.9-0.5,2.2-0.9,3.6-0.9c3.3,0,4.2,2.2,4.2,4.3
			V32.9z M154.3,30.1c-2.2,0-4.6,0.3-4.6,2.4c0,1.3,0.9,1.8,1.9,1.8c1.4,0,2.4-0.9,2.7-1.8c0.1-0.2,0.1-0.4,0.1-0.6V30.1z"/>
		<path class="st0" d="M161.1,22c0,0.7-0.5,1.2-1.3,1.2c-0.7,0-1.2-0.5-1.2-1.2c0-0.7,0.5-1.2,1.2-1.2
			C160.6,20.8,161.1,21.3,161.1,22z M158.9,35.5V24.9h2v10.5H158.9z"/>
		<path class="st0" d="M163.3,33.5c0.6,0.3,1.7,0.7,2.6,0.7c1.4,0,2.1-0.7,2.1-1.6c0-0.9-0.6-1.4-2-1.9c-2-0.7-2.9-1.7-2.9-3
			c0-1.7,1.4-3.1,3.8-3.1c1.1,0,2.1,0.3,2.7,0.7l-0.5,1.4c-0.4-0.3-1.2-0.6-2.2-0.6c-1.2,0-1.8,0.7-1.8,1.4c0,0.9,0.6,1.3,2.1,1.8
			c1.9,0.7,2.9,1.6,2.9,3.2c0,1.9-1.5,3.2-4.1,3.2c-1.2,0-2.3-0.3-3.1-0.7L163.3,33.5z"/>
	</g>
</g>
</svg>
